<svg width="95" height="95" viewBox="0 0 95 95" fill="none" xmlns="http://www.w3.org/2000/svg">
<g clip-path="url(#clip0)">
<path d="M88.0368 81.0595C91.5498 81.0595 94.4079 78.2014 94.4079 74.6883V9.80735C94.4079 4.77685 90.3152 0.684204 85.2847 0.684204H10.11C5.07946 0.684204 0.986816 4.77685 0.986816 9.80735V74.6883C0.986816 78.2014 3.84492 81.0595 7.35788 81.0595H9.38011V90.456H2.81145C1.8037 90.456 0.986816 91.2731 0.986816 92.2806C0.986816 93.2882 1.8037 94.1053 2.81145 94.1053H92.5832C93.591 94.1053 94.4079 93.2882 94.4079 92.2806C94.4079 91.2731 93.591 90.456 92.5832 90.456H86.0146V81.0595H88.0368ZM4.63608 9.80735C4.63608 6.78905 7.09166 4.33346 10.11 4.33346H85.2847C88.303 4.33346 90.7586 6.78905 90.7586 9.80735V13.8215H4.81927C4.75741 13.8215 4.69629 13.8248 4.63608 13.8308V9.80735ZM21.0577 90.456H13.0294V74.0343H21.0577V90.456ZM41.4936 90.456H33.4652V53.8598H41.4936V90.456ZM61.9295 90.456H53.9011V69.2903H61.9295V90.456ZM84.1899 47.486H72.5123C71.5046 47.486 70.6877 48.303 70.6877 49.3106V58.5248C70.6877 59.5323 71.5046 60.3494 72.5123 60.3494C73.5201 60.3494 74.3369 59.5323 74.3369 58.5248V51.1352H82.3653V90.456H74.3369V70.7956C74.3369 69.788 73.5201 68.971 72.5123 68.971C71.5046 68.971 70.6877 69.788 70.6877 70.7956V90.456H65.5787V67.4657C65.5787 66.4581 64.7618 65.641 63.7541 65.641H52.0765C51.0687 65.641 50.2518 66.4581 50.2518 67.4657V90.456H45.1429V52.0351C45.1429 51.0276 44.326 50.2105 43.3182 50.2105H31.6406C30.6329 50.2105 29.816 51.0276 29.816 52.0351V90.456H24.707V72.2097C24.707 71.2021 23.8901 70.3851 22.8824 70.3851H11.2047C10.197 70.3851 9.38011 71.2021 9.38011 72.2097V77.4103H7.35788C5.85694 77.4103 4.63608 76.1892 4.63608 74.6883V17.4615C4.69629 17.4675 4.75741 17.4708 4.81927 17.4708H90.7586V74.6883C90.7586 76.1892 89.5376 77.4103 88.0368 77.4103H86.0146V49.3106C86.0146 48.303 85.1977 47.486 84.1899 47.486Z" fill="white"/>
<path d="M82.7301 7.25287H41.5053C40.4976 7.25287 39.6807 8.06994 39.6807 9.0775C39.6807 10.0851 40.4976 10.9021 41.5053 10.9021H82.7301C83.7378 10.9021 84.5547 10.0851 84.5547 9.0775C84.5547 8.06994 83.7378 7.25287 82.7301 7.25287Z" fill="white"/>
<path d="M21.2528 7.78749C20.9134 7.4481 20.4427 7.25287 19.9628 7.25287C19.4829 7.25287 19.0122 7.44792 18.6728 7.78749C18.3334 8.12687 18.1382 8.59762 18.1382 9.0775C18.1382 9.55738 18.3334 10.0281 18.6728 10.3673C19.0122 10.7069 19.4829 10.9021 19.9628 10.9021C20.4427 10.9021 20.9134 10.7069 21.2528 10.3673C21.5922 10.0281 21.7874 9.55738 21.7874 9.0775C21.7874 8.59762 21.5922 8.12687 21.2528 7.78749Z" fill="white"/>
<path d="M13.9545 7.78749C13.6151 7.4481 13.1444 7.25287 12.6645 7.25287C12.1846 7.25287 11.7138 7.44792 11.3745 7.78749C11.0351 8.12687 10.8398 8.59762 10.8398 9.0775C10.8398 9.55738 11.0351 10.0281 11.3745 10.3673C11.7138 10.7069 12.1846 10.9021 12.6645 10.9021C13.1444 10.9021 13.6151 10.7069 13.9545 10.3673C14.2939 10.0281 14.4891 9.55738 14.4891 9.0775C14.4891 8.59762 14.2939 8.12687 13.9545 7.78749Z" fill="white"/>
<path d="M28.5517 7.78749C28.2123 7.4481 27.7433 7.25287 27.2616 7.25287C26.7818 7.25287 26.311 7.44792 25.9716 7.78749C25.6322 8.12687 25.437 8.59762 25.437 9.0775C25.437 9.55738 25.6322 10.0281 25.9716 10.3673C26.311 10.7069 26.7818 10.9021 27.2616 10.9021C27.7415 10.9021 28.2123 10.7069 28.5517 10.3673C28.891 10.0281 29.0863 9.55738 29.0863 9.0775C29.0863 8.59762 28.891 8.12687 28.5517 7.78749Z" fill="white"/>
<path d="M73.8021 63.7379C73.4628 63.3967 72.992 63.2033 72.5121 63.2033C72.0323 63.2033 71.5615 63.3969 71.2221 63.7379C70.8827 64.0773 70.6875 64.5481 70.6875 65.0279C70.6875 65.5078 70.8827 65.9786 71.2221 66.3179C71.5615 66.6571 72.0323 66.8526 72.5121 66.8526C72.992 66.8526 73.4628 66.6573 73.8021 66.3179C74.1415 65.9786 74.3368 65.5078 74.3368 65.0279C74.3368 64.5462 74.1415 64.0773 73.8021 63.7379Z" fill="white"/>
<path d="M78.3514 25.488C74.7293 25.488 71.7827 28.4346 71.7827 32.0567C71.7827 33.4954 72.2489 34.8267 73.0364 35.91L60.9163 48.0301C59.9757 47.5095 58.8952 47.2121 57.746 47.2121C56.7106 47.2121 55.7307 47.4538 54.8587 47.8825L42.2033 35.227C42.7239 34.2864 43.0213 33.2059 43.0213 32.0567C43.0213 28.4346 40.0747 25.488 36.4526 25.488C32.8305 25.488 29.8839 28.4346 29.8839 32.0567C29.8839 33.3226 30.2448 34.5054 30.8678 35.5093L20.0928 46.2841C19.1522 45.7635 18.0716 45.4661 16.9227 45.4661C13.3006 45.4661 10.354 48.4127 10.354 52.0348C10.354 55.6568 13.3006 58.6034 16.9227 58.6034C20.5447 58.6034 23.4913 55.6568 23.4913 52.0348C23.4913 50.8856 23.1939 49.8051 22.6734 48.8645L33.577 37.9608C34.4461 38.3858 35.4219 38.6252 36.4526 38.6252C37.6016 38.6252 38.6821 38.3278 39.6227 37.8072L52.1543 50.3386C51.5355 51.3403 51.1774 52.519 51.1774 53.7804C51.1774 57.4025 54.124 60.3491 57.746 60.3491C61.3681 60.3491 64.3147 57.4025 64.3147 53.7804C64.3147 52.6312 64.0173 51.5507 63.4967 50.6101L75.9416 38.1652C76.6884 38.4612 77.5009 38.6254 78.3514 38.6254C81.9735 38.6254 84.9201 35.6788 84.9201 32.0567C84.9201 28.4346 81.9735 25.488 78.3514 25.488ZM16.9229 54.9545C15.3132 54.9545 14.0034 53.6448 14.0034 52.0351C14.0034 50.4254 15.3132 49.1157 16.9229 49.1157C18.5325 49.1157 19.8423 50.4254 19.8423 52.0351C19.8423 53.6448 18.5325 54.9545 16.9229 54.9545ZM36.4528 34.9761C34.8431 34.9761 33.5334 33.6664 33.5334 32.0567C33.5334 30.447 34.8431 29.1373 36.4528 29.1373C38.0625 29.1373 39.3722 30.447 39.3722 32.0567C39.3722 33.6664 38.0625 34.9761 36.4528 34.9761ZM57.7462 56.7002C56.1365 56.7002 54.8268 55.3904 54.8268 53.7807C54.8268 52.1711 56.1365 50.8613 57.7462 50.8613C59.3559 50.8613 60.6656 52.1711 60.6656 53.7807C60.6656 55.3904 59.3559 56.7002 57.7462 56.7002ZM78.3514 34.9761C76.7417 34.9761 75.432 33.6664 75.432 32.0567C75.432 30.447 76.7417 29.1373 78.3514 29.1373C79.9611 29.1373 81.2708 30.447 81.2708 32.0567C81.2708 33.6664 79.9611 34.9761 78.3514 34.9761Z" fill="white"/>
<path d="M28.0517 24.213C27.7105 23.8736 27.2415 23.6782 26.7616 23.6782C26.2799 23.6782 25.8092 23.8735 25.4698 24.213C25.1304 24.5522 24.937 25.023 24.937 25.5029C24.937 25.9827 25.1304 26.4535 25.4698 26.7929C25.811 27.1323 26.2799 27.3275 26.7616 27.3275C27.2415 27.3275 27.7105 27.1324 28.0517 26.7929C28.391 26.4535 28.5863 25.9827 28.5863 25.5029C28.5863 25.023 28.391 24.5522 28.0517 24.213Z" fill="white"/>
<path d="M19.9627 23.6784H11.2045C10.1968 23.6784 9.37988 24.4955 9.37988 25.503C9.37988 26.5106 10.1968 27.3277 11.2045 27.3277H19.9627C20.9705 27.3277 21.7874 26.5106 21.7874 25.503C21.7874 24.4955 20.9705 23.6784 19.9627 23.6784Z" fill="white"/>
<path d="M19.9627 32.4366H11.2045C10.1968 32.4366 9.37988 33.2537 9.37988 34.2612C9.37988 35.2688 10.1968 36.0858 11.2045 36.0858H19.9627C20.9705 36.0858 21.7874 35.2688 21.7874 34.2612C21.7874 33.2537 20.9705 32.4366 19.9627 32.4366Z" fill="white"/>
</g>
<defs>
<clipPath id="clip0">
<rect width="93.4211" height="93.4211" fill="white" transform="translate(0.986816 0.684204)"/>
</clipPath>
</defs>
</svg>
