<svg width="82" height="82" viewBox="0 0 82 82" fill="none" xmlns="http://www.w3.org/2000/svg">
<path d="M2.665 55.8726C2.70984 56.4364 3.11856 56.904 3.67206 57.0232L8.13722 57.9867C8.29481 58.7477 8.49469 59.4986 8.73684 60.2314L5.35691 63.2936C4.93794 63.6729 4.8175 64.2827 5.06094 64.794C5.6785 66.0932 6.36653 67.2937 7.10581 68.3622C7.42613 68.8261 8.01294 69.0259 8.55234 68.853L12.8919 67.4551C13.4108 68.0368 13.9631 68.589 14.5448 69.1079L13.1469 73.4475C12.9739 73.9844 13.1725 74.5725 13.6376 74.8941C14.7062 75.6333 15.9067 76.3214 17.2059 76.9389C17.7184 77.1824 18.327 77.0607 18.7063 76.643L21.7684 73.263C22.5026 73.5039 23.2534 73.7051 24.0145 73.8627L24.978 78.3278C25.0971 78.88 25.5648 79.2887 26.1273 79.3349C26.8089 79.3887 27.4918 79.4374 28.1875 79.4374C28.8832 79.4374 29.5661 79.3887 30.2477 79.3349C30.8115 79.29 31.2792 78.8813 31.3983 78.3278L32.3618 73.8627C33.1229 73.7051 33.875 73.5052 34.6078 73.263L37.67 76.643C38.0506 77.0619 38.6604 77.1837 39.1704 76.9389C40.4696 76.3214 41.6701 75.6321 42.7387 74.8941C43.2037 74.5725 43.4023 73.9844 43.2294 73.4475L41.8315 69.1079C42.4132 68.589 42.9654 68.0368 43.4843 67.4564L47.8239 68.8543C48.3608 69.0285 48.9489 68.8286 49.2705 68.3635C50.0098 67.295 50.6978 66.0944 51.3153 64.7952C51.5588 64.284 51.4383 63.6742 51.0194 63.2949L47.6394 60.2327C47.8803 59.4986 48.0815 58.7477 48.2391 57.9867L52.7042 57.0232C53.2564 56.904 53.6652 56.4364 53.7113 55.8739C53.7638 55.191 53.8125 54.5081 53.8125 53.8124C53.8125 53.1167 53.7638 52.4337 53.71 51.7521C53.6652 51.1884 53.2564 50.7207 52.7029 50.6016L48.2378 49.6381C48.0802 48.877 47.8803 48.1249 47.6382 47.392L51.0181 44.3298C51.4371 43.9506 51.5575 43.3407 51.3141 42.8295C50.6965 41.5303 50.0072 40.3298 49.2692 39.2612C48.9476 38.7961 48.3595 38.5962 47.8227 38.7705L43.4831 40.1683C42.9642 39.5867 42.4119 39.0344 41.8302 38.5155L43.2281 34.1759C43.4011 33.6391 43.2025 33.051 42.7374 32.7294C41.6688 31.9901 40.4683 31.3021 39.1691 30.6845C38.6566 30.4398 38.048 30.5615 37.6688 30.9805L34.6066 34.3604C33.8724 34.1196 33.1216 33.9184 32.3605 33.7608L31.397 29.2957C31.2779 28.7434 30.8102 28.3347 30.2477 28.2886C28.8832 28.1784 27.4905 28.181 26.126 28.2886C25.5622 28.3334 25.0946 28.7422 24.9754 29.2957L24.0119 33.7608C23.2508 33.9184 22.5 34.1183 21.7672 34.3604L18.705 30.9805C18.3257 30.5615 17.7171 30.4411 17.2046 30.6845C15.9054 31.3021 14.7049 31.9901 13.6363 32.7294C13.1712 33.051 12.9727 33.6391 13.1456 34.1759L14.5435 38.5155C13.9618 39.0344 13.4096 39.5867 12.8907 40.1683L8.55234 38.7705C8.01422 38.5962 7.42613 38.7961 7.10581 39.2612C6.36653 40.3298 5.6785 41.5303 5.06094 42.8295C4.8175 43.3407 4.93794 43.9506 5.35691 44.3298L8.73684 47.392C8.49597 48.1262 8.29481 48.877 8.13722 49.6381L3.67206 50.6016C3.11984 50.7207 2.71112 51.1884 2.665 51.7508C2.61119 52.4337 2.5625 53.1167 2.5625 53.8124C2.5625 54.5081 2.61119 55.191 2.665 55.8726ZM5.15191 52.904L9.51072 51.9622C10.0258 51.8508 10.4204 51.4357 10.505 50.9155C10.6972 49.7342 11.0072 48.5746 11.4262 47.4676C11.6133 46.9756 11.4787 46.4183 11.0879 46.0647L7.79641 43.0819C8.08341 42.5322 8.38322 42.0057 8.69328 41.5072L12.9163 42.8679C13.416 43.0281 13.9669 42.8679 14.3013 42.4605C15.0573 41.5354 15.9106 40.6834 16.8356 39.9262C17.2431 39.5931 17.4058 39.0434 17.2431 38.5412L15.8824 34.3182C16.3808 34.0068 16.9061 33.707 17.457 33.4213L20.4398 36.7141C20.7947 37.1049 21.3533 37.2394 21.844 37.0523C22.9485 36.6334 24.108 36.3233 25.2906 36.1311C25.8108 36.0466 26.2259 35.6519 26.3374 35.1369L27.2778 30.7781C27.8813 30.746 28.495 30.7447 29.0959 30.7781L30.0376 35.1369C30.1491 35.6519 30.5642 36.0466 31.0844 36.1311C32.2657 36.3233 33.4252 36.6334 34.5322 37.0523C35.0217 37.2394 35.5803 37.1062 35.9352 36.7141L38.918 33.4226C39.4676 33.7096 39.9942 34.0094 40.4926 34.3194L39.1319 38.5424C38.9705 39.0447 39.1319 39.5931 39.5394 39.9275C40.4644 40.6834 41.3165 41.5367 42.0737 42.4618C42.4081 42.8705 42.9577 43.0332 43.4587 42.8692L47.6817 41.5085C47.9931 42.0069 48.2929 42.5322 48.5786 43.0819L45.2858 46.0647C44.895 46.4183 44.7605 46.9756 44.9475 47.4689C45.3665 48.5733 45.6766 49.7329 45.8687 50.9155C45.9533 51.4357 46.3479 51.8508 46.863 51.9622L51.2218 52.9027C51.2385 53.2038 51.25 53.5074 51.25 53.8124C51.25 54.1173 51.2397 54.421 51.2231 54.7208L46.8643 55.6625C46.3492 55.774 45.9546 56.1891 45.87 56.7093C45.6778 57.8906 45.3678 59.0501 44.9488 60.1571C44.7617 60.6491 44.8963 61.2065 45.2871 61.5601L48.5786 64.5428C48.2916 65.0925 47.9918 65.6191 47.6817 66.1175L43.4587 64.7568C42.9552 64.5928 42.4081 64.7555 42.0737 65.1642C41.319 66.0868 40.4657 66.9401 39.5394 67.6986C39.1319 68.0317 38.9705 68.5813 39.1319 69.0823L40.4926 73.3053C39.9942 73.6167 39.4689 73.9165 38.9193 74.2022L35.9365 70.9094C35.5829 70.5186 35.0255 70.3866 34.5322 70.5711C33.4278 70.9901 32.2683 71.3002 31.0857 71.4923C30.5655 71.5769 30.1504 71.9715 30.0389 72.4866L29.0985 76.8454C28.495 76.8774 27.8813 76.8787 27.2804 76.8454L26.3387 72.4866C26.2272 71.9715 25.8121 71.5769 25.2919 71.4923C24.1106 71.3002 22.951 70.9901 21.844 70.5711C21.3533 70.3841 20.7947 70.5173 20.4411 70.9094L17.4583 74.2009C16.9087 73.9139 16.3821 73.6141 15.8837 73.304L17.2443 69.081C17.4058 68.5788 17.2443 68.0304 16.8369 67.696C15.9118 66.9401 15.0598 66.0868 14.3026 65.1617C13.9682 64.753 13.4172 64.5915 12.9176 64.7542L8.69456 66.1149C8.38322 65.6165 8.08341 65.0912 7.79769 64.5403L11.0905 61.5575C11.4813 61.2039 11.6158 60.6466 11.4288 60.1533C11.0098 59.0488 10.6997 57.8893 10.5075 56.7067C10.423 56.1865 10.0283 55.7714 9.51328 55.6599L5.15191 54.7221C5.13653 54.421 5.125 54.1173 5.125 53.8124C5.125 53.5074 5.13525 53.2038 5.15191 52.904Z" fill="white"/>
<path d="M69.4681 20.8011C69.9498 20.6499 70.2983 20.2283 70.356 19.7261C70.4329 19.0791 70.4688 18.4935 70.4688 17.9375C70.4688 17.3814 70.4329 16.7959 70.3573 16.1488C70.2996 15.6466 69.9511 15.2251 69.4694 15.0739L65.9165 13.9579C65.8101 13.6671 65.6923 13.3813 65.5628 13.102L67.2848 9.80281C67.518 9.35566 67.4668 8.81241 67.1542 8.41522C66.4123 7.47734 65.559 6.62403 64.6186 5.87963C64.2214 5.56572 63.6781 5.51575 63.231 5.74766L59.9292 7.46966C59.6499 7.34153 59.3642 7.22366 59.0733 7.11731L57.9573 3.56441C57.8062 3.08266 57.3846 2.73416 56.8824 2.6765C55.5857 2.52531 54.6005 2.52531 53.3038 2.6765C52.8016 2.73416 52.3801 3.08266 52.2289 3.56441L51.1129 7.11731C50.8221 7.22366 50.5363 7.34153 50.257 7.47094L46.9578 5.74894C46.5107 5.51703 45.9687 5.567 45.5702 5.87963C44.6323 6.62147 43.779 7.47478 43.0346 8.41522C42.7207 8.81241 42.6695 9.35438 42.9027 9.80281L44.6234 13.102C44.4952 13.3813 44.3774 13.6671 44.271 13.9579L40.7181 15.0739C40.2364 15.2251 39.8879 15.6466 39.8302 16.1488C39.7546 16.7959 39.7188 17.3814 39.7188 17.9375C39.7188 18.4935 39.7546 19.0791 39.8302 19.7261C39.8879 20.2283 40.2364 20.6499 40.7181 20.8011L44.271 21.917C44.3774 22.2079 44.4952 22.4936 44.6247 22.7729L42.9027 26.0721C42.6695 26.5193 42.7207 27.0625 43.0333 27.4597C43.7752 28.3976 44.6285 29.2509 45.5689 29.9953C45.9648 30.3092 46.5094 30.3592 46.9565 30.1273L50.2557 28.4066C50.5351 28.5347 50.8208 28.6526 51.1116 28.7589L52.2276 32.3118C52.3788 32.7936 52.8003 33.1421 53.3026 33.1997C53.9522 33.2766 54.5377 33.3125 55.0938 33.3125C55.6498 33.3125 56.2353 33.2766 56.8824 33.201C57.3846 33.1433 57.8062 32.7948 57.9573 32.3131L59.0733 28.7602C59.3642 28.6538 59.6499 28.536 59.9292 28.4066L63.2284 30.1286C63.6756 30.3617 64.2188 30.3118 64.616 29.9979C65.5539 29.256 66.4072 28.4027 67.1516 27.4623C67.4655 27.0651 67.5168 26.5231 67.2836 26.0747L65.5616 22.7755C65.691 22.4962 65.8088 22.2104 65.9152 21.9196L69.4681 20.8011ZM64.5225 19.6684C64.1176 19.7966 63.8024 20.1156 63.6794 20.523C63.5052 21.1022 63.2745 21.6595 62.9952 22.181C62.7941 22.5551 62.7902 23.0048 62.9875 23.3802L64.6134 26.4962C64.3098 26.8332 63.9882 27.1548 63.6525 27.4572L60.5365 25.8313C60.1598 25.6339 59.7101 25.6391 59.3372 25.8389C58.8158 26.1183 58.2584 26.3489 57.6793 26.5231C57.2732 26.6448 56.9528 26.9613 56.8247 27.3662L55.769 30.7282C55.3013 30.7564 54.8875 30.7564 54.4185 30.7282L53.3628 27.3662C53.2347 26.9613 52.9156 26.6461 52.5082 26.5231C51.9278 26.3489 51.3704 26.1183 50.8515 25.8389C50.4774 25.6378 50.0277 25.6339 49.651 25.8313L46.535 27.4572C46.198 27.1535 45.8764 26.8319 45.5741 26.4962L47.2 23.3802C47.396 23.0048 47.3934 22.5538 47.1923 22.181C46.913 21.6595 46.6823 21.1022 46.5081 20.523C46.3864 20.1169 46.0699 19.7966 45.665 19.6684L42.303 18.6127C42.2877 18.3782 42.2812 18.154 42.2812 17.9375C42.2812 17.7209 42.2877 17.4967 42.303 17.2623L45.665 16.2065C46.0699 16.0784 46.3851 15.7593 46.5081 15.3519C46.6823 14.7715 46.913 14.2142 47.1923 13.6953C47.3934 13.3211 47.3973 12.8714 47.2 12.4947L45.5741 9.37872C45.8777 9.04175 46.1993 8.72016 46.535 8.41778L49.651 10.0437C50.0264 10.2397 50.4774 10.2359 50.8502 10.036C51.3717 9.75669 51.9291 9.52606 52.5082 9.35181C52.9143 9.23009 53.2347 8.91363 53.3628 8.50875L54.4185 5.14675C54.8862 5.11856 55.3 5.11856 55.769 5.14675L56.8247 8.50875C56.9528 8.91363 57.2719 9.22881 57.6793 9.35181C58.2597 9.52606 58.8171 9.75669 59.336 10.036C59.7101 10.2372 60.1598 10.241 60.5365 10.0437L63.6525 8.41778C63.9895 8.72144 64.3111 9.04303 64.6134 9.37872L62.9875 12.4947C62.7915 12.8701 62.7941 13.3211 62.9952 13.694C63.2745 14.2154 63.5052 14.7728 63.6794 15.3519C63.8011 15.7581 64.1176 16.0784 64.5225 16.2065L67.8845 17.2623C67.8998 17.4967 67.9062 17.7209 67.9062 17.9375C67.9062 18.154 67.8998 18.3782 67.8845 18.6127L64.5225 19.6684Z" fill="white"/>
<path d="M78.4919 44.7975L76.2907 44.016C76.1652 43.6585 76.0217 43.3087 75.859 42.9692L76.8596 40.8615C77.0685 40.4233 77.0108 39.9057 76.711 39.5239C76.0704 38.7052 75.3298 37.9633 74.5085 37.3201C74.1254 37.0203 73.6053 36.964 73.1696 37.1715L71.0607 38.1722C70.7224 38.0107 70.3727 37.866 70.0152 37.7417L69.2323 35.5405C69.0696 35.0831 68.6609 34.7564 68.1792 34.6974C67.0376 34.5603 66.2112 34.5603 65.0696 34.6974C64.5878 34.7551 64.1791 35.0818 64.0164 35.5405L63.2348 37.7417C62.8773 37.8672 62.5276 38.0107 62.188 38.1735L60.0804 37.1728C59.6447 36.9652 59.1258 37.0229 58.7427 37.3214C57.924 37.962 57.1822 38.7026 56.539 39.5239C56.2405 39.9057 56.1828 40.4246 56.3904 40.8628L57.391 42.9717C57.2296 43.31 57.0848 43.6598 56.9605 44.0172L54.7593 44.8001C54.3019 44.9628 53.9752 45.3715 53.9163 45.8533C53.8458 46.4209 53.8125 46.9295 53.8125 47.4061C53.8125 47.8828 53.8458 48.3901 53.915 48.9603C53.9727 49.442 54.2994 49.8508 54.7581 50.0135L56.9593 50.795C57.0848 51.1525 57.2283 51.5023 57.391 51.8418L56.3904 53.9495C56.1815 54.3877 56.2392 54.9053 56.539 55.2871C57.1796 56.1058 57.9202 56.8477 58.7415 57.4909C59.1233 57.7894 59.6435 57.847 60.0804 57.6395L62.1893 56.6388C62.5276 56.8003 62.8773 56.945 63.2348 57.0693L64.0177 59.2705C64.1804 59.7279 64.5891 60.0546 65.0708 60.1136C65.641 60.1853 66.1484 60.2186 66.625 60.2186C67.1016 60.2186 67.609 60.1853 68.1792 60.1161C68.6609 60.0585 69.0696 59.7318 69.2323 59.2731L70.0139 57.0719C70.3714 56.9463 70.7212 56.8028 71.0607 56.6401L73.1683 57.6408C73.6052 57.8496 74.1254 57.7932 74.506 57.4921C75.3247 56.8515 76.0665 56.1109 76.7097 55.2897C77.0082 54.9079 77.0659 54.389 76.8583 53.9508L75.8577 51.8418C76.0191 51.5036 76.1639 51.1538 76.2882 50.7963L78.4894 50.0135C78.9468 49.8508 79.2735 49.442 79.3324 48.9603C79.4042 48.3901 79.4375 47.8828 79.4375 47.4061C79.4375 46.9295 79.4042 46.4221 79.335 45.852C79.2773 45.3689 78.9506 44.9615 78.4919 44.7975ZM76.8622 47.8738L74.8314 48.5951C74.4381 48.7348 74.137 49.0577 74.0255 49.46C73.8577 50.0686 73.6181 50.649 73.3144 51.1858C73.1094 51.5484 73.094 51.9892 73.2721 52.3659L74.1921 54.3044C73.9794 54.5376 73.7564 54.7605 73.5245 54.9719L71.586 54.052C71.2119 53.8739 70.7698 53.8893 70.406 54.0943C69.8678 54.3992 69.2874 54.6375 68.6814 54.8054C68.2791 54.9168 67.9562 55.2179 67.8153 55.6113L67.0939 57.642C66.7839 57.6587 66.4687 57.6587 66.1586 57.642L65.4373 55.6113C65.2976 55.2179 64.9747 54.9168 64.5724 54.8054C63.9638 54.6375 63.3834 54.3979 62.8466 54.0943C62.484 53.8905 62.0445 53.8752 61.6666 54.052L59.728 54.9719C59.4948 54.7592 59.2719 54.5363 59.0605 54.3044L59.9804 52.3659C60.1598 51.9892 60.1432 51.5484 59.9382 51.1858C59.6332 50.6477 59.3949 50.0673 59.2271 49.4613C59.1156 49.059 58.8145 48.7361 58.4212 48.5951L56.3904 47.8738C56.3801 47.7188 56.375 47.5637 56.375 47.4061C56.375 47.2485 56.3801 47.0922 56.3878 46.9385L58.4186 46.2159C58.8119 46.0762 59.113 45.7533 59.2232 45.351C59.3923 44.7411 59.6319 44.162 59.9356 43.6252C60.1406 43.2626 60.156 42.8218 59.9779 42.4451L59.0579 40.5066C59.2706 40.2734 59.4936 40.0505 59.7255 39.8391L61.664 40.759C62.0407 40.9384 62.4814 40.923 62.844 40.7167C63.3822 40.4118 63.9626 40.1735 64.5686 40.0056C64.9709 39.8942 65.2938 39.5931 65.4347 39.1997L66.1561 37.169C66.4661 37.1523 66.7813 37.1523 67.0914 37.169L67.8127 39.1997C67.9524 39.5931 68.2753 39.8942 68.6776 40.0056C69.2862 40.1735 69.8666 40.4131 70.4034 40.7167C70.7673 40.923 71.2067 40.9384 71.5834 40.759L73.522 39.8391C73.7552 40.0518 73.9781 40.2747 74.1895 40.5066L73.2696 42.4451C73.0902 42.8218 73.1068 43.2626 73.3118 43.6252C73.6168 44.1633 73.8551 44.7437 74.0229 45.3497C74.1344 45.752 74.4355 46.0749 74.8288 46.2159L76.8596 46.9372C76.8699 47.0935 76.875 47.2485 76.875 47.4061C76.875 47.5637 76.8699 47.7188 76.8622 47.8738Z" fill="white"/>
<path d="M28.1875 67.9062C35.9583 67.9062 42.2812 61.5833 42.2812 53.8125C42.2812 46.0417 35.9583 39.7188 28.1875 39.7188C20.4167 39.7188 14.0938 46.0417 14.0938 53.8125C14.0938 61.5833 20.4167 67.9062 28.1875 67.9062ZM28.1875 42.2812C34.5451 42.2812 39.7188 47.4549 39.7188 53.8125C39.7188 60.1701 34.5451 65.3438 28.1875 65.3438C21.8299 65.3438 16.6562 60.1701 16.6562 53.8125C16.6562 47.4549 21.8299 42.2812 28.1875 42.2812Z" fill="white"/>
<path d="M2.59082 32.4912L4.55882 34.1325C10.4257 27.0971 19.0369 23.0625 28.1876 23.0625C28.8398 23.0625 29.4907 23.0996 30.1415 23.1406L28.563 24.7191L30.3747 26.5308L34.2185 22.6871C34.7194 22.1861 34.7194 21.3763 34.2185 20.8754L30.3747 17.0316L28.563 18.8433L30.3043 20.5845C29.5996 20.5397 28.8936 20.5 28.1876 20.5C18.2759 20.5 8.94582 24.8703 2.59082 32.4912Z" fill="white"/>
<path d="M55.0938 11.5312C51.5613 11.5312 48.6875 14.4051 48.6875 17.9375C48.6875 21.4699 51.5613 24.3438 55.0938 24.3438C58.6262 24.3438 61.5 21.4699 61.5 17.9375C61.5 14.4051 58.6262 11.5312 55.0938 11.5312ZM55.0938 21.7812C52.9746 21.7812 51.25 20.0567 51.25 17.9375C51.25 15.8183 52.9746 14.0938 55.0938 14.0938C57.2129 14.0938 58.9375 15.8183 58.9375 17.9375C58.9375 20.0567 57.2129 21.7812 55.0938 21.7812Z" fill="white"/>
<path d="M66.625 42.2812C63.7986 42.2812 61.5 44.5798 61.5 47.4062C61.5 50.2327 63.7986 52.5312 66.625 52.5312C69.4514 52.5312 71.75 50.2327 71.75 47.4062C71.75 44.5798 69.4514 42.2812 66.625 42.2812ZM66.625 49.9688C65.2118 49.9688 64.0625 48.8195 64.0625 47.4062C64.0625 45.993 65.2118 44.8438 66.625 44.8438C68.0382 44.8438 69.1875 45.993 69.1875 47.4062C69.1875 48.8195 68.0382 49.9688 66.625 49.9688Z" fill="white"/>
<path d="M78.4074 6.43187L72.0012 5.15062C71.3042 5.00968 70.6315 5.46196 70.4932 6.15512L69.2119 12.5614L71.7244 13.0649L72.415 9.61577C73.6566 12.1988 74.3126 15.0457 74.3126 17.9375C74.3126 22.3552 72.8545 26.5091 70.0973 29.9492L72.0973 31.5521C75.1787 27.707 76.8751 22.8729 76.8751 17.9375C76.8751 14.5819 76.0999 11.2737 74.6252 8.2884L77.9052 8.9444L78.4074 6.43187Z" fill="white"/>
</svg>
