<svg width="94" height="95" viewBox="0 0 94 95" fill="none" xmlns="http://www.w3.org/2000/svg">
<g clip-path="url(#clip0)">
<path d="M71.8239 69.0828C71.3871 68.9374 70.9399 68.7847 70.4943 68.6256V62.0983C71.6964 62.3375 72.4139 62.9129 72.4739 62.9623C73.0446 63.4497 73.9024 63.3865 74.3954 62.8189C74.891 62.2483 74.8302 61.384 74.2596 60.8886C74.1772 60.8171 72.778 59.6314 70.4945 59.3284V58.7888C70.4945 58.0331 69.8818 57.4205 69.1262 57.4205C68.3707 57.4205 67.7579 58.0332 67.7579 58.7888V59.4274C67.5268 59.4738 67.2914 59.5291 67.0509 59.5973C64.9473 60.1942 63.3954 61.9113 63.0013 64.0788C62.6534 65.9919 63.3159 67.8293 64.7303 68.8741C65.4945 69.4386 66.448 69.9557 67.7579 70.5031V78.7558C66.5438 78.6859 65.7394 78.4304 64.3899 77.5991C63.7463 77.2026 62.9035 77.4032 62.5072 78.0465C62.1109 78.6899 62.3111 79.5329 62.9546 79.9292C64.8261 81.0822 66.0964 81.4131 67.7581 81.4929V82.1974C67.7581 82.9531 68.3708 83.5657 69.1264 83.5657C69.882 83.5657 70.4947 82.9529 70.4947 82.1974V81.3885C73.7064 80.8024 75.7343 78.2576 76.1328 75.7493C76.612 72.7306 74.9209 70.1138 71.8239 69.0828ZM66.3559 66.6727C65.6766 66.1709 65.5684 65.2568 65.6936 64.5685C65.8532 63.6901 66.4802 62.6242 67.7576 62.2432V67.5005C67.2262 67.238 66.7476 66.9621 66.3559 66.6727ZM73.4294 75.32C73.2176 76.6536 72.2263 78.0733 70.4942 78.5824V71.5226C70.6467 71.5744 70.8001 71.6264 70.9594 71.6795C72.7724 72.2831 73.6958 73.6439 73.4294 75.32Z" fill="white"/>
<path d="M67.9107 10.9476C67.9107 9.5846 66.8018 8.47595 65.439 8.47595H10.916C9.55316 8.47595 8.44434 9.58478 8.44434 10.9476V14.6355C8.44434 15.3913 9.05705 16.0038 9.81263 16.0038C10.5682 16.0038 11.1809 15.3911 11.1809 14.6355V11.2125H65.1737V24.4502H11.1811V21.0332C11.1811 20.2775 10.5684 19.6649 9.81281 19.6649C9.05723 19.6649 8.44452 20.2777 8.44452 21.0332V24.7153C8.44452 26.0782 9.55335 27.187 10.9162 27.187H65.439C66.802 27.187 67.9107 26.0782 67.9107 24.7153V10.9476Z" fill="white"/>
<path d="M20.1931 35.9983C20.1931 34.757 19.1831 33.7473 17.942 33.7473H11.1783C9.937 33.7473 8.92725 34.7572 8.92725 35.9983V42.7618C8.92725 44.0031 9.93718 45.0131 11.1783 45.0131H17.942C19.1833 45.0131 20.1931 44.0031 20.1931 42.7618V35.9983ZM17.4563 42.2763H11.6638V36.4838H17.4563V42.2763Z" fill="white"/>
<path d="M35.9382 35.9983C35.9382 34.757 34.9282 33.7473 33.6869 33.7473H26.9234C25.6821 33.7473 24.6724 34.7572 24.6724 35.9983V42.7618C24.6724 44.0031 25.6823 45.0131 26.9234 45.0131H33.6869C34.9282 45.0131 35.9382 44.0031 35.9382 42.7618V35.9983ZM33.2014 42.2763H27.4089V36.4838H33.2014V42.2763Z" fill="white"/>
<path d="M42.6682 33.7473C41.4269 33.7473 40.417 34.7572 40.417 35.9983V42.7618C40.417 44.0031 41.4269 45.0131 42.6682 45.0131H49.4318C50.6731 45.0131 51.6828 44.0031 51.6828 42.7618V35.9983C51.6828 34.757 50.6729 33.7473 49.4318 33.7473H42.6682ZM48.9462 42.2763H43.1538V36.4838H48.9462V42.2763Z" fill="white"/>
<path d="M65.1769 33.7473H58.4132C57.1719 33.7473 56.1621 34.7572 56.1621 35.9983V42.7618C56.1621 44.0031 57.172 45.0131 58.4132 45.0131H65.1769C66.4182 45.0131 67.4279 44.0031 67.4279 42.7618V35.9983C67.4279 34.757 66.418 33.7473 65.1769 33.7473ZM64.6912 42.2763H58.8987V36.4838H64.6912V42.2763Z" fill="white"/>
<path d="M20.1931 52.655C20.1931 51.4137 19.1831 50.4039 17.942 50.4039H11.1783C9.937 50.4039 8.92725 51.4139 8.92725 52.655V59.4185C8.92725 60.6598 9.93718 61.6698 11.1783 61.6698H17.942C19.1833 61.6698 20.1931 60.6598 20.1931 59.4185V52.655ZM17.4563 58.933H11.6638V53.1405H17.4563V58.933Z" fill="white"/>
<path d="M35.9382 52.655C35.9382 51.4137 34.9282 50.4039 33.6869 50.4039H26.9234C25.6821 50.4039 24.6724 51.4139 24.6724 52.655V59.4185C24.6724 60.6598 25.6823 61.6698 26.9234 61.6698H33.6869C34.9282 61.6698 35.9382 60.6598 35.9382 59.4185V52.655ZM33.2014 58.933H27.4089V53.1405H33.2014V58.933Z" fill="white"/>
<path d="M33.6869 67.0604H26.9234C25.6821 67.0604 24.6724 68.0704 24.6724 69.3115V76.075C24.6724 77.3163 25.6823 78.3262 26.9234 78.3262H33.6869C34.9282 78.3262 35.9382 77.3163 35.9382 76.075V69.3115C35.9382 68.0704 34.9282 67.0604 33.6869 67.0604ZM33.2014 75.5897H27.4089V69.7972H33.2014V75.5897Z" fill="white"/>
<path d="M69.2567 46.8417C62.2885 46.8417 56.015 49.8715 51.6828 54.6821V52.6549C51.6828 51.4137 50.6729 50.4037 49.4318 50.4037H42.6682C41.4269 50.4037 40.417 51.4137 40.417 52.6549V59.4185C40.417 60.6598 41.4269 61.6695 42.6682 61.6695H47.3139C46.6247 63.3774 46.1294 65.1834 45.8553 67.0602H42.6682C41.4269 67.0602 40.417 68.0701 40.417 69.3114V76.075C40.417 77.3163 41.4269 78.326 42.6682 78.326H46.9402C50.18 87.5295 58.9596 94.1447 69.2567 94.1447C82.2983 94.1447 92.9083 83.5346 92.9083 70.4931C92.9083 57.4515 82.2983 46.8417 69.2567 46.8417ZM43.1536 58.9329V53.1405H48.946V58.3872C48.8382 58.5675 48.7327 58.7496 48.6297 58.9329H43.1536ZM43.1536 75.5896V69.7972H45.6163C45.6095 70.0283 45.6053 70.2603 45.6053 70.4933C45.6053 72.2425 45.798 73.9477 46.16 75.5896H43.1536ZM69.2567 91.4079C57.7243 91.4079 48.3419 82.0255 48.3419 70.4931C48.3419 58.9607 57.7243 49.5783 69.2567 49.5783C80.7891 49.5783 90.1715 58.9607 90.1715 70.4931C90.1715 82.0255 80.7893 91.4079 69.2567 91.4079Z" fill="white"/>
<path d="M69.257 52.3362C59.2452 52.3362 51.1001 60.4813 51.1001 70.4931C51.1001 80.5048 59.2452 88.65 69.257 88.65C79.2687 88.65 87.4139 80.5048 87.4139 70.4931C87.4139 60.4813 79.2687 52.3362 69.257 52.3362ZM69.257 85.9134C60.7542 85.9134 53.8367 78.9958 53.8367 70.4931C53.8367 61.9903 60.7542 55.0728 69.257 55.0728C77.7598 55.0728 84.6773 61.9903 84.6773 70.4931C84.6773 78.9958 77.7598 85.9134 69.257 85.9134Z" fill="white"/>
<path d="M17.942 67.0604H11.1783C9.937 67.0604 8.92725 68.0704 8.92725 69.3115V76.075C8.92725 77.3163 9.93718 78.3262 11.1783 78.3262H17.942C19.1833 78.3262 20.1931 77.3163 20.1931 76.075V69.3115C20.1931 68.0704 19.1831 67.0604 17.942 67.0604ZM17.4563 75.5897H11.6638V69.7972H17.4563V75.5897Z" fill="white"/>
<path d="M49.4253 87.4696H9.02109C6.12887 87.4696 3.77582 85.1166 3.77582 82.2244V8.70548C3.77582 5.81326 6.12887 3.46021 9.02109 3.46021H67.3343C70.2265 3.46021 72.5795 5.81326 72.5795 8.70548V42.2883C72.5795 43.0441 73.1922 43.6566 73.9478 43.6566C74.7034 43.6566 75.3161 43.0439 75.3161 42.2883V8.70548C75.3161 4.30429 71.7354 0.723633 67.3343 0.723633H9.02109C4.61972 0.723633 1.03906 4.30429 1.03906 8.70548V82.2244C1.03906 86.6257 4.61972 90.2064 9.02091 90.2064H49.4253C50.1811 90.2064 50.7936 89.5937 50.7936 88.8381C50.7936 88.0825 50.1811 87.4696 49.4253 87.4696Z" fill="white"/>
</g>
<defs>
<clipPath id="clip0">
<rect width="93.4211" height="93.4211" fill="white" transform="translate(0.263184 0.723633)"/>
</clipPath>
</defs>
</svg>
