<svg width="98" height="98" viewBox="0 0 98 98" fill="none" xmlns="http://www.w3.org/2000/svg">
<g clip-path="url(#clip0)">
<path d="M86.8788 22.6223L79.5473 15.2913V4.35602C79.5473 1.95407 77.5933 0 75.1911 0H15.0028C12.6309 0 10.7012 1.92976 10.7012 4.30166V76.4678C10.7012 78.8397 12.6309 80.7694 15.0028 80.7694H17.436V83.1666C17.436 85.5385 19.3658 87.4683 21.7378 87.4683H31.0695C31.8623 87.4683 32.505 86.8257 32.505 86.0327C32.505 85.2397 31.8623 84.5972 31.0695 84.5972H21.7378C20.9489 84.5972 20.3071 83.9554 20.3071 83.1666V25.4492C20.3071 24.6562 19.6643 24.0136 18.8715 24.0136C18.0787 24.0136 17.436 24.6562 17.436 25.4492V77.8983H15.0028C14.214 77.8983 13.5723 77.2565 13.5723 76.4678V4.30166C13.5723 3.51288 14.214 2.87109 15.0028 2.87109H75.1913C76.0101 2.87109 76.6764 3.53719 76.6764 4.35602V12.4204L71.375 7.11936C71.1057 6.85024 70.7407 6.69903 70.36 6.69903H21.7378C19.3658 6.69903 17.436 8.62879 17.436 11.0007V18.7666C17.436 19.5596 18.0787 20.2022 18.8715 20.2022C19.6643 20.2022 20.3071 19.5596 20.3071 18.7666V11.0005C20.3071 10.2117 20.9489 9.56993 21.7378 9.56993H68.9243V23.6348C68.9243 24.4276 69.5668 25.0702 70.3596 25.0704L84.4282 25.0727V83.1664C84.4282 83.9552 83.7864 84.597 82.9976 84.597H73.7776C72.9848 84.597 72.342 85.2395 72.342 86.0325C72.342 86.8255 72.9848 87.4681 73.7776 87.4681H82.9976C85.3695 87.4681 87.2993 85.5383 87.2993 83.1664V23.6375C87.2993 23.2568 87.1481 22.8918 86.8788 22.6223ZM71.7954 22.1995V11.6L82.3974 22.2014L71.7954 22.1995Z" fill="white"/>
<path d="M69.5744 33.5834H35.2319C34.4391 33.5834 33.7964 34.2259 33.7964 35.0189C33.7964 35.8119 34.4391 36.4545 35.2319 36.4545H69.5744C70.3672 36.4545 71.01 35.8119 71.01 35.0189C71.01 34.2259 70.3672 33.5834 69.5744 33.5834Z" fill="white"/>
<path d="M69.5744 42.0497H35.2319C34.4391 42.0497 33.7964 42.6922 33.7964 43.4852C33.7964 44.2782 34.4391 44.9208 35.2319 44.9208H69.5744C70.3672 44.9208 71.01 44.2782 71.01 43.4852C71.01 42.6922 70.3672 42.0497 69.5744 42.0497Z" fill="white"/>
<path d="M69.5743 50.6848H62.7896C61.9967 50.6848 61.354 51.3274 61.354 52.1204C61.354 52.9134 61.9967 53.5559 62.7896 53.5559H69.5743C70.3671 53.5559 71.0099 52.9134 71.0099 52.1204C71.0099 51.3274 70.3671 50.6848 69.5743 50.6848Z" fill="white"/>
<path d="M56.0336 53.5559C56.8264 53.5559 57.4691 52.9134 57.4691 52.1204C57.4691 51.3274 56.8264 50.6848 56.0336 50.6848H35.2319C34.4391 50.6848 33.7964 51.3274 33.7964 52.1204C33.7964 52.9134 34.4391 53.5559 35.2319 53.5559H56.0336Z" fill="white"/>
<path d="M57.666 78.5912L53.839 74.7644V88.6425C53.839 89.4355 53.1963 90.0781 52.4035 90.0781C51.6107 90.0781 50.9679 89.4355 50.9679 88.6425V74.7644L47.141 78.5912C46.5803 79.1517 45.6713 79.1518 45.1109 78.591C44.5503 78.0304 44.5503 77.1214 45.1109 76.561L51.3885 70.2836C51.6687 70.0034 52.0362 69.8633 52.4035 69.8633C52.7708 69.8633 53.1383 70.0034 53.4185 70.2836L59.696 76.561C60.2567 77.1216 60.2567 78.0306 59.696 78.591C59.1356 79.1517 58.2266 79.1515 57.666 78.5912Z" fill="white"/>
<path d="M52.4033 61.941C42.4615 61.941 34.373 70.0291 34.373 79.9706C34.373 89.9118 42.4615 97.9999 52.4033 97.9999C62.3451 97.9999 70.4336 89.9118 70.4336 79.9706C70.4336 70.0291 62.3451 61.941 52.4033 61.941ZM52.4033 95.129C44.0446 95.129 37.2441 88.3291 37.2441 79.9707C37.2441 71.6124 44.0446 64.8123 52.4033 64.8123C60.762 64.8123 67.5625 71.6124 67.5625 79.9707C67.5625 88.3291 60.762 95.129 52.4033 95.129Z" fill="white"/>
</g>
<defs>
<clipPath id="clip0">
<rect width="98" height="98" fill="white"/>
</clipPath>
</defs>
</svg>
