<svg width="95" height="95" viewBox="0 0 95 95" fill="none" xmlns="http://www.w3.org/2000/svg">
<g clip-path="url(#clip0)">
<path d="M78.5335 82.3758H9.58789C6.31797 82.3758 3.65784 79.7157 3.65784 76.4458V28.9142H64.0531C64.809 28.9142 65.4216 28.3016 65.4216 27.5457C65.4216 26.7898 64.809 26.1772 64.0531 26.1772H3.65784V18.4225C3.65784 15.1526 6.31797 12.4925 9.58789 12.4925H15.6655C16.4215 12.4925 17.034 11.88 17.034 11.124C17.034 10.3681 16.4215 9.75555 15.6655 9.75555H9.58789C4.809 9.75555 0.920898 13.6437 0.920898 18.4225V76.4458C0.920898 81.2247 4.809 85.1128 9.58789 85.1128H78.5335C79.2895 85.1128 79.902 84.5002 79.902 83.7443C79.902 82.9883 79.2895 82.3758 78.5335 82.3758Z" fill="white"/>
<path d="M85.6748 9.75555H22.0516C21.2956 9.75555 20.6831 10.3681 20.6831 11.124C20.6831 11.88 21.2956 12.4925 22.0516 12.4925H85.6748C88.9447 12.4925 91.6048 15.1526 91.6048 18.4225V26.1772H70.4391C69.6832 26.1772 69.0706 26.7898 69.0706 27.5457C69.0706 28.3016 69.6832 28.9142 70.4391 28.9142H91.6048V76.4458C91.6048 79.7157 88.9447 82.3758 85.6748 82.3758H84.8188C84.0629 82.3758 83.4504 82.9883 83.4504 83.7443C83.4504 84.5002 84.0629 85.1128 84.8188 85.1128H85.6748C90.4537 85.1128 94.3418 81.2247 94.3418 76.4458V18.4225C94.3418 13.6437 90.4537 9.75555 85.6748 9.75555Z" fill="white"/>
<path d="M6.53174 19.2893C6.53174 21.5529 8.37352 23.3947 10.6372 23.3947C12.9008 23.3947 14.7426 21.5529 14.7426 19.2893C14.7426 17.0256 12.9008 15.1838 10.6372 15.1838C8.37352 15.1838 6.53174 17.0256 6.53174 19.2893ZM12.0056 19.2893C12.0056 20.0439 11.3918 20.6577 10.6372 20.6577C9.88249 20.6577 9.26868 20.0439 9.26868 19.2893C9.26868 18.5346 9.88249 17.9208 10.6372 17.9208C11.3918 17.9208 12.0056 18.5346 12.0056 19.2893Z" fill="white"/>
<path d="M22.3603 23.4403C24.6239 23.4403 26.4657 21.5985 26.4657 19.3348C26.4657 17.0712 24.6239 15.2294 22.3603 15.2294C20.0967 15.2294 18.2549 17.0712 18.2549 19.3348C18.2549 21.5985 20.0967 23.4403 22.3603 23.4403ZM22.3603 17.9664C23.115 17.9664 23.7288 18.5802 23.7288 19.3348C23.7288 20.0895 23.115 20.7033 22.3603 20.7033C21.6056 20.7033 20.9918 20.0895 20.9918 19.3348C20.9918 18.5802 21.6056 17.9664 22.3603 17.9664Z" fill="white"/>
<path d="M38.1435 19.3348C38.1435 17.0712 36.3017 15.2294 34.038 15.2294C31.7744 15.2294 29.9326 17.0712 29.9326 19.3348C29.9326 21.5985 31.7744 23.4403 34.038 23.4403C36.3017 23.4403 38.1435 21.5985 38.1435 19.3348ZM32.6696 19.3348C32.6696 18.5802 33.2834 17.9664 34.038 17.9664C34.7927 17.9664 35.4065 18.5802 35.4065 19.3348C35.4065 20.0895 34.7927 20.7033 34.038 20.7033C33.2834 20.7033 32.6696 20.0895 32.6696 19.3348Z" fill="white"/>
<path d="M84.7625 23.4403C87.0261 23.4403 88.8679 21.5985 88.8679 19.3348C88.8679 17.0712 87.0261 15.2294 84.7625 15.2294H45.8979C43.6343 15.2294 41.7925 17.0712 41.7925 19.3348C41.7925 21.5985 43.6343 23.4403 45.8979 23.4403H84.7625ZM44.5294 19.3348C44.5294 18.5802 45.1432 17.9664 45.8979 17.9664H84.7625C85.5172 17.9664 86.131 18.5802 86.131 19.3348C86.131 20.0895 85.5172 20.7033 84.7625 20.7033H45.8979C45.1432 20.7033 44.5294 20.0895 44.5294 19.3348Z" fill="white"/>
<path d="M83.9978 38.476H57.9056C57.1496 38.476 56.5371 39.0885 56.5371 39.8444C56.5371 40.6004 57.1496 41.2129 57.9056 41.2129H83.9978C84.7537 41.2129 85.3663 40.6004 85.3663 39.8444C85.3663 39.0885 84.7535 38.476 83.9978 38.476Z" fill="white"/>
<path d="M83.9978 45.7745H57.9056C57.1496 45.7745 56.5371 46.387 56.5371 47.1429C56.5371 47.8989 57.1496 48.5114 57.9056 48.5114H83.9978C84.7537 48.5114 85.3663 47.8989 85.3663 47.1429C85.3663 46.387 84.7535 45.7745 83.9978 45.7745Z" fill="white"/>
<path d="M85.3663 54.4415C85.3663 53.6855 84.7537 53.073 83.9978 53.073H57.9056C57.1496 53.073 56.5371 53.6855 56.5371 54.4415C56.5371 55.1974 57.1496 55.8099 57.9056 55.8099H83.9978C84.7535 55.8099 85.3663 55.1974 85.3663 54.4415Z" fill="white"/>
<path d="M33.3993 77.0669H61.8635C65.4352 77.0669 68.341 74.1611 68.341 70.5894C68.341 67.0177 65.4352 64.112 61.8635 64.112H33.3993C29.8276 64.112 26.9219 67.0177 26.9219 70.5894C26.9219 74.1611 29.8276 77.0669 33.3993 77.0669ZM33.3993 66.8489H61.8635C63.9261 66.8489 65.604 68.5269 65.604 70.5894C65.604 72.652 63.9261 74.3299 61.8635 74.3299H33.3993C31.3367 74.3299 29.6588 72.652 29.6588 70.5894C29.6588 68.5269 31.3367 66.8489 33.3993 66.8489Z" fill="white"/>
<path d="M36.74 35.4653H16.669C12.8961 35.4653 9.82666 38.5347 9.82666 42.3077V51.9782C9.82666 55.7512 12.8961 58.8206 16.669 58.8206H36.74C40.5129 58.8206 43.5823 55.7512 43.5823 51.9782V51.6034C43.5823 51.6033 43.5823 51.6029 43.5823 51.6025V42.3079C43.5823 38.5349 40.5127 35.4653 36.74 35.4653ZM16.6466 56.0831L19.0607 52.3723C19.4729 51.7388 19.2934 50.8913 18.6599 50.4789C18.0264 50.0669 17.1786 50.2463 16.7665 50.8798L14.016 55.1075C13.1283 54.3539 12.5636 53.2308 12.5636 51.978V42.3075C12.5636 40.0439 14.4054 38.2021 16.669 38.2021H36.74C39.0036 38.2021 40.8454 40.0439 40.8454 42.3075V47.8467L36.6945 42.889C36.4391 42.5838 36.0634 42.4051 35.6654 42.3991C35.2711 42.3858 34.8865 42.5609 34.6223 42.8584L29.9735 48.0881L25.4873 41.0266C25.2377 40.6336 24.8054 40.3944 24.3398 40.3918C24.3372 40.3918 24.3348 40.3918 24.3323 40.3918C23.8696 40.3918 23.4379 40.6257 23.1853 41.014L20.255 45.5183C19.8426 46.1518 20.0221 46.9994 20.6557 47.4115C21.289 47.8239 22.1369 47.6442 22.5489 47.0109L24.3186 44.2909L31.8107 56.0838H16.669C16.6615 56.0836 16.6541 56.0831 16.6466 56.0831ZM36.74 56.0836H35.0531L31.4998 50.4906L35.614 45.8622L40.8419 52.1069C40.7738 54.311 38.9605 56.0836 36.74 56.0836Z" fill="white"/>
</g>
<defs>
<clipPath id="clip0">
<rect width="93.4211" height="93.4211" fill="white" transform="translate(0.920898 0.723633)"/>
</clipPath>
</defs>
</svg>
