<svg width="96" height="96" viewBox="0 0 96 96" fill="none" xmlns="http://www.w3.org/2000/svg">
<path d="M94.5 49.5C94.5 39.4665 87.423 31.065 78 28.998V9C78 4.8645 74.6355 1.5 70.5 1.5H31.5C27.3645 1.5 24 4.8645 24 9V25.5H15.3285L14.424 29.124L11.223 27.2025L3.201 35.22L5.1225 38.424L1.5 39.3285V50.6715L5.124 51.576L3.201 54.78L11.2215 62.799L14.4225 60.8775L15.3285 64.5H24V87C24 91.1355 27.3645 94.5 31.5 94.5H70.5C74.6355 94.5 78 91.1355 78 87V70.002C87.423 67.935 94.5 59.5335 94.5 49.5ZM91.5 49.5C91.5 52.4235 90.7845 55.1775 89.5425 57.621C88.71 55.3305 86.7945 53.529 84.3195 52.9095L78 51.3285V50.97C79.869 49.5615 81 47.346 81 45.0015V42.0015C81 39.906 80.1135 37.89 78.567 36.471C77.022 35.0565 74.928 34.3455 72.834 34.53C69.0015 34.8615 66 38.2815 66 42.3105V45C66 47.3445 67.131 49.56 69 50.9685V51.327L62.6805 52.908C60.2055 53.5275 58.29 55.329 57.4575 57.6195C56.2155 55.1775 55.5 52.4235 55.5 49.5C55.5 39.5745 63.5745 31.5 73.5 31.5C83.4255 31.5 91.5 39.5745 91.5 49.5ZM69 28.998C67.968 29.2245 66.969 29.5365 66 29.9085V25.5H36V46.5H52.74C52.5975 47.4825 52.5 48.4785 52.5 49.5C52.5 59.5335 59.577 67.935 69 70.002V73.5H33V22.5H69V28.998ZM53.385 43.5H39V28.5H63V31.341C58.419 34.0005 54.93 38.3295 53.385 43.5ZM31.5 4.5H70.5C72.981 4.5 75 6.519 75 9V13.5H27V9C27 6.519 29.019 4.5 31.5 4.5ZM24 51.858C23.0535 52.275 22.032 52.5 21 52.5C16.8645 52.5 13.5 49.1355 13.5 45C13.5 40.8645 16.8645 37.5 21 37.5C22.032 37.5 23.0535 37.725 24 38.142V51.858ZM17.6715 61.5L16.941 58.5765L16.6365 57.774L14.9235 57.078L11.6865 59.022L6.9795 54.3135L8.9235 51.075L8.1735 49.245L4.5 48.3285V41.6715L8.169 40.755L8.9235 38.925L6.9795 35.6865L11.6865 30.978L14.9235 32.922L16.7535 32.178L17.6715 28.5H24V34.9575C23.0265 34.665 22.0185 34.5 21 34.5C15.21 34.5 10.5 39.2115 10.5 45C10.5 50.7885 15.21 55.5 21 55.5C22.0185 55.5 23.0265 55.335 24 55.0425V61.5H17.6715ZM70.5 91.5H31.5C29.019 91.5 27 89.481 27 87V82.5H75V87C75 89.481 72.981 91.5 70.5 91.5ZM75 79.5H27V16.5H75V28.5765C74.502 28.5405 74.007 28.5 73.5 28.5C72.993 28.5 72.498 28.5405 72 28.5765V19.5H30V76.5H72V70.4235C72.498 70.4595 72.993 70.5 73.5 70.5C74.007 70.5 74.502 70.4595 75 70.4235V79.5ZM73.5 67.5C68.1225 67.5 63.3015 65.1165 60 61.3665V60.1845C60 58.116 61.4025 56.3205 63.408 55.818L72 53.6715V49.305L71.2545 48.8715C69.843 48.0495 69 46.602 69 45V42.3105C69 39.822 70.7985 37.7175 73.0935 37.518C74.3805 37.4145 75.6 37.8195 76.5405 38.682C77.4675 39.5325 78 40.7415 78 42V45C78 46.602 77.157 48.0495 75.7455 48.8715L75 49.305V53.6715L83.592 55.818C85.5975 56.3205 87 58.116 87 60.1845V61.3665C83.6985 65.1165 78.8775 67.5 73.5 67.5Z" fill="white"/>
<path d="M57 7.5H60V10.5H57V7.5Z" fill="white"/>
<path d="M42 7.5H54V10.5H42V7.5Z" fill="white"/>
<path d="M45 85.5H57V88.5H45V85.5Z" fill="white"/>
<path d="M66 85.5H69V88.5H66V85.5Z" fill="white"/>
<path d="M33 85.5H36V88.5H33V85.5Z" fill="white"/>
<path d="M36 49.5H49.5V52.5H36V49.5Z" fill="white"/>
<path d="M36 55.5H49.5V58.5H36V55.5Z" fill="white"/>
<path d="M36 61.5H49.5V64.5H36V61.5Z" fill="white"/>
<path d="M36 67.5H49.5V70.5H36V67.5Z" fill="white"/>
<path d="M85.5 28.5C87.981 28.5 90 26.481 90 24C90 22.047 88.7415 20.397 87 19.776V7.5H84V19.776C82.2585 20.397 81 22.047 81 24C81 26.481 83.019 28.5 85.5 28.5ZM85.5 22.5C86.3265 22.5 87 23.172 87 24C87 24.828 86.3265 25.5 85.5 25.5C84.6735 25.5 84 24.828 84 24C84 23.172 84.6735 22.5 85.5 22.5Z" fill="white"/>
<path d="M84 1.5H87V4.5H84V1.5Z" fill="white"/>
<path d="M16.5 67.5C14.019 67.5 12 69.519 12 72C12 73.953 13.2585 75.603 15 76.224V88.5H18V76.224C19.7415 75.603 21 73.953 21 72C21 69.519 18.981 67.5 16.5 67.5ZM16.5 73.5C15.6735 73.5 15 72.828 15 72C15 71.172 15.6735 70.5 16.5 70.5C17.3265 70.5 18 71.172 18 72C18 72.828 17.3265 73.5 16.5 73.5Z" fill="white"/>
<path d="M15 91.5H18V94.5H15V91.5Z" fill="white"/>
</svg>
