<svg width="99" height="99" viewBox="0 0 99 99" fill="none" xmlns="http://www.w3.org/2000/svg">
<g clip-path="url(#clip0)">
<path d="M88.2618 49.3937L85.6698 39.7521L88.2452 30.1068C88.3764 29.6155 88.2356 29.0916 87.8758 28.7323L80.8095 21.6789L78.2177 12.0373C78.0856 11.5462 77.7015 11.1629 77.2103 11.0318L67.5651 8.45635L60.4986 1.40274C60.1386 1.04353 59.6145 0.903292 59.1237 1.03575L49.482 3.6275L39.8368 1.05225C39.3459 0.921319 38.8218 1.06174 38.4624 1.42191L31.4091 8.48804L21.7674 11.08C21.2763 11.2119 20.8931 11.596 20.7618 12.0872L18.1864 21.7326L11.133 28.7989C10.7735 29.1587 10.6337 29.6828 10.7656 30.1739L13.3575 39.8138L11.7613 45.7928C11.5586 46.5522 12.0098 47.3321 12.7693 47.535C13.5287 47.7382 14.3086 47.2864 14.5115 46.527L16.2062 40.1795C16.2707 39.9381 16.2705 39.684 16.2056 39.4428L13.7279 30.2282L20.4702 23.4737C20.6468 23.2968 20.7736 23.0767 20.8379 22.8355L23.3001 13.6154L32.5164 11.1379C32.7576 11.073 32.9777 10.9458 33.1542 10.769L39.8964 4.01443L49.1161 6.4762C49.3573 6.54072 49.6114 6.54034 49.8528 6.47563L59.0693 3.99811L65.8238 10.7405C66.0007 10.917 66.2208 11.0437 66.462 11.1083L75.6819 13.57L78.1594 22.7864C78.2243 23.0275 78.3517 23.2477 78.5283 23.4241L85.2831 30.1665L82.8211 39.3863C82.7566 39.6277 82.7568 39.8817 82.8217 40.1229L85.2994 49.3394L78.557 56.0942C78.3805 56.271 78.2538 56.4912 78.1892 56.7323L75.7273 65.9521L66.5113 68.4294C66.27 68.4943 66.0496 68.6216 65.8732 68.7985L59.131 75.553L49.912 73.0898C49.67 73.0251 49.4157 73.0252 49.174 73.0903L39.9581 75.5696L33.2035 68.8272C33.0265 68.6507 32.8063 68.5237 32.5651 68.4594L30.6364 67.944C30.6351 67.9436 30.634 67.9431 30.6326 67.9429C30.6313 67.9425 30.63 67.9423 30.6286 67.9419L23.3456 65.9959L20.8679 56.7813C20.8028 56.5399 20.6757 56.32 20.4988 56.1435L15.6997 51.354C15.1432 50.7987 14.242 50.7997 13.6871 51.356C13.1319 51.9124 13.1328 52.8134 13.6892 53.3686L18.2183 57.8888L20.81 67.5282C20.9421 68.0191 21.326 68.4025 21.8171 68.5336L28.521 70.3249L22.7756 91.7626C22.6408 92.2649 22.7911 92.801 23.1672 93.1602C23.5433 93.5194 24.0855 93.6453 24.5813 93.4874L33.7472 90.5738L40.2277 97.6803C40.5008 97.9798 40.8843 98.1445 41.2794 98.1445C41.3913 98.1445 41.5044 98.1312 41.6158 98.1041C42.1213 97.9811 42.5194 97.5921 42.654 97.0896L48.2267 76.2924L49.5454 75.9377L50.794 76.2713L56.3728 97.0896C56.5073 97.5919 56.9054 97.9809 57.411 98.1041C57.5225 98.1312 57.6354 98.1445 57.7474 98.1445C58.1425 98.1445 58.526 97.9798 58.7991 97.6803L65.28 90.5736L74.446 93.4874C74.9418 93.6453 75.4842 93.5194 75.8601 93.1602C76.2362 92.801 76.3865 92.2651 76.2518 91.7626L73.9443 83.1513C73.741 82.3922 72.9604 81.9417 72.2011 82.145C71.4419 82.3484 70.9914 83.1289 71.1948 83.8881L72.8289 89.9867L65.2737 87.5849C64.7445 87.4165 64.1653 87.5716 63.7909 87.9822L58.4488 93.8403L53.9679 77.1197L59.1903 78.515C59.6811 78.6462 60.2056 78.5055 60.565 78.1454L67.6182 71.0792L67.7531 71.043L69.5327 77.6865C69.7029 78.3226 70.2781 78.742 70.9064 78.742C71.0284 78.742 71.1523 78.7262 71.2755 78.6932C72.0347 78.4898 72.4854 77.7095 72.282 76.9503L70.5016 70.3043L77.2598 68.4875C77.7509 68.3554 78.134 67.9715 78.2653 67.4802L80.8408 57.8349L87.8944 50.7685C88.2538 50.4087 88.3936 49.8846 88.2618 49.3937ZM40.578 93.8401L35.2364 87.9824C34.8618 87.572 34.2831 87.4169 33.7536 87.585L26.1985 89.9865L31.271 71.0595L31.4628 71.1107L38.529 78.1642C38.7994 78.434 39.1624 78.5801 39.5345 78.5801C39.6577 78.5801 39.782 78.5642 39.904 78.5313L45.0512 77.1469L40.578 93.8401Z" fill="white"/>
<path d="M49.5138 12.8129C53.4705 12.8129 57.2811 13.6496 60.8397 15.2996C61.5534 15.6305 62.399 15.32 62.7296 14.6071C63.0603 13.894 62.7503 13.0478 62.0373 12.7173C58.1005 10.892 53.8872 9.96649 49.514 9.96649C36.0478 9.96649 24.2169 19.0287 20.7211 32.0113C20.7198 32.0156 20.7186 32.0202 20.7173 32.0248C20.7133 32.0396 20.709 32.0542 20.705 32.0688C20.0361 34.5729 19.6968 37.1686 19.6968 39.7837C19.6968 46.6026 21.9365 53.019 26.1735 58.3384C26.1764 58.342 26.1794 58.3454 26.1821 58.3489C26.1862 58.354 26.1904 58.3593 26.1948 58.3644C31.8888 65.5057 40.3861 69.6009 49.5138 69.6009C65.9551 69.6009 79.331 56.225 79.331 39.7837C79.331 30.8888 75.4018 22.524 68.5511 16.834C67.9465 16.3319 67.0491 16.4148 66.5468 17.0195C66.0445 17.6243 66.1276 18.5215 66.7324 19.0238C72.93 24.1713 76.4846 31.738 76.4846 39.7839C76.4846 54.6557 64.3856 66.7547 49.5138 66.7547C42.2869 66.7547 35.4967 63.9165 30.4608 58.8758H39.0988C39.8849 58.8758 40.522 58.2386 40.522 57.4526V55.8394C41.8019 56.0119 42.7919 56.3408 43.7388 57.0666C44.6125 57.7365 45.6914 58.1054 46.7767 58.1054H62.3963C64.787 58.1054 66.7318 56.1605 66.7318 53.7699C66.7318 52.9317 66.4927 52.1482 66.0792 51.4842C67.1878 50.698 67.9125 49.4048 67.9125 47.9456C67.9125 47.062 67.6469 46.2394 67.1912 45.5532C68.218 44.7596 68.8805 43.5163 68.8805 42.1212C68.8805 41.2417 68.6171 40.4223 68.1651 39.7382C69.1987 38.9452 69.8665 37.6975 69.8665 36.2969C69.8665 33.9062 67.9216 31.9614 65.531 31.9614H56.8525C57.8897 28.1889 57.7163 24.2468 56.3361 19.7233C55.8221 18.0382 54.2875 16.9061 52.5172 16.9061C51.4266 16.9061 50.3704 17.3598 49.6193 18.1507C48.8682 18.9418 48.4697 20.0204 48.5263 21.1099C48.7868 26.1237 46.559 27.7864 43.1866 30.303C42.3395 30.9351 41.4334 31.6122 40.5195 32.3902C40.4944 31.6263 39.8688 31.0141 39.0986 31.0141H24.0011C27.7079 20.2087 37.9431 12.8129 49.5138 12.8129ZM44.8889 32.584C48.3957 29.9668 51.7084 27.495 51.3689 20.962C51.3524 20.644 51.464 20.3415 51.6834 20.1104C51.9025 19.8794 52.1986 19.7523 52.517 19.7523C53.0187 19.7523 53.4696 20.0817 53.6132 20.5537C55.0349 25.2133 55.0165 29.1258 53.5552 32.8667C53.3842 33.3047 53.4405 33.7988 53.7056 34.1871C53.9707 34.5753 54.4108 34.8076 54.8808 34.8076H65.5306C66.3517 34.8076 67.0197 35.4756 67.0197 36.2967C67.0197 37.1178 66.3517 37.7857 65.5306 37.7857H61.9079C61.1217 37.7857 60.4847 38.4229 60.4847 39.2089C60.4847 39.9949 61.1217 40.6321 61.9079 40.6321H64.5446C65.3655 40.6321 66.0337 41.3001 66.0337 42.121C66.0337 42.9421 65.3655 43.6101 64.5446 43.6101H61.9079C61.1217 43.6101 60.4847 44.2473 60.4847 45.0333C60.4847 45.8193 61.1217 46.4565 61.9079 46.4565H63.5765C64.3976 46.4565 65.0655 47.1245 65.0655 47.9456C65.0655 48.7667 64.3976 49.4346 63.5765 49.4346H60.9395C60.1534 49.4346 59.5163 50.0718 59.5163 50.8578C59.5163 51.6438 60.1534 52.281 60.9395 52.281H62.3958C63.2169 52.281 63.8848 52.949 63.8848 53.7701C63.8848 54.5912 63.2169 55.2591 62.3958 55.2591H46.7761C46.3135 55.2591 45.8495 55.0988 45.47 54.8079C43.8582 53.5718 42.1685 53.153 40.5214 52.9704V36.3105C41.9234 34.7985 43.4289 33.6738 44.8889 32.584ZM37.6755 36.0896C37.6755 36.091 37.6754 36.0921 37.6754 36.0932V54.6117C37.6754 54.613 37.6755 54.6141 37.6755 54.6153V56.029H27.9846C24.4226 51.3258 22.543 45.724 22.543 39.7835C22.543 37.7825 22.7648 35.7951 23.1983 33.8601H37.6755V36.0896Z" fill="white"/>
</g>
<defs>
<clipPath id="clip0">
<rect width="97.1579" height="97.1579" fill="white" transform="translate(0.93457 0.986816)"/>
</clipPath>
</defs>
</svg>
