<svg width="79" height="15" viewBox="0 0 79 15" fill="none" xmlns="http://www.w3.org/2000/svg">
<rect x="0.998535" y="6.99524" width="76" height="2" fill="white"/>
<path fill-rule="evenodd" clip-rule="evenodd" d="M71.2922 14.7015C71.1991 14.6086 71.1253 14.4983 71.0749 14.3769C71.0245 14.2554 70.9985 14.1252 70.9985 13.9937C70.9985 13.8622 71.0245 13.732 71.0749 13.6105C71.1253 13.489 71.1991 13.3787 71.2922 13.2858L76.5838 7.99498L71.2922 2.70413C71.1045 2.5164 70.9991 2.26178 70.9991 1.99628C70.9991 1.73079 71.1045 1.47617 71.2922 1.28844C71.4799 1.10071 71.7344 0.995239 71.9999 0.995239C72.2653 0.995239 72.5199 1.10071 72.7076 1.28844L78.7049 7.28713C78.798 7.38 78.8718 7.49033 78.9222 7.61179C78.9726 7.73326 78.9985 7.86347 78.9985 7.99498C78.9985 8.12648 78.9726 8.2567 78.9222 8.37816C78.8718 8.49962 78.798 8.60995 78.7049 8.70282L72.7076 14.7015C72.6147 14.7946 72.5044 14.8685 72.383 14.9189C72.2615 14.9693 72.1314 14.9952 71.9999 14.9952C71.8684 14.9952 71.7382 14.9693 71.6168 14.9189C71.4953 14.8685 71.385 14.7946 71.2922 14.7015Z" fill="white"/>
<path fill-rule="evenodd" clip-rule="evenodd" d="M48.9985 7.99524C48.9985 7.73002 49.1513 7.47567 49.4232 7.28813C49.6952 7.1006 50.064 6.99524 50.4485 6.99524L76.5485 6.99524C76.9331 6.99524 77.3019 7.1006 77.5738 7.28813C77.8458 7.47567 77.9985 7.73002 77.9985 7.99524C77.9985 8.26045 77.8458 8.51481 77.5738 8.70234C77.3019 8.88988 76.9331 8.99524 76.5485 8.99524L50.4485 8.99524C50.064 8.99524 49.6952 8.88988 49.4232 8.70235C49.1513 8.51481 48.9985 8.26046 48.9985 7.99524Z" fill="white"/>
</svg>
