<svg width="94" height="95" viewBox="0 0 94 95" fill="none" xmlns="http://www.w3.org/2000/svg">
<g clip-path="url(#clip0)">
<path d="M89.0585 47.7494L86.8739 46.6784C86.8897 45.1351 86.8658 43.7332 86.8739 42.4135C86.8739 35.6233 85.1319 28.9534 81.8297 23.0553C82.6015 21.9422 82.6398 20.4572 81.8569 19.2858C78.9548 14.9428 75.3136 11.22 71.0344 8.22066C68.2318 6.25626 65.1967 4.64256 62.0137 3.42407C61.3077 3.15384 60.5166 3.50709 60.2463 4.21286C59.9761 4.91881 60.3293 5.70996 61.0351 5.98019C64.0087 7.1184 66.8446 8.62627 69.4634 10.462C73.4639 13.2661 76.8682 16.7466 79.5812 20.8066C79.7523 21.0626 79.7122 21.3998 79.4861 21.6083C79.2787 21.7725 74.7085 26.0719 74.4321 26.2392C74.2931 26.3088 74.1589 26.3071 74.0799 26.2965C73.9685 26.2814 73.7603 26.2221 73.6189 25.9947C71.8221 23.1069 69.5789 20.5429 66.9515 18.3736C61.3856 13.7785 54.3488 11.2477 47.1371 11.2477C39.5537 11.2477 32.2406 14.0142 26.5445 19.0378C24.3024 21.015 22.3581 23.2968 20.7652 25.8196C20.6336 26.0278 20.4344 26.079 20.3271 26.0909C20.2149 26.1037 19.9992 26.0969 19.8138 25.9114L15.0623 21.1597C14.8506 20.9478 14.8209 20.6141 14.9917 20.3658C17.0062 17.4381 19.4109 14.7953 22.1389 12.5107C29.1389 6.64928 38.0169 3.42115 47.1373 3.42115C49.6458 3.42115 52.1559 3.662 54.5982 4.13713C55.3399 4.28146 56.0584 3.79702 56.2028 3.05513C56.3471 2.31323 55.8627 1.59488 55.1208 1.45055C52.5068 0.942024 49.8208 0.684204 47.1373 0.684204C37.3755 0.684204 27.8736 4.13932 20.3818 10.4128C17.464 12.8563 14.8919 15.6832 12.737 18.8146C11.9117 20.0142 11.9628 21.5872 12.8107 22.7248C11.4517 25.056 10.3292 27.513 9.47053 30.044C9.22767 30.7596 9.61121 31.5367 10.3268 31.7795C10.4726 31.829 10.6208 31.8524 10.7666 31.8524C11.3368 31.8524 11.869 31.4931 12.0624 30.9232C12.7813 28.8043 13.7013 26.7414 14.7994 24.7675L17.7217 27.69C15.4008 32.3346 14.1773 37.5056 14.1773 42.7211V71.2116L6.62027 67.5065C5.73004 67.0701 5.15473 66.1475 5.15473 65.156V52.5573C5.15473 51.5658 5.73004 50.6433 6.62027 50.2068C7.08227 49.9598 8.01447 49.5533 8.78593 49.1446C9.61978 48.6973 10.1378 47.8314 10.1378 46.8846V42.7375C10.1279 40.9766 10.2495 39.1992 10.4989 37.4551C10.606 36.7068 10.0862 36.0136 9.33806 35.9067C8.59087 35.7994 7.89678 36.3194 7.78968 37.0675C7.52109 38.9447 7.39045 40.8574 7.40085 42.7452V46.7811C7.05855 46.9701 5.92144 47.484 5.36566 47.7741C3.57314 48.6767 2.41797 50.5479 2.41797 52.5573V65.156C2.41797 67.1839 3.59467 69.0713 5.41547 69.9641L14.5437 74.4394C15.5031 77.3508 18.247 79.459 21.4757 79.459C25.4999 79.459 28.7738 76.1852 28.7738 72.161V47.5458C28.7738 43.5216 25.4999 40.2477 21.4757 40.2477C19.7572 40.2477 18.1767 40.8461 16.9283 41.8437C17.0575 37.32 18.1826 32.8577 20.2099 28.8309C20.3495 28.8326 20.4898 28.8267 20.6309 28.8109C21.6445 28.6977 22.5371 28.1401 23.0797 27.2806C24.5334 24.9781 26.3084 22.8952 28.3551 21.0903C33.5509 16.5081 40.2212 13.9845 47.1373 13.9845C53.7145 13.9845 60.1325 16.2926 65.2091 20.484C67.6076 22.4643 69.6552 24.8045 71.295 27.4402C71.8309 28.3014 72.7122 28.8731 73.713 29.0085C73.8641 29.0289 74.015 29.039 74.1651 29.039C74.2312 29.039 74.2967 29.0337 74.3622 29.0298C76.3268 33.0033 77.4186 37.3958 77.5458 41.8437C76.2974 40.846 74.7169 40.2475 72.9983 40.2475C68.9741 40.2475 65.7001 43.5214 65.7001 47.5456V51.6498C65.7001 52.4055 66.3129 53.0182 67.0686 53.0182C67.8244 53.0182 68.4371 52.4055 68.4371 51.6498V47.5456C68.4371 45.0306 70.4832 42.9844 72.9983 42.9844C75.5134 42.9844 77.5595 45.0306 77.5595 47.5456V72.1608C77.5595 74.6757 75.5134 76.7218 72.9983 76.7218C70.4832 76.7218 68.4371 74.6757 68.4371 72.1608V58.5498C68.4371 57.794 67.8244 57.1813 67.0686 57.1813C66.3129 57.1813 65.7001 57.794 65.7001 58.5498V72.1608C65.7001 76.185 68.9741 79.4588 72.9983 79.4588C74.7231 79.4588 76.3089 78.8561 77.5595 77.8518V81.1117C77.5595 82.0963 76.7583 82.8975 75.7737 82.8975H59.3774C58.951 81.635 57.7581 80.7225 56.3537 80.7225H46.006C44.2454 80.7225 42.8129 82.155 42.8129 83.9156V90.9122C42.8129 92.6727 44.2454 94.1053 46.006 94.1053H56.3537C57.7531 94.1053 58.9426 93.1988 59.3727 91.9431H68.2574C69.0131 91.9431 69.6258 91.3304 69.6258 90.5746C69.6258 89.8188 69.0131 89.2061 68.2574 89.2061H59.5468V85.6346H75.7737C78.2675 85.6346 80.2964 83.6056 80.2964 81.1119V74.2597L83.868 72.5088V84.6604C83.868 87.1669 81.8288 89.2061 79.3223 89.2061H75.084C74.3283 89.2061 73.7156 89.8188 73.7156 90.5746C73.7156 91.3304 74.3283 91.9431 75.084 91.9431H79.3223C83.3379 91.9431 86.6049 88.6761 86.6049 84.6604V71.1669L89.0585 69.9641C90.8793 69.0713 92.056 67.1841 92.056 65.156V52.5573C92.056 50.5294 90.8793 48.6422 89.0585 47.7494ZM21.4755 42.9848C23.9906 42.9848 26.0367 45.0309 26.0367 47.546V72.1612C26.0367 74.676 23.9906 76.7222 21.4755 76.7222C18.9604 76.7222 16.9143 74.676 16.9143 72.1612V47.5458C16.9143 45.0307 18.9604 42.9848 21.4755 42.9848ZM45.5497 90.9122V83.916C45.5497 83.6645 45.7544 83.4598 46.0058 83.4598H49.8111V91.3683H46.0058C45.7544 91.3683 45.5497 91.1636 45.5497 90.9122ZM56.8096 90.9122C56.8096 91.1636 56.6049 91.3683 56.3535 91.3683H52.5482V83.4598H56.3535C56.6049 83.4598 56.8096 83.6645 56.8096 83.916V90.9122ZM89.3191 65.1562C89.3191 66.1477 88.7438 67.0703 87.8535 67.5067L80.2964 71.2118C80.2964 67.7217 80.2964 45.5635 80.2964 42.7213C80.2964 37.5501 79.0927 32.4174 76.8089 27.8031L79.7985 25.0443C82.6369 30.3642 84.1326 36.324 84.1369 42.3879C84.1271 43.5243 84.1544 45.0484 84.1351 46.8853C84.1265 47.7912 84.646 48.6342 85.4589 49.0329L87.8537 50.207C88.7439 50.6435 89.3192 51.566 89.3192 52.5575V65.1562H89.3191Z" fill="white"/>
<path d="M59.5441 42.9364C59.4454 41.7521 58.755 40.7927 57.785 40.4922C57.3279 40.3506 56.1441 40.1697 55.0223 41.5464C53.9792 42.8264 48.7374 52.2966 47.6972 54.182C47.4633 54.6059 47.4707 55.1219 47.7169 55.5388C47.963 55.9557 48.4111 56.2115 48.8952 56.2115H56.7971C56.7869 57.6636 56.7758 59.0645 56.7652 60.3078C56.7586 61.0636 57.3661 61.6814 58.1218 61.688H58.1339C58.884 61.688 59.4956 61.0831 59.502 60.3312C59.5062 59.8453 59.5197 58.2518 59.5343 56.2113H60.5477C61.3034 56.2113 61.9161 55.5986 61.9161 54.8429C61.9161 54.0871 61.3034 53.4744 60.5477 53.4744H59.5525C59.581 48.8811 59.5998 43.6059 59.5441 42.9364ZM56.8156 53.4746H51.2191C53.274 49.7843 55.8456 45.2502 56.8331 43.7236C56.8546 45.2254 56.8408 49.2891 56.8156 53.4746Z" fill="white"/>
<path d="M45.4874 60.4412C45.4779 59.6854 44.8648 59.0855 44.1018 59.09C41.609 59.1214 38.9374 59.1387 37.1083 59.1309C38.1356 57.7799 39.8159 55.538 42.389 51.8614C43.631 50.0178 44.5777 48.2753 44.7008 46.3304C44.7008 42.9577 41.9569 40.2139 38.5843 40.2139C35.668 40.2139 33.144 42.2883 32.5825 45.1464C32.4369 45.8879 32.9201 46.6072 33.6616 46.753C34.4033 46.8982 35.1226 46.4154 35.2682 45.6739C35.578 44.0961 36.9728 42.9508 38.5843 42.9508C40.421 42.9508 41.9203 44.4238 41.963 46.2505C41.8586 47.4837 41.1831 48.7407 40.1465 50.2918C37.1988 54.5035 35.439 56.808 34.4935 58.046C33.3691 59.5181 33.0299 59.9624 33.2774 60.767C33.4173 61.2223 33.7647 61.5724 34.2304 61.7275C35.1825 61.983 41.0528 61.8407 44.1359 61.8266C44.8918 61.8171 45.4969 61.1969 45.4874 60.4412Z" fill="white"/>
</g>
<defs>
<clipPath id="clip0">
<rect width="93.4211" height="93.4211" fill="white" transform="translate(0.526367 0.684204)"/>
</clipPath>
</defs>
</svg>
