<svg width="95" height="95" viewBox="0 0 95 95" fill="none" xmlns="http://www.w3.org/2000/svg">
<g clip-path="url(#clip0)">
<path d="M47.3162 28.5162H44.7561V29.985C44.7561 30.2644 44.8697 30.5176 45.056 30.7039C45.2421 30.8902 45.5009 31.009 45.7802 31.009H48.8577C49.1368 31.009 49.3904 30.89 49.5766 30.7039C49.7628 30.5178 49.8816 30.2644 49.8816 29.985V28.5162H47.3162ZM83.9559 61.7166L77.108 59.3942L72.6444 61.5821V63.6458C72.6444 65.1975 73.2807 66.6148 74.31 67.6388C75.3339 68.6628 76.746 69.299 78.3028 69.299C79.8545 69.299 81.2716 68.6628 82.2958 67.6388C83.3198 66.6147 83.956 65.1975 83.956 63.6458V61.7166H83.9559ZM72.6442 58.546L76.3371 56.741C76.6681 56.5496 77.0715 56.4978 77.4594 56.6325L83.9557 58.8306V56.1203C83.9557 55.4169 83.6661 54.7755 83.2006 54.3101C82.7403 53.8446 82.0989 53.5549 81.3954 53.5549H75.2095C74.5063 53.5549 73.8649 53.8444 73.3993 54.3101C72.9336 54.7755 72.6441 55.4169 72.6441 56.1203V58.546H72.6442ZM10.6764 57.0151H21.988V53.5549H13.242C12.5386 53.5549 11.8972 53.8444 11.4316 54.3101C10.9661 54.7755 10.6764 55.4169 10.6764 56.1203V57.0151ZM21.9882 59.7564H10.6764V63.6458C10.6764 65.1975 11.3126 66.6148 12.3419 67.6388C13.3659 68.6628 14.7781 69.299 16.3349 69.299C17.8866 69.299 19.3038 68.6628 20.3277 67.6388C21.3517 66.6147 21.9882 65.1975 21.9882 63.6458V59.7564ZM52.9746 61.5821C51.0919 61.8409 48.0869 61.7838 45.5733 59.596C44.6889 60.1029 43.3183 60.6563 41.6631 60.5374V63.6458C41.6631 65.1975 42.2992 66.6148 43.3234 67.6388C44.3528 68.6628 45.7647 69.299 47.3164 69.299C48.8732 69.299 50.2852 68.6628 51.3094 67.6388C52.3387 66.6147 52.9747 65.1975 52.9747 63.6458V61.5821H52.9746ZM41.6631 57.796C42.8165 57.946 43.97 57.5477 44.844 56.7978C45.4129 56.3013 46.2716 56.3633 46.7681 56.9323C48.7699 59.2391 51.5524 59.0994 52.9747 58.8304V56.1201C52.9747 55.4167 52.6852 54.7754 52.2195 54.3099C51.7541 53.8444 51.1129 53.5547 50.4093 53.5547H44.2235C43.5201 53.5547 42.8838 53.8442 42.4184 54.3099C41.9527 54.7754 41.6631 55.4167 41.6631 56.1201V57.796ZM24.7242 63.6458C24.7242 65.3734 24.1965 66.9871 23.2915 68.3267C25.1845 68.5077 26.886 69.3611 28.1636 70.6336C29.6116 72.0818 30.5066 74.0834 30.5066 76.2817V92.7397C30.5066 93.4949 29.8963 94.1053 29.1413 94.1053C20.602 94.1053 12.0625 94.1053 3.52856 94.1053C2.77334 94.1053 2.1579 93.4949 2.1579 92.7397V87.6088C2.1579 86.8536 2.77334 86.2435 3.52856 86.2435C4.28377 86.2435 4.89411 86.8538 4.89411 87.6088V91.369H7.52669V78.8368C7.52669 78.0764 8.14214 77.4661 8.89735 77.4661C9.65256 77.4661 10.268 78.0764 10.268 78.8368V91.369H22.402V78.8368C22.402 78.0764 23.0123 77.4661 23.7726 77.4661C24.5279 77.4661 25.138 78.0764 25.138 78.8368V91.369H27.7708V76.2815C27.7708 74.8384 27.1812 73.5247 26.2295 72.5679C25.2727 71.6161 23.9589 71.0266 22.516 71.0266H20.3228C19.1332 71.668 17.7729 72.0351 16.3353 72.0351C14.8922 72.0351 13.537 71.6678 12.3475 71.0266H10.1542C8.70576 71.0266 7.39203 71.6161 6.4403 72.5679C5.48876 73.5247 4.89393 74.8384 4.89393 76.2815V81.4124C4.89393 82.1676 4.28341 82.778 3.52838 82.778C2.77316 82.778 2.15771 82.1676 2.15771 81.4124V76.2815C2.15771 74.0832 3.0578 72.0816 4.50583 70.6334C5.78344 69.3609 7.48509 68.5077 9.37814 68.3265C8.47294 66.9869 7.94015 65.3732 7.94015 63.6456V58.3854V56.1199C7.94015 54.6562 8.53498 53.3323 9.49692 52.3754C10.4589 51.4133 11.783 50.8185 13.2416 50.8185H23.3583C24.1135 50.8185 24.7236 51.4288 24.7236 52.184V58.3854V63.6458H24.7242ZM86.6921 63.6458C86.6921 65.3734 86.1644 66.9871 85.2594 68.3267C87.1522 68.5077 88.8539 69.3611 90.1313 70.6336C91.5797 72.0818 92.4745 74.0834 92.4745 76.2817V92.7397C92.4745 93.4949 91.864 94.1053 91.1091 94.1053C82.5699 94.1053 74.0304 94.1053 65.4964 94.1053C64.7412 94.1053 64.1258 93.4949 64.1258 92.7397V87.6088C64.1258 86.8536 64.7412 86.2435 65.4964 86.2435C66.2517 86.2435 66.8618 86.8538 66.8618 87.6088V91.369H69.4946V78.8368C69.4946 78.0764 70.11 77.4661 70.8652 77.4661C71.6205 77.4661 72.2359 78.0764 72.2359 78.8368V91.369H84.3699V78.8368C84.3699 78.0764 84.9802 77.4661 85.7405 77.4661C86.4957 77.4661 87.1059 78.0764 87.1059 78.8368V91.369H89.7385V76.2815C89.7385 74.8384 89.1491 73.5247 88.1972 72.5679C87.2404 71.6161 85.9268 71.0266 84.4837 71.0266H82.2905C81.1009 71.668 79.7406 72.0351 78.3028 72.0351C76.8599 72.0351 75.5047 71.6678 74.3152 71.0266H72.122C70.6737 71.0266 69.3599 71.6161 68.4084 72.5679C67.4566 73.5247 66.8618 74.8384 66.8618 76.2815V81.4124C66.8618 82.1676 66.2515 82.778 65.4964 82.778C64.7414 82.778 64.1258 82.1676 64.1258 81.4124V76.2815C64.1258 74.0832 65.0259 72.0816 66.4739 70.6334C67.7515 69.3609 69.4532 68.5077 71.3462 68.3265C70.441 66.9869 69.9082 65.3732 69.9082 63.6456V56.1199C69.9082 54.6562 70.503 53.3323 71.465 52.3754C72.4269 51.4133 73.7511 50.8185 75.2095 50.8185H81.3954C82.854 50.8185 84.1781 51.4133 85.14 52.3754C86.0969 53.3323 86.6917 54.6615 86.6917 56.1199V63.6458H86.6921ZM55.7108 63.6458C55.7108 65.3734 55.178 66.9871 54.2779 68.3267C56.1658 68.5077 57.8724 69.3611 59.1449 70.6336C60.5933 72.0818 61.4932 74.0834 61.4932 76.2817V92.7397C61.4932 93.4949 60.8827 94.1053 60.1224 94.1053C51.5884 94.1053 43.0491 94.1053 34.5099 94.1053C33.7546 94.1053 33.1445 93.4949 33.1445 92.7397V87.6088C33.1445 86.8536 33.7548 86.2435 34.5099 86.2435C35.2649 86.2435 35.8805 86.8538 35.8805 87.6088V91.369H38.5133V78.8368C38.5133 78.0764 39.1234 77.4661 39.8785 77.4661C40.639 77.4661 41.2491 78.0764 41.2491 78.8368V91.369H53.3882V78.8368C53.3882 78.0764 53.9987 77.4661 54.7538 77.4661C55.5088 77.4661 56.1244 78.0764 56.1244 78.8368V91.369H58.757V76.2815C58.757 74.8384 58.1622 73.5247 57.2106 72.5679C56.2589 71.6161 54.9453 71.0266 53.5022 71.0266H51.3039C50.1143 71.668 48.7595 72.0351 47.3164 72.0351C45.8786 72.0351 44.5183 71.6678 43.3338 71.0266H41.1356C39.6927 71.0266 38.379 71.6161 37.4273 72.5679C36.4704 73.5247 35.8807 74.8384 35.8807 76.2815V81.4124C35.8807 82.1676 35.2651 82.778 34.51 82.778C33.7548 82.778 33.1447 82.1676 33.1447 81.4124V76.2815C33.1447 74.0832 34.0393 72.0816 35.4877 70.6334C36.7651 69.3609 38.4668 68.5077 40.3598 68.3265C39.4546 66.9869 38.9273 65.3732 38.9273 63.6456V56.1199C38.9273 54.6562 39.5221 53.3323 40.479 52.3754C41.4407 51.4133 42.765 50.8185 44.2235 50.8185H50.4093C51.8677 50.8185 53.197 51.4133 54.1538 52.3754C55.1159 53.3323 55.7108 54.6562 55.7108 56.1199V63.6458ZM26.2706 36.8951H42.4233C42.9665 36.8951 43.4317 37.2106 43.6542 37.6658C44.8747 39.7813 46.0955 41.8968 47.316 44.0122C48.552 41.8657 49.7935 39.7245 51.0297 37.5831C51.2727 37.1591 51.7229 36.8953 52.2089 36.8953H68.4031C68.8065 36.8953 69.1685 37.0712 69.4221 37.3505L76.1614 43.8416L76.9217 37.3195C76.9891 36.7351 77.4131 36.2798 77.951 36.1453C81.3853 35.0745 84.3595 32.9178 86.4594 30.0834C88.5178 27.3057 89.7385 23.8663 89.7385 20.1577C89.7385 15.5544 87.856 11.3753 84.8249 8.33926C81.7887 5.30307 77.6047 3.42042 73.0013 3.42042H21.6311C17.0277 3.42042 12.8486 5.30307 9.81277 8.33926C6.77658 11.3753 4.89411 15.5597 4.89411 20.1577C4.89411 23.8663 6.11479 27.3057 8.17315 30.0834C10.2886 32.9384 13.2885 35.1055 16.7538 36.1711C17.3332 36.347 17.6537 36.8124 17.7211 37.3916L18.471 43.8414L25.2878 37.2779C25.5517 37.0244 25.9137 36.8951 26.2706 36.8951ZM41.6372 39.6313H26.7774L18.4294 47.6741C18.2174 47.9016 17.9227 48.0569 17.5864 48.093C16.8365 48.181 16.159 47.6431 16.0762 46.8931L15.0987 38.4935C11.4316 37.1744 8.2611 34.7849 5.98013 31.7075C3.58038 28.4646 2.1579 24.4662 2.1579 20.1577C2.1579 14.7994 4.3511 9.93234 7.87848 6.40497C11.4057 2.87723 16.2727 0.684204 21.6311 0.684204H73.0011C78.3595 0.684204 83.2266 2.87723 86.759 6.40478C90.2866 9.93216 92.4743 14.7994 92.4743 20.1576C92.4743 24.4661 91.0518 28.4642 88.6521 31.7073C86.3711 34.7847 83.2057 37.1742 79.5388 38.4933L78.5613 46.8723C78.525 47.1723 78.401 47.4621 78.1838 47.6843C77.6614 48.2275 76.7977 48.2428 76.2546 47.7204L67.855 39.6311H52.9952C51.4951 42.2276 50.0006 44.824 48.5006 47.4205C48.3816 47.6221 48.2108 47.7929 47.9988 47.9169C47.3419 48.2945 46.5094 48.0669 46.1369 47.4153C44.6369 44.8189 43.1371 42.2277 41.6372 39.6313ZM42.025 27.0419C41.989 25.4851 41.1767 24.2489 40.3286 22.9611C39.1389 21.156 37.8976 19.2733 37.8976 16.2425C37.8976 13.6409 38.9528 11.2873 40.6598 9.58584C42.3612 7.87908 44.7199 6.8239 47.3162 6.8239C49.9179 6.8239 52.271 7.87908 53.9781 9.58584C55.6796 11.2875 56.7348 13.6409 56.7348 16.2425C56.7348 19.2733 55.4933 21.156 54.3089 22.9611C53.4608 24.2489 52.6487 25.4851 52.6124 27.0419L52.6177 29.985C52.6177 31.0194 52.1934 31.9607 51.5108 32.6384C50.8332 33.3212 49.8918 33.7452 48.8575 33.7452H45.78C44.7457 33.7452 43.8043 33.321 43.1216 32.6384C42.439 31.9609 42.02 31.0194 42.02 29.985L42.025 27.0419ZM44.6318 25.7747H50.0057C50.3057 24.0783 51.1539 22.7954 52.0332 21.4611C52.9899 20.0023 53.9985 18.4714 53.9985 16.2423C53.9985 14.3958 53.2486 12.7251 52.0434 11.52C50.8332 10.3097 49.1627 9.55975 47.3162 9.55975C45.475 9.55975 43.8043 10.3097 42.5941 11.5201C41.3836 12.7253 40.639 14.3959 40.639 16.2425C40.639 18.4716 41.6422 20.0025 42.6043 21.4613C43.4785 22.7956 44.3267 24.0783 44.6318 25.7747Z" fill="white"/>
</g>
<defs>
<clipPath id="clip0">
<rect width="93.4211" height="93.4211" fill="white" transform="translate(0.605469 0.684204)"/>
</clipPath>
</defs>
</svg>
