<svg width="71" height="103" viewBox="0 0 71 103" fill="none" xmlns="http://www.w3.org/2000/svg">
<g clip-path="url(#clip0)">
<path fill-rule="evenodd" clip-rule="evenodd" d="M10.3757 0H52.8005C55.5476 0.015136 58.1777 1.11315 60.1203 3.05568C62.0628 4.99821 63.1608 7.62854 63.1759 10.3757V53.4536H60.8703V10.3757C60.8703 8.23538 60.0202 6.18277 58.5068 4.66936C56.9934 3.15596 54.9408 2.30571 52.8005 2.30571H10.3757C8.23538 2.30571 6.18277 3.15596 4.66936 4.66936C3.15596 6.18277 2.30583 8.23538 2.30583 10.3757V92.4582C2.30583 94.5985 3.15596 96.6511 4.66936 98.1645C6.18277 99.6779 8.23538 100.528 10.3757 100.528H52.8005C54.9408 100.528 56.9934 99.6779 58.5068 98.1645C60.0202 96.6511 60.8703 94.5985 60.8703 92.4582V79.7577H63.1759V92.4582C63.1608 95.2053 62.0628 97.8356 60.1203 99.7782C58.1777 101.721 55.5476 102.819 52.8005 102.834H10.3757C7.62854 102.819 4.99821 101.721 3.05568 99.7782C1.11315 97.8356 0.015136 95.2053 0 92.4582V10.3757C0.015136 7.62854 1.11315 4.99821 3.05568 3.05568C4.99821 1.11315 7.62854 0.015136 10.3757 0Z" fill="white"/>
<path fill-rule="evenodd" clip-rule="evenodd" d="M48.6118 1.15289V4.99571C48.6067 6.88472 47.8539 8.69487 46.5182 10.0306C45.1825 11.3664 43.3724 12.119 41.4834 12.1241H21.6928C19.8038 12.119 17.9935 11.3664 16.6578 10.0306C15.322 8.69487 14.5695 6.88472 14.5645 4.99571V0.0769043H48.6118V1.2297V1.15289ZM46.3062 4.99571V2.3825H16.8701V4.99571C16.8801 6.27167 17.3915 7.49249 18.2938 8.39476C19.196 9.29703 20.4168 9.8083 21.6928 9.81835H41.4834C42.7594 9.8083 43.9802 9.29703 44.8825 8.39476C45.7847 7.49249 46.2961 6.27167 46.3062 4.99571Z" fill="white"/>
<path d="M34.6625 4.55371H28.514C27.7075 4.55371 27.0537 5.2075 27.0537 6.01398C27.0537 6.82047 27.7075 7.47425 28.514 7.47425H34.6625C35.469 7.47425 36.1228 6.82047 36.1228 6.01398C36.1228 5.2075 35.469 4.55371 34.6625 4.55371Z" fill="white"/>
<path d="M54.0491 8.99222C54.7919 8.99222 55.3941 8.39005 55.3941 7.64723C55.3941 6.90442 54.7919 6.30225 54.0491 6.30225C53.3063 6.30225 52.7041 6.90442 52.7041 7.64723C52.7041 8.39005 53.3063 8.99222 54.0491 8.99222Z" fill="white"/>
<path fill-rule="evenodd" clip-rule="evenodd" d="M23.5375 89.6145H15.1794C14.7778 89.6731 14.3687 89.6506 13.976 89.5483C13.5832 89.446 13.215 89.266 12.8931 89.0189C12.5376 88.6815 12.3244 88.221 12.2973 87.7316C12.2681 87.3799 12.2681 87.0264 12.2973 86.6747V79.2773H14.6031V86.6747C14.6031 86.9437 14.6031 87.1936 14.6031 87.3665C14.6031 87.5394 14.9297 87.3665 15.2179 87.3665H23.576V89.6721L23.5375 89.6145ZM14.4877 87.3473C14.4877 87.3473 14.4493 87.3281 14.4877 87.3473V87.3473Z" fill="white"/>
<path d="M47.8046 74.7621H19.6367V77.0678H47.8046V74.7621Z" fill="white"/>
<path fill-rule="evenodd" clip-rule="evenodd" d="M29.1668 75.9148V69.1131C29.054 67.9601 29.1783 66.7961 29.532 65.6929C29.7162 65.2071 29.9753 64.7532 30.3004 64.3479C30.6225 63.944 31.0128 63.5994 31.4534 63.3296C31.9776 63.0394 32.5643 62.8811 33.1633 62.8685C33.8166 62.8685 34.6812 62.8685 36.0454 62.8685H48.1504V65.1741H36.1031C34.7581 65.1741 33.9318 65.1741 33.3938 65.1741C33.1405 65.1757 32.8908 65.2349 32.6637 65.3471C32.466 65.4631 32.2958 65.6204 32.1644 65.8082C31.9746 66.0233 31.8248 66.2706 31.7222 66.5384C31.516 67.3865 31.4511 68.2629 31.5301 69.1322V75.9341L29.1668 75.9148Z" fill="white"/>
<path fill-rule="evenodd" clip-rule="evenodd" d="M16.7165 73.2633H9.91467C9.55895 73.2538 9.20509 73.3171 8.87469 73.4493C8.54429 73.5815 8.24432 73.7797 7.99326 74.0319C7.73282 74.2796 7.52561 74.5776 7.38391 74.9079C7.24221 75.2382 7.16906 75.5939 7.16906 75.9533C7.16906 76.3127 7.24221 76.6684 7.38391 76.9987C7.52561 77.329 7.73282 77.627 7.99326 77.8747C8.24432 78.1269 8.54429 78.3251 8.87469 78.4572C9.20509 78.5894 9.55895 78.6527 9.91467 78.6432H16.7165C17.0723 78.6527 17.4261 78.5894 17.7565 78.4572C18.0869 78.3251 18.3869 78.1269 18.6379 77.8747C18.8984 77.627 19.1058 77.329 19.2475 76.9987C19.3892 76.6684 19.4621 76.3127 19.4621 75.9533C19.4621 75.5939 19.3892 75.2382 19.2475 74.9079C19.1058 74.5776 18.8984 74.2796 18.6379 74.0319C18.3869 73.7797 18.0869 73.5815 17.7565 73.4493C17.4261 73.3171 17.0723 73.2538 16.7165 73.2633ZM9.91467 70.9576H16.7165C18.026 70.9611 19.2817 71.4785 20.2134 72.3986C20.9033 73.0919 21.3728 73.9737 21.5627 74.9332C21.7527 75.8926 21.6547 76.8866 21.2808 77.7904C20.907 78.6942 20.2741 79.4672 19.4619 80.0122C18.6497 80.5571 17.6946 80.8496 16.7165 80.8529H9.91467C8.59993 80.8529 7.33903 80.3306 6.40937 79.4009C5.4797 78.4713 4.95752 77.2104 4.95752 75.8956C4.95752 74.5809 5.4797 73.32 6.40937 72.3903C7.33903 71.4607 8.59993 70.9384 9.91467 70.9384V70.9576Z" fill="white"/>
<path fill-rule="evenodd" clip-rule="evenodd" d="M65.9431 73.2633H50.8601C50.1569 73.2633 49.4824 73.5426 48.9851 74.0399C48.4879 74.5371 48.2085 75.2116 48.2085 75.9148C48.2085 76.6181 48.4879 77.2926 48.9851 77.7898C49.4824 78.2871 50.1569 78.5664 50.8601 78.5664H65.9431C66.2988 78.5759 66.6527 78.5126 66.9831 78.3804C67.3135 78.2482 67.6135 78.05 67.8645 77.7978C68.125 77.5501 68.3324 77.2521 68.4741 76.9218C68.6158 76.5915 68.6887 76.2358 68.6887 75.8764C68.6887 75.517 68.6158 75.1613 68.4741 74.831C68.3324 74.5007 68.125 74.2027 67.8645 73.955C67.6135 73.7028 67.3135 73.5046 66.9831 73.3725C66.6527 73.2403 66.2988 73.177 65.9431 73.1865V73.2633ZM50.8601 70.9576H65.9431C67.2522 70.9631 68.5071 71.4803 69.44 72.3986C70.1365 73.0908 70.6118 73.9743 70.8055 74.937C70.9992 75.8997 70.9026 76.8983 70.528 77.806C70.1534 78.7137 69.5177 79.4897 68.7014 80.0356C67.8851 80.5815 66.9251 80.8726 65.9431 80.8721H50.8601C49.8779 80.8781 48.9162 80.5909 48.0981 80.0476C47.2799 79.5042 46.6424 78.7292 46.267 77.8216C45.8916 76.914 45.7954 75.9151 45.9907 74.9525C46.1859 73.9899 46.6636 73.1074 47.363 72.4179C48.2916 71.4907 49.5479 70.9662 50.8601 70.9576Z" fill="white"/>
<path fill-rule="evenodd" clip-rule="evenodd" d="M65.9427 61.3122H50.8597C50.1929 61.3689 49.5718 61.6737 49.1191 62.1665C48.6664 62.6593 48.4152 63.3041 48.4152 63.9732C48.4152 64.6424 48.6664 65.2872 49.1191 65.78C49.5718 66.2728 50.1929 66.5777 50.8597 66.6344H65.9427C66.2997 66.6403 66.654 66.5734 66.9843 66.438C67.3146 66.3025 67.614 66.1014 67.8641 65.8467C68.1246 65.599 68.332 65.301 68.4737 64.9707C68.6154 64.6403 68.6883 64.2847 68.6883 63.9253C68.6883 63.5659 68.6154 63.2102 68.4737 62.8799C68.332 62.5496 68.1246 62.2515 67.8641 62.0039C67.6131 61.7517 67.3131 61.5534 66.9827 61.4212C66.6523 61.2891 66.2984 61.2258 65.9427 61.2353V61.3122ZM50.8597 59.0065H65.9427C67.2558 59.0109 68.5133 59.5361 69.4396 60.4668C69.9038 60.9228 70.2724 61.4671 70.5232 62.0677C70.774 62.6682 70.9019 63.3129 70.8999 63.9637C70.8999 65.2803 70.3783 66.5431 69.4492 67.4758C68.5201 68.4086 67.2592 68.935 65.9427 68.9401H50.8597C50.2089 68.9422 49.5642 68.8141 48.9636 68.5633C48.3631 68.3125 47.8187 67.9441 47.3626 67.4798C46.8996 67.0208 46.5321 66.4746 46.2813 65.8727C46.0305 65.2709 45.9014 64.6253 45.9014 63.9732C45.9014 63.3212 46.0305 62.6757 46.2813 62.0739C46.5321 61.472 46.8996 60.9258 47.3626 60.4668C48.3021 59.5677 49.5595 59.0771 50.8597 59.1025V59.0065Z" fill="white"/>
<path fill-rule="evenodd" clip-rule="evenodd" d="M24.9207 22.5958H28.3407V37.5252C28.4144 39.6221 28.1219 41.7157 27.4761 43.7121C26.8501 45.2597 25.7372 46.5614 24.3058 47.4204C22.47 48.4581 20.379 48.9575 18.2725 48.8614C16.2272 48.9379 14.1947 48.509 12.3546 47.6126C10.8694 46.8315 9.70631 45.5528 9.06911 44.0003C8.33667 41.9231 8.00416 39.7261 8.08917 37.5252V22.5958H11.5093V37.5059C11.4333 39.1812 11.6411 40.8573 12.1241 42.4632C12.5202 43.5164 13.2848 44.3901 14.2761 44.9226C15.4149 45.5311 16.6939 45.8293 17.9845 45.7872C18.943 45.8842 19.9112 45.7842 20.8298 45.4934C21.7483 45.2027 22.5976 44.7272 23.3258 44.0964C24.4018 42.9435 24.9207 40.7531 24.9207 37.5059V22.5958ZM31.4343 48.4195L41.4063 34.9697L32.6256 22.5381H36.6221L41.3294 29.1477C42.0708 30.1564 42.751 31.2087 43.3662 32.2989C43.9619 31.3958 44.6342 30.3775 45.422 29.4168L50.5907 22.5381H54.4336L45.4605 34.8159L55.0675 48.3618H50.879L44.3654 39.1583C43.9811 38.6395 43.6352 38.1208 43.3085 37.602C42.7321 38.4666 42.3286 39.0623 42.0596 39.4081L35.527 48.3618L31.4343 48.4195Z" fill="white"/>
<path fill-rule="evenodd" clip-rule="evenodd" d="M44.8843 85.8101H29.8203C29.1536 85.8668 28.5324 86.1716 28.0797 86.6644C27.6271 87.1573 27.3759 87.802 27.3759 88.4712C27.3759 89.1403 27.6271 89.7851 28.0797 90.2779C28.5324 90.7707 29.1536 91.0756 29.8203 91.1323H44.8843C45.2528 91.1637 45.6236 91.1182 45.9736 90.9986C46.3235 90.8791 46.645 90.6882 46.9174 90.4381C47.1897 90.1879 47.4071 89.884 47.5558 89.5454C47.7046 89.2068 47.7812 88.841 47.7812 88.4712C47.7812 88.1014 47.7046 87.7356 47.5558 87.3971C47.4071 87.0585 47.1897 86.7545 46.9174 86.5044C46.645 86.2542 46.3235 86.0633 45.9736 85.9438C45.6236 85.8243 45.2528 85.7788 44.8843 85.8101ZM29.8203 83.5044H44.8843C46.2036 83.5058 47.4683 84.0311 48.4004 84.9647C48.8647 85.4208 49.233 85.965 49.4838 86.5656C49.7346 87.1661 49.8628 87.8109 49.8607 88.4617C49.8607 89.7815 49.3363 91.0472 48.403 91.9805C47.4697 92.9137 46.2042 93.4381 44.8843 93.4381H29.8203C28.8367 93.4424 27.874 93.154 27.0548 92.6096C26.2355 92.0652 25.5969 91.2894 25.2199 90.3808C24.8429 89.4723 24.7447 88.4723 24.9378 87.5078C25.1308 86.5433 25.6065 85.658 26.3042 84.9647C27.2364 84.0311 28.501 83.5058 29.8203 83.5044Z" fill="white"/>
</g>
<defs>
<clipPath id="clip0">
<rect width="70.9" height="102.834" fill="white"/>
</clipPath>
</defs>
</svg>
