<svg width="98" height="98" viewBox="0 0 98 98" fill="none" xmlns="http://www.w3.org/2000/svg">
<path d="M92.2578 15.3125H87.6641V5.74219C87.6641 2.57595 85.0881 0 81.9219 0H16.0781C12.9119 0 10.3359 2.57595 10.3359 5.74219V15.3125H5.74219C2.57595 15.3125 0 17.8884 0 21.0547V76.1793C0 79.3455 2.57595 81.9215 5.74219 81.9215H39.4297V86.5149H35.7884C32.6221 86.5149 30.0462 89.0908 30.0462 92.257V96.0859C30.0462 97.1431 30.9031 98 31.9602 98H66.0399C67.0971 98 67.954 97.1431 67.954 96.0859V92.257C67.954 89.0908 65.3781 86.5149 62.2118 86.5149H58.5703V81.9215H92.2578C95.4241 81.9215 98 79.3455 98 76.1793V21.0547C98 17.8884 95.4241 15.3125 92.2578 15.3125ZM92.2578 19.1406C93.3132 19.1406 94.1719 19.9993 94.1719 21.0547V65.0777H87.6641V19.1406H92.2578ZM16.0781 3.82812H81.9219C82.9773 3.82812 83.8359 4.68677 83.8359 5.74219V15.3125H14.1641V5.74219C14.1641 4.68677 15.0227 3.82812 16.0781 3.82812ZM5.74219 19.1406H10.3359V33.4942C10.3359 34.5513 11.1929 35.4082 12.25 35.4082C13.3071 35.4082 14.1641 34.5513 14.1641 33.4942V19.1406H83.8359V65.0777H74.0742V58.7701C74.0742 57.713 73.2173 56.8561 72.1602 56.8561H69.6698C69.232 55.3489 68.6314 53.9 67.8738 52.5232L69.6357 50.7615C70.3831 50.0141 70.3831 48.8021 69.6357 48.0545L63.8246 42.2434C63.0772 41.4961 61.8652 41.4961 61.1175 42.2434L59.3558 44.0053C57.9793 43.2477 56.5301 42.647 55.023 42.2095V39.7191C55.023 38.662 54.1661 37.805 53.1089 37.805H44.8907C43.8336 37.805 42.9766 38.662 42.9766 39.7191V42.2095C41.4695 42.6472 40.0206 43.2477 38.6438 44.0053L36.8821 42.2434C36.1346 41.4961 34.9226 41.4961 34.175 42.2434L28.3639 48.0545C27.6165 48.8019 27.6165 50.0139 28.3639 50.7615L30.1258 52.5232C29.3682 53.8998 28.7676 55.3489 28.3298 56.8561H25.8398C24.7827 56.8561 23.9258 57.713 23.9258 58.7701V65.0777H14.1641V50.7207C14.1641 49.6636 13.3071 48.8067 12.25 48.8067C11.1929 48.8067 10.3359 49.6636 10.3359 50.7207V65.0777H3.82812V21.0547C3.82812 19.9993 4.68677 19.1406 5.74219 19.1406ZM33.8875 50.8708L32.4246 49.4079L35.5288 46.3037L36.9917 47.7666C37.6305 48.4049 38.6287 48.5104 39.3866 48.019C41.1979 46.8446 43.1841 46.0213 45.2902 45.5723C46.1737 45.384 46.8051 44.6036 46.8051 43.7003V41.6328H51.1952V43.7003C51.1952 44.6036 51.8267 45.384 52.7102 45.5723C54.8161 46.0213 56.8023 46.8444 58.6138 48.019C59.3717 48.5104 60.3699 48.4051 61.0086 47.7666L62.4716 46.3037L65.5758 49.4079L64.1129 50.8708C63.4743 51.5095 63.3689 52.5077 63.8604 53.2657C65.0349 55.0772 65.8581 57.0634 66.3071 59.1692C66.4955 60.0526 67.2758 60.6842 68.1791 60.6842H70.2461V65.0777H58.3133C58.4836 64.36 58.5715 63.6223 58.5715 62.8792C58.5715 57.6014 54.2776 53.3078 49 53.3078C43.7224 53.3078 39.4285 57.6016 39.4285 62.8792C39.4285 63.6223 39.5164 64.36 39.6867 65.0777H27.7539V60.6842H29.8213C30.7245 60.6842 31.5049 60.0528 31.6932 59.1692C32.1423 57.0632 32.9655 55.077 34.14 53.2657C34.6315 52.5079 34.5262 51.5095 33.8875 50.8708ZM43.2567 62.8792C43.2567 59.7124 45.833 57.1359 49 57.1359C52.167 57.1359 54.7433 59.7124 54.7433 62.8792C54.7433 63.6351 54.5904 64.3818 54.3 65.0777H43.7C43.4096 64.3818 43.2567 63.6351 43.2567 62.8792ZM64.1257 92.257V94.1719H33.8743V92.257C33.8743 91.2016 34.733 90.343 35.7884 90.343H62.2118C63.2672 90.343 64.1257 91.2016 64.1257 92.257ZM54.7422 86.5149H43.2578V81.9215H54.7422V86.5149ZM92.2578 78.0934H5.74219C4.68677 78.0934 3.82812 77.2347 3.82812 76.1793V68.9059H94.1719V76.1793C94.1719 77.2347 93.3132 78.0934 92.2578 78.0934Z" fill="white"/>
<path d="M54.7422 11.4844H75.4141C76.4712 11.4844 77.3281 10.6274 77.3281 9.57031C77.3281 8.51318 76.4712 7.65625 75.4141 7.65625H54.7422C53.6851 7.65625 52.8281 8.51318 52.8281 9.57031C52.8281 10.6274 53.6851 11.4844 54.7422 11.4844Z" fill="white"/>
<path d="M31.0078 11.4844C31.5112 11.4844 32.005 11.2796 32.3611 10.9236C32.7171 10.5675 32.9219 10.0737 32.9219 9.57031C32.9219 9.06691 32.7171 8.57309 32.3611 8.21707C32.005 7.86105 31.5112 7.65625 31.0078 7.65625C30.5044 7.65625 30.0106 7.86105 29.6546 8.21707C29.2986 8.57309 29.0938 9.06691 29.0938 9.57031C29.0938 10.0737 29.2986 10.5675 29.6546 10.9236C30.0106 11.2796 30.5044 11.4844 31.0078 11.4844Z" fill="white"/>
<path d="M22.5859 11.4844C23.0893 11.4844 23.5832 11.2796 23.9392 10.9236C24.2952 10.5675 24.5 10.0737 24.5 9.57031C24.5 9.06691 24.2952 8.57309 23.9392 8.21707C23.5832 7.86105 23.0893 7.65625 22.5859 7.65625C22.0825 7.65625 21.5887 7.86105 21.2327 8.21707C20.8767 8.57309 20.6719 9.06691 20.6719 9.57031C20.6719 10.0737 20.8767 10.5675 21.2327 10.9236C21.5887 11.2796 22.0825 11.4844 22.5859 11.4844Z" fill="white"/>
<path d="M39.4297 11.4844C39.9331 11.4844 40.4269 11.2796 40.7829 10.9236C41.1389 10.5675 41.3438 10.0737 41.3438 9.57031C41.3438 9.06691 41.1389 8.57309 40.7829 8.21707C40.4269 7.86105 39.9331 7.65625 39.4297 7.65625C38.9263 7.65625 38.4325 7.86105 38.0764 8.21707C37.7204 8.57309 37.5156 9.06691 37.5156 9.57031C37.5156 10.0737 37.7204 10.5675 38.0764 10.9236C38.4325 11.2796 38.9263 11.4844 39.4297 11.4844Z" fill="white"/>
<path d="M21.4375 28.3278H25.9926C27.0497 28.3278 27.9066 27.4709 27.9066 26.4138C27.9066 25.3566 27.0497 24.4997 25.9926 24.4997H21.4375C20.3804 24.4997 19.5234 25.3566 19.5234 26.4138C19.5234 27.4709 20.3804 28.3278 21.4375 28.3278Z" fill="white"/>
<path d="M34.4146 28.3278H51.9738C53.0309 28.3278 53.8879 27.4709 53.8879 26.4138C53.8879 25.3566 53.0309 24.4997 51.9738 24.4997H34.4146C33.3574 24.4997 32.5005 25.3566 32.5005 26.4138C32.5005 27.4709 33.3574 28.3278 34.4146 28.3278Z" fill="white"/>
<path d="M21.4375 37.5149H32.5391C33.5962 37.5149 34.4531 36.658 34.4531 35.6008C34.4531 34.5437 33.5962 33.6868 32.5391 33.6868H21.4375C20.3804 33.6868 19.5234 34.5437 19.5234 35.6008C19.5234 36.658 20.3804 37.5149 21.4375 37.5149Z" fill="white"/>
<path d="M60.3955 28.3278H76.5625C77.6196 28.3278 78.4765 27.4709 78.4765 26.4138C78.4765 25.3566 77.6196 24.4997 76.5625 24.4997H60.3955C59.3384 24.4997 58.4814 25.3566 58.4814 26.4138C58.4814 27.4709 59.3384 28.3278 60.3955 28.3278Z" fill="white"/>
<path d="M76.5625 33.6868H63.4629C62.4058 33.6868 61.5488 34.5437 61.5488 35.6008C61.5488 36.658 62.4058 37.5149 63.4629 37.5149H76.5625C77.6197 37.5149 78.4766 36.658 78.4766 35.6008C78.4766 34.5437 77.6197 33.6868 76.5625 33.6868Z" fill="white"/>
<path d="M12.25 44.0215C12.7534 44.0215 13.2472 43.8167 13.6032 43.4607C13.9593 43.1047 14.1641 42.6109 14.1641 42.1075C14.1641 41.6041 13.9593 41.1103 13.6032 40.7542C13.2472 40.3982 12.7534 40.1934 12.25 40.1934C11.7466 40.1934 11.2528 40.3982 10.8968 40.7542C10.5407 41.1103 10.3359 41.6041 10.3359 42.1075C10.3359 42.6109 10.5407 43.1047 10.8968 43.4607C11.2528 43.8167 11.7466 44.0215 12.25 44.0215Z" fill="white"/>
</svg>
