<svg width="80" height="80" viewBox="0 0 80 80" fill="none" xmlns="http://www.w3.org/2000/svg">
<path d="M75.0705 6.26257H4.92953C2.21125 6.26257 0 8.47382 0 11.1919V58.7877C0 61.5059 2.21125 63.7171 4.92953 63.7171H28.6523L27.6928 71.3935H23.7172C23.0698 71.3935 22.5453 71.9182 22.5453 72.5654C22.5453 73.2126 23.0698 73.7373 23.7172 73.7373H56.2828C56.9302 73.7373 57.4547 73.2126 57.4547 72.5654C57.4547 71.9182 56.9302 71.3935 56.2828 71.3935H52.3073L51.3477 63.7171H75.0705C77.7886 63.7171 80 61.5059 80 58.7877V11.1919C80 8.47382 77.7887 6.26257 75.0705 6.26257ZM30.0548 71.3935L31.0145 63.7171H35.3275L35.7506 65.4093C36.2391 67.3629 37.9866 68.7271 40.0002 68.7271C42.0138 68.7271 43.7612 67.3629 44.2497 65.4093L44.6728 63.7171H48.9858L49.9452 71.3935H30.0548ZM37.7433 63.7171H42.2566L41.9756 64.8409C41.7486 65.7491 40.9362 66.3834 39.9998 66.3834C39.0634 66.3834 38.2513 65.749 38.0241 64.8409L37.7433 63.7171ZM77.6562 58.7877C77.6562 60.2135 76.4962 61.3734 75.0705 61.3734H4.92953C3.50375 61.3734 2.34375 60.2135 2.34375 58.7877V11.1919C2.34375 9.76617 3.50375 8.60632 4.92953 8.60632H75.0705C76.4962 8.60632 77.6562 9.76617 77.6562 11.1919V58.7877Z" fill="black"/>
<path d="M66.3026 11.2728H6.18164C5.5343 11.2728 5.00977 11.7974 5.00977 12.4447V57.5353C5.00977 58.1827 5.5343 58.7072 6.18164 58.7072H8.6868C9.33414 58.7072 9.85867 58.1827 9.85867 57.5353C9.85883 56.8881 9.33414 56.3635 8.68695 56.3635H7.35367V13.6166H66.3026C66.9499 13.6166 67.4745 13.0919 67.4745 12.4447C67.4745 11.7974 66.9499 11.2728 66.3026 11.2728Z" fill="black"/>
<path d="M73.8182 11.2728H71.313C70.6657 11.2728 70.1412 11.7974 70.1412 12.4447C70.1412 13.0919 70.6657 13.6166 71.313 13.6166H72.6463V56.3635H13.6973C13.0499 56.3635 12.5254 56.8881 12.5254 57.5353C12.5254 58.1827 13.0499 58.7072 13.6973 58.7072H73.818C74.4654 58.7072 74.9899 58.1827 74.9899 57.5353V12.4447C74.9901 11.7974 74.4654 11.2728 73.8182 11.2728Z" fill="black"/>
<path d="M55.953 24.2476C55.7424 23.9783 55.4247 23.8146 55.0835 23.7991L27.5281 22.5465C27.5066 22.5455 27.4855 22.5451 27.4638 22.5454C27.3006 22.0099 26.9559 21.5455 26.4894 21.2343L23.1149 18.9846C22.5764 18.6257 21.8488 18.7712 21.4899 19.3098C21.1309 19.8483 21.2764 20.5758 21.8149 20.9348L25.1892 23.1841C25.2052 23.1948 25.2169 23.2108 25.2222 23.2293L29.5205 38.2732C29.6545 38.7422 29.8752 39.1638 30.1585 39.5279L28.5858 42.6732C28.2072 43.4302 28.2469 44.3119 28.6919 45.0319C28.8533 45.293 29.058 45.5154 29.2931 45.6935C28.9853 46.2308 28.8083 46.8524 28.8083 47.5149C28.8083 49.5424 30.4578 51.1918 32.4852 51.1918C34.5125 51.1918 36.162 49.5422 36.162 47.5149C36.162 47.0447 36.0724 46.5954 35.9108 46.1818H46.5947C46.4331 46.5954 46.3435 47.0447 46.3435 47.5149C46.3435 49.5424 47.993 51.1918 50.0203 51.1918C52.0477 51.1918 53.6972 49.5422 53.6972 47.5149C53.6972 46.9268 53.5577 46.371 53.3111 45.8776C53.5477 45.6632 53.6972 45.3544 53.6972 45.0099C53.6972 44.3627 53.1727 43.838 52.5253 43.838H30.7538C30.737 43.838 30.7088 43.838 30.6852 43.7997C30.6616 43.7616 30.6742 43.7365 30.6817 43.7213L32.1305 40.824C32.4253 40.8997 32.7325 40.9407 33.0469 40.9407C33.1917 40.9407 33.338 40.9321 33.4852 40.9149L49.9517 38.9777C52.0785 38.7274 53.7896 37.1487 54.2096 35.0487L56.1792 25.1996C56.2463 24.8644 56.1636 24.5168 55.953 24.2476ZM50.02 46.1821C50.7552 46.1821 51.3531 46.7802 51.3531 47.5152C51.3531 48.2504 50.7552 48.8483 50.02 48.8483C49.2849 48.8483 48.6869 48.2504 48.6869 47.5152C48.6869 46.7801 49.2849 46.1821 50.02 46.1821ZM32.4849 46.1821C33.22 46.1821 33.818 46.7801 33.818 47.5152C33.818 48.2504 33.22 48.8483 32.4849 48.8483C31.7497 48.8483 31.1517 48.2504 31.1517 47.5152C31.1517 46.7801 31.7497 46.1821 32.4849 46.1821ZM29.6111 30.0605L28.1425 24.9207L32.8277 25.1337L33.64 30.0605H29.6111ZM33.2114 38.5872C32.558 38.6641 31.9541 38.2612 31.7738 37.6294L30.2808 32.4043H34.0264L35.011 38.3755L33.2114 38.5872ZM40.0806 37.7791L37.3413 38.1015L36.402 32.4044H40.0806V37.7791ZM40.0806 30.0605H36.0155L35.2211 25.2426L40.0806 25.4635V30.0605ZM46.0153 37.0808L42.4244 37.5033V32.4043H46.4386L46.0153 37.0808ZM46.6508 30.0605H42.4244V25.5699L47.0383 25.7796L46.6508 30.0605ZM51.9111 34.5893C51.6908 35.6905 50.7933 36.5188 49.6778 36.6501L48.3939 36.8012L48.7919 32.4044H52.348L51.9111 34.5893ZM52.8169 30.0605H49.0042L49.382 25.8862L53.6133 26.0785L52.8169 30.0605Z" fill="black"/>
</svg>
