<svg width="80" height="80" viewBox="0 0 80 80" fill="none" xmlns="http://www.w3.org/2000/svg">
<path d="M64.8192 41.1719H68.3033C68.8484 43.8695 71.2372 45.907 74.0931 45.907C77.3502 45.907 80 43.2572 80 40C80 36.7428 77.3502 34.093 74.093 34.093C71.237 34.093 68.8483 36.1305 68.3031 38.8281H64.8191C64.5405 32.8589 62.1467 27.4333 58.3706 23.2866L64.6462 17.0111C65.8816 17.9106 67.4005 18.4433 69.0422 18.4433C73.1697 18.4433 76.5275 15.0853 76.5275 10.9578C76.5275 6.83031 73.1697 3.4725 69.0422 3.4725C64.9147 3.4725 61.5569 6.83047 61.5569 10.9578C61.5569 12.5995 62.0894 14.1184 62.9891 15.3538L56.7134 21.6292C52.5667 17.8533 47.1411 15.4594 41.1719 15.1809V11.6969C43.8695 11.1517 45.907 8.76297 45.907 5.90703C45.907 2.64984 43.2572 0 40 0C36.7428 0 34.093 2.64984 34.093 5.90703C34.093 8.76297 36.1305 11.1517 38.8281 11.6969V15.1808C32.8589 15.4594 27.4333 17.8531 23.2866 21.6291L17.0114 15.3541C17.9111 14.1186 18.4438 12.5995 18.4438 10.9578C18.4438 8.46531 17.2092 6.14422 15.1414 4.74891C14.6045 4.38703 13.8762 4.52828 13.5145 5.06484C13.1525 5.60141 13.2939 6.32969 13.8303 6.69172C15.2516 7.65062 16.0998 9.24547 16.0998 10.9578C16.0998 13.7931 13.793 16.1 10.9577 16.1C8.12234 16.1 5.81563 13.7931 5.81563 10.9578C5.81563 8.66812 7.35234 6.63297 9.55266 6.00875C10.1753 5.83203 10.5369 5.18406 10.3602 4.56141C10.1834 3.93875 9.53516 3.57766 8.91297 3.75391C5.70922 4.66297 3.47187 7.62531 3.47187 10.9578C3.47187 15.0856 6.83 18.4438 10.9578 18.4438C12.5997 18.4438 14.1187 17.9111 15.3541 17.0114L21.6292 23.2864C17.8531 27.4331 15.4594 32.8587 15.1808 38.828H11.6969C11.1517 36.1303 8.76297 34.0928 5.90703 34.0928C2.64984 34.093 0 36.7428 0 40C0 43.2572 2.64984 45.907 5.90703 45.907C8.76297 45.907 11.1517 43.8695 11.6969 41.1719H15.1809C15.4595 47.1411 17.8533 52.5667 21.6294 56.7134L15.3538 62.9889C14.1184 62.0894 12.5995 61.5567 10.9578 61.5567C6.83031 61.5567 3.4725 64.9147 3.4725 69.0422C3.4725 73.1697 6.83031 76.5275 10.9578 76.5275C15.0853 76.5275 18.4431 73.1695 18.4431 69.0422C18.4431 67.4005 17.9106 65.8816 17.0109 64.6462L23.2866 58.3708C27.4333 62.1467 32.8589 64.5406 38.8281 64.8191V68.303C36.1305 68.8481 34.093 71.2369 34.093 74.0928C34.093 77.3502 36.7428 80 40 80C43.2572 80 45.907 77.3502 45.907 74.093C45.907 71.237 43.8695 68.8483 41.1719 68.3031V64.8192C47.1411 64.5406 52.5667 62.1469 56.7134 58.3709L62.9886 64.6459C62.0889 65.8814 61.5562 67.4005 61.5562 69.0422C61.5562 73.1698 64.9144 76.5281 69.0422 76.5281C73.17 76.5281 76.5281 73.17 76.5281 69.0422C76.5281 68.2319 76.3991 67.4339 76.1445 66.67C75.9397 66.0561 75.2758 65.7242 74.6623 65.9287C74.0483 66.1334 73.7164 66.797 73.9211 67.4111C74.0958 67.9353 74.1845 68.4842 74.1845 69.042C74.1845 71.8773 71.8777 74.1842 69.0423 74.1842C66.207 74.1842 63.9002 71.8775 63.9002 69.042C63.9002 66.2066 66.207 63.8998 69.0423 63.8998C69.6913 63.8998 70.3241 64.0192 70.9231 64.2547C71.5248 64.4914 72.2056 64.195 72.4425 63.5927C72.6792 62.9903 72.3828 62.3102 71.7805 62.0733C70.9072 61.7302 69.9861 61.5561 69.0425 61.5561C67.4006 61.5561 65.8816 62.0888 64.6462 62.9884L58.3711 56.7134C62.1467 52.5667 64.5406 47.1411 64.8192 41.1719ZM74.093 36.4367C76.0578 36.4367 77.6562 38.0352 77.6562 40C77.6562 41.9648 76.0578 43.5633 74.093 43.5633C72.1281 43.5633 70.5297 41.9648 70.5297 40C70.5297 38.0352 72.1283 36.4367 74.093 36.4367ZM69.0422 5.81625C71.8773 5.81625 74.1837 8.12281 74.1837 10.9578C74.1837 13.793 71.8772 16.0995 69.0422 16.0995C66.2072 16.0995 63.9006 13.793 63.9006 10.9578C63.9006 8.12266 66.2072 5.81625 69.0422 5.81625ZM36.4367 5.90703C36.4367 3.94219 38.0353 2.34375 40 2.34375C41.9647 2.34375 43.5633 3.94219 43.5633 5.90703C43.5633 7.87187 41.9647 9.47031 40 9.47031C38.0353 9.47031 36.4367 7.87172 36.4367 5.90703ZM5.90703 43.5633C3.94219 43.5633 2.34375 41.9648 2.34375 40C2.34375 38.0352 3.94219 36.4367 5.90703 36.4367C7.87187 36.4367 9.47016 38.0352 9.47016 40C9.47016 41.9648 7.87172 43.5633 5.90703 43.5633ZM40 17.4963C52.4086 17.4963 62.5037 27.5914 62.5037 40C62.5037 52.4086 52.4086 62.5037 40 62.5037C27.5914 62.5037 17.4963 52.4087 17.4963 40C17.4963 27.5912 27.5914 17.4963 40 17.4963ZM10.9578 74.1837C8.12266 74.1837 5.81625 71.8772 5.81625 69.0422C5.81625 66.207 8.12281 63.9005 10.9578 63.9005C13.7928 63.9005 16.0994 66.207 16.0994 69.0422C16.0994 71.8773 13.7928 74.1837 10.9578 74.1837ZM43.5633 74.093C43.5633 76.0578 41.9647 77.6562 40 77.6562C38.0353 77.6562 36.4367 76.0578 36.4367 74.093C36.4367 72.1281 38.0353 70.5297 40 70.5297C41.9647 70.5297 43.5633 72.1283 43.5633 74.093Z" fill="black"/>
<path d="M26.7424 54.4297H33.3603C33.3639 54.4297 33.3674 54.4302 33.371 54.4302C33.3746 54.4302 33.378 54.4297 33.3816 54.4297H37.2658C37.9132 54.4297 38.4377 53.905 38.4377 53.2579C38.4377 52.6107 37.9132 52.086 37.2658 52.086H34.5428V50.1016C34.5428 49.4544 34.0183 48.9297 33.371 48.9297C32.7236 48.9297 32.1991 49.4544 32.1991 50.1016V52.086H27.9142V46.3141C27.9142 43.4788 30.2203 41.1719 33.0547 41.1719H46.9453C49.7799 41.1719 52.0858 43.4788 52.0858 46.3141V52.086H47.801V50.1016C47.801 49.4544 47.2764 48.9297 46.6291 48.9297C45.9817 48.9297 45.4572 49.4544 45.4572 50.1016V52.086H42.7346C42.0872 52.086 41.5627 52.6107 41.5627 53.2579C41.5627 53.905 42.0872 54.4297 42.7346 54.4297H46.6188C46.6224 54.4297 46.6258 54.4302 46.6294 54.4302C46.633 54.4302 46.6364 54.4297 46.64 54.4297H53.258C53.9053 54.4297 54.4299 53.905 54.4299 53.2579V46.3141C54.4299 42.1863 51.0725 38.8282 46.9457 38.8282H46.0757C47.9097 37.1685 49.0641 34.7707 49.0641 32.1082C49.0641 27.1104 44.9982 23.0444 40.0003 23.0444C35.0025 23.0444 30.9366 27.1104 30.9366 32.1082C30.9366 34.7707 32.091 37.1685 33.925 38.8282H33.055C28.9281 38.8282 25.5708 42.1863 25.5708 46.3141V53.2579C25.5705 53.905 26.0952 54.4297 26.7424 54.4297ZM33.2802 32.1082C33.2802 28.4029 36.2947 25.3882 40.0002 25.3882C43.7057 25.3882 46.7202 28.4027 46.7202 32.1082C46.7202 35.8136 43.7057 38.8282 40.0002 38.8282C36.2947 38.8282 33.2802 35.8136 33.2802 32.1082Z" fill="black"/>
</svg>
