<svg width="80" height="80" viewBox="0 0 80 80" fill="none" xmlns="http://www.w3.org/2000/svg">
<path d="M70.6575 37.97L70.4425 37.575L77.09 30.9275C78.16 29.8575 78.75 28.4337 78.75 26.92C78.75 23.7937 76.2063 21.25 73.08 21.25C72.445 21.25 71.8337 21.3763 71.25 21.575V5C71.25 2.9325 69.5675 1.25 67.5 1.25H28.5363C27.535 1.25 26.5925 1.64 25.8838 2.34875L14.8487 13.3837C14.14 14.0912 13.75 15.0338 13.75 16.0363V18.8137C6.7525 19.4475 1.25 25.34 1.25 32.5V72.5C1.25 75.9463 4.05375 78.75 7.5 78.75H22.5C25.9463 78.75 28.75 75.9463 28.75 72.5V71.25H58.75H60H77.7262L74.9963 54.87C74.9738 48.9813 73.4775 43.14 70.6575 37.97ZM72.47 54.0537L60.2838 57.3775L57.345 55.0262C55.855 53.8325 55 52.0538 55 50.145V40V38.75C56.3787 38.75 57.5 39.8713 57.5 41.25V50H60V48.0175L68.5925 39.425C70.9963 43.925 72.3225 48.955 72.47 54.0537ZM55 36.25C53.6213 36.25 52.5 37.3713 52.5 38.75V40C52.5 40.6888 51.9388 41.25 51.25 41.25C50.5612 41.25 50 40.6888 50 40V38.75C50 35.9925 52.2425 33.75 55 33.75H58.2325L55.665 36.3175C55.445 36.2875 55.2275 36.25 55 36.25ZM41.3112 57.59L42.9563 53.475L46.525 57.0437L42.4087 58.69C41.88 58.905 41.25 58.4788 41.25 57.9038C41.25 57.795 41.27 57.69 41.3112 57.59ZM48.75 55.7325L44.2675 51.25L51.8262 43.6912C52.06 43.655 52.2837 43.5962 52.5 43.5187V50.1438C52.5 50.7113 52.565 51.2663 52.67 51.8113L48.75 55.7325ZM47.73 41.25H33.75V36.25H47.9375C47.66 37.0337 47.5 37.8725 47.5 38.75V40C47.5 40.44 47.59 40.8575 47.73 41.25ZM33.75 43.75H48.2325L43.2325 48.75H33.75V43.75ZM33.75 51.25H41.1538L39.1538 56.25H33.75V51.25ZM33.75 58.75H38.8725C39.25 60.1838 40.5463 61.25 42.0975 61.25C42.5263 61.25 42.945 61.17 43.34 61.0112L46.25 59.8462V63.75H33.75V58.75ZM48.75 58.8462L49.4525 58.565L53.615 54.4025C53.66 54.4837 53.7012 54.5662 53.75 54.6462V63.75H48.75V58.8462ZM56.25 57.35L58.75 59.35V63.75H56.25V57.35ZM76.25 26.92C76.25 27.7662 75.92 28.5625 75.3213 29.1613L60 44.4825V41.25C60 39.685 59.2625 38.3025 58.1325 37.385L70.8388 24.6787C71.4375 24.08 72.2337 23.75 73.08 23.75C74.8275 23.75 76.25 25.1725 76.25 26.92ZM26.25 5.5175V12.5C26.25 13.1888 25.6887 13.75 25 13.75H18.0175L26.25 5.5175ZM15 21.25C21.2025 21.25 26.25 26.2975 26.25 32.5C26.25 38.7025 21.2025 43.75 15 43.75C8.7975 43.75 3.75 38.7025 3.75 32.5C3.75 26.2975 8.7975 21.25 15 21.25ZM8.75 44.7325C10.6275 45.695 12.7487 46.25 15 46.25C17.2512 46.25 19.3725 45.695 21.25 44.7325V51.25H8.75V44.7325ZM22.5 76.25H7.5C5.4325 76.25 3.75 74.5675 3.75 72.5V40.3812C4.46125 41.3937 5.29875 42.3112 6.25 43.0988V51.25C6.25 52.6287 7.37125 53.75 8.75 53.75H21.25C22.6287 53.75 23.75 52.6287 23.75 51.25V43.0988C24.7013 42.3112 25.5387 41.3937 26.25 40.3812V72.5C26.25 74.5675 24.5675 76.25 22.5 76.25ZM28.75 68.75V32.5C28.75 25.34 23.2475 19.4475 16.25 18.8137V16.25H25C27.0675 16.25 28.75 14.5675 28.75 12.5V3.75H67.5C68.1888 3.75 68.75 4.31125 68.75 5V23.2325L60.7325 31.25H55C52.7863 31.25 50.8 32.22 49.425 33.75H31.25V66.25H58.75V68.75H28.75ZM61.25 68.75V59.705L72.7438 56.57L74.7738 68.75H61.25Z" fill="black"/>
<path d="M13.75 38.5687V41.25H16.25V38.5687C17.6937 38.1112 18.75 36.775 18.75 35.1825C18.75 33.8237 17.995 32.6 16.7775 31.9913L14.34 30.7737C13.9763 30.5912 13.75 30.225 13.75 29.8175C13.75 29.2288 14.2288 28.75 14.8175 28.75H15.1825C15.7712 28.75 16.25 29.2288 16.25 29.8175V31.25H18.75V29.8175C18.75 28.225 17.6937 26.8888 16.25 26.4313V23.75H13.75V26.4313C12.3063 26.8888 11.25 28.225 11.25 29.8175C11.25 31.1762 12.005 32.4 13.2225 33.0087L15.66 34.2263C16.0237 34.4088 16.25 34.775 16.25 35.1825C16.25 35.7712 15.7712 36.25 15.1825 36.25H14.8175C14.2288 36.25 13.75 35.7712 13.75 35.1825V33.75H11.25V35.1825C11.25 36.775 12.3063 38.1112 13.75 38.5687Z" fill="black"/>
<path d="M21.25 56.25H8.75C7.37125 56.25 6.25 57.3712 6.25 58.75V71.25C6.25 72.6287 7.37125 73.75 8.75 73.75H21.25C22.6287 73.75 23.75 72.6287 23.75 71.25V58.75C23.75 57.3712 22.6287 56.25 21.25 56.25ZM21.25 61.25H18.75V58.75H21.25V61.25ZM16.25 71.25H13.75V68.75H16.25V71.25ZM16.25 66.25H13.75V63.75H16.25V66.25ZM11.25 66.25H8.75V63.75H11.25V66.25ZM13.75 61.25V58.75H16.25V61.25H13.75ZM11.25 58.75V61.25H8.75V58.75H11.25ZM8.75 68.75H11.25V71.25H8.75V68.75ZM18.75 71.25V63.75H21.2512L21.2525 71.25H18.75Z" fill="black"/>
<path d="M66.25 6.25H31.25V13.75H66.25V6.25ZM63.75 11.25H33.75V8.75H63.75V11.25Z" fill="black"/>
<path d="M31.25 16.25H66.25V18.75H31.25V16.25Z" fill="black"/>
<path d="M31.25 21.25H66.25V23.75H31.25V21.25Z" fill="black"/>
<path d="M31.25 26.25H51.25V28.75H31.25V26.25Z" fill="black"/>
</svg>
