<svg width="80" height="80" viewBox="0 0 80 80" fill="none" xmlns="http://www.w3.org/2000/svg">
<path d="M11.25 61.48V45H8.75V61.48C7.29875 61.9975 6.25 63.3725 6.25 65C6.25 67.0675 7.9325 68.75 10 68.75C12.0675 68.75 13.75 67.0675 13.75 65C13.75 63.3725 12.7013 61.9975 11.25 61.48ZM10 66.25C9.31 66.25 8.75 65.69 8.75 65C8.75 64.31 9.31 63.75 10 63.75C10.69 63.75 11.25 64.31 11.25 65C11.25 65.69 10.69 66.25 10 66.25Z" fill="black"/>
<path d="M17.5 45C15.4325 45 13.75 46.6825 13.75 48.75C13.75 50.3775 14.7987 51.7525 16.25 52.27V68.75H18.75V52.27C20.2013 51.7525 21.25 50.3775 21.25 48.75C21.25 46.6825 19.5675 45 17.5 45ZM17.5 50C16.81 50 16.25 49.44 16.25 48.75C16.25 48.06 16.81 47.5 17.5 47.5C18.19 47.5 18.75 48.06 18.75 48.75C18.75 49.44 18.19 50 17.5 50Z" fill="black"/>
<path d="M66.25 61.48V45H63.75V61.48C62.2987 61.9975 61.25 63.3725 61.25 65C61.25 67.0675 62.9325 68.75 65 68.75C67.0675 68.75 68.75 67.0675 68.75 65C68.75 63.3725 67.7013 61.9975 66.25 61.48ZM65 66.25C64.31 66.25 63.75 65.69 63.75 65C63.75 64.31 64.31 63.75 65 63.75C65.69 63.75 66.25 64.31 66.25 65C66.25 65.69 65.69 66.25 65 66.25Z" fill="black"/>
<path d="M72.5 45C70.4325 45 68.75 46.6825 68.75 48.75C68.75 50.3775 69.7987 51.7525 71.25 52.27V68.75H73.75V52.27C75.2013 51.7525 76.25 50.3775 76.25 48.75C76.25 46.6825 74.5675 45 72.5 45ZM72.5 50C71.81 50 71.25 49.44 71.25 48.75C71.25 48.06 71.81 47.5 72.5 47.5C73.19 47.5 73.75 48.06 73.75 48.75C73.75 49.44 73.19 50 72.5 50Z" fill="black"/>
<path d="M55 41.25C54.5062 41.25 54.0375 41.3512 53.605 41.525C53.1737 39.9313 51.7287 38.75 50 38.75C49.0363 38.75 48.165 39.1263 47.5 39.725C46.835 39.125 45.9637 38.75 45 38.75C44.56 38.75 44.1425 38.84 43.75 38.98V28.2238C48.9475 26.7513 52.7937 22.3188 53.5875 17.025L58.8725 19.9325C55.7738 22.2087 53.75 25.8687 53.75 30C53.75 36.8925 59.3575 42.5 66.25 42.5C73.1425 42.5 78.75 36.8925 78.75 30C78.75 23.1075 73.1425 17.5 66.25 17.5C64.5363 17.5 62.9013 17.8475 61.4125 18.475L53.7113 14.2387C53.3138 7.0125 47.325 1.25 40 1.25C32.675 1.25 26.6863 7.0125 26.2887 14.24L18.5875 18.475C17.0988 17.8475 15.465 17.5 13.75 17.5C6.8575 17.5 1.25 23.1075 1.25 30C1.25 36.8925 6.8575 42.5 13.75 42.5C20.6425 42.5 26.25 36.8925 26.25 30C26.25 25.8675 24.2262 22.2087 21.1262 19.9312L26.4125 17.0238C27.2062 22.3225 31.05 26.7525 36.2513 28.225V51.2663C36.2513 51.835 36.12 52.405 35.8688 52.915L34.82 47.6725C34.0688 43.92 30.7463 41.1963 26.92 41.1963C25.1737 41.1963 23.7512 42.6188 23.7512 44.365C23.7512 44.9925 23.935 45.6 24.2838 46.1225L25.57 48.0525C26.0462 48.7663 26.3537 49.5938 26.46 50.445L27.325 57.3613C27.4675 58.515 27.8325 59.6113 28.3713 60.545L32.5 69.0375V71.25H30V78.75H57.5V71.25H55V69.1663L57 66.5C58.1287 64.9963 58.75 63.1325 58.75 61.25V45C58.75 42.9325 57.0675 41.25 55 41.25ZM66.25 40C64.0013 40 61.9313 39.245 60.26 37.9888C61.6663 36.1238 63.8787 35 66.25 35C68.6212 35 70.8337 36.1238 72.24 37.9888C70.5687 39.245 68.4987 40 66.25 40ZM62.5 28.75C62.5 26.6825 64.1825 25 66.25 25C68.3175 25 70 26.6825 70 28.75C70 30.8175 68.3175 32.5 66.25 32.5C64.1825 32.5 62.5 30.8175 62.5 28.75ZM66.25 20C71.7637 20 76.25 24.4862 76.25 30C76.25 32.3662 75.42 34.5412 74.04 36.255C73.05 35.0225 71.795 34.0513 70.3763 33.4075C71.6687 32.2612 72.5 30.6087 72.5 28.75C72.5 25.3037 69.6963 22.5 66.25 22.5C62.8037 22.5 60 25.3037 60 28.75C60 30.6087 60.8313 32.2612 62.1238 33.4075C60.705 34.0525 59.45 35.0225 58.46 36.255C57.08 34.5412 56.25 32.3662 56.25 30C56.25 24.4862 60.7363 20 66.25 20ZM13.75 40C11.5013 40 9.43125 39.245 7.76 37.9888C9.16625 36.1238 11.3787 35 13.75 35C16.1213 35 18.3337 36.1238 19.74 37.9888C18.0688 39.245 15.9987 40 13.75 40ZM10 28.75C10 26.6825 11.6825 25 13.75 25C15.8175 25 17.5 26.6825 17.5 28.75C17.5 30.8175 15.8175 32.5 13.75 32.5C11.6825 32.5 10 30.8175 10 28.75ZM23.75 30C23.75 32.3662 22.92 34.5412 21.54 36.255C20.55 35.0225 19.295 34.0513 17.8762 33.4075C19.1687 32.2612 20 30.6087 20 28.75C20 25.3037 17.1962 22.5 13.75 22.5C10.3038 22.5 7.5 25.3037 7.5 28.75C7.5 30.6087 8.33125 32.2612 9.62375 33.4075C8.205 34.0525 6.95 35.0225 5.96 36.255C4.58 34.5412 3.75 32.3662 3.75 30C3.75 24.4862 8.23625 20 13.75 20C19.2638 20 23.75 24.4862 23.75 30ZM28.75 15C28.75 8.79625 33.7962 3.75 40 3.75C46.2038 3.75 51.25 8.79625 51.25 15C51.25 17.5212 50.3937 19.8837 48.9475 21.79C47.9188 19.7162 46.215 18.0837 44.1425 17.1438C45.425 15.9987 46.25 14.3512 46.25 12.5C46.25 9.05375 43.4463 6.25 40 6.25C36.5537 6.25 33.75 9.05375 33.75 12.5C33.75 14.3512 34.575 15.9987 35.8575 17.1438C33.7838 18.0837 32.08 19.7175 31.0513 21.7913C29.605 19.8863 28.75 17.5238 28.75 15ZM43.75 12.5C43.75 14.5675 42.0675 16.25 40 16.25C37.9325 16.25 36.25 14.5675 36.25 12.5C36.25 10.4325 37.9325 8.75 40 8.75C42.0675 8.75 43.75 10.4325 43.75 12.5ZM32.9525 23.7537C34 20.78 36.785 18.75 40 18.75C43.2125 18.75 45.9975 20.78 47.0475 23.7512C45.9525 24.6375 44.69 25.3288 43.3 25.755C42.6688 24.5688 41.435 23.75 40 23.75C38.565 23.75 37.3312 24.5688 36.7012 25.755C35.31 25.3288 34.0475 24.6388 32.9525 23.7537ZM55 76.25H32.5V73.75H55V76.25ZM56.25 61.25C56.25 62.5938 55.8063 63.9263 55 65L52.5 68.3337V71.25H35V68.4625L30.58 59.3787C30.1675 58.66 29.9075 57.8787 29.805 57.055L28.94 50.1375C28.7863 48.9038 28.3413 47.7038 27.65 46.6687L26.3625 44.7375C26.2887 44.6275 26.25 44.4988 26.25 44.365C26.25 43.9963 26.55 43.6975 26.9188 43.6975C29.5575 43.6975 31.8487 45.5762 32.3675 48.1637L33.975 56.1975H37.0225L38.09 54.0612C38.5213 53.1987 38.75 52.2313 38.75 51.2675V27.5C38.75 26.81 39.31 26.25 40 26.25C40.69 26.25 41.25 26.81 41.25 27.5V42.5V47.5H43.75V42.5C43.75 41.81 44.31 41.25 45 41.25C45.69 41.25 46.25 41.81 46.25 42.5V47.5H48.75V42.5C48.75 41.81 49.31 41.25 50 41.25C50.69 41.25 51.25 41.81 51.25 42.5V45V47.5H53.75V45C53.75 44.31 54.31 43.75 55 43.75C55.69 43.75 56.25 44.31 56.25 45V61.25Z" fill="black"/>
</svg>
