<svg width="80" height="80" viewBox="0 0 80 80" fill="none" xmlns="http://www.w3.org/2000/svg">
<path d="M66.0287 18.5129C67.4834 12.8844 66.8451 8.50848 64.1682 5.83161C62.1978 3.86114 59.3367 2.99583 55.6634 3.2577C52.4123 3.4902 48.6709 4.60036 44.5403 6.55317C43.0352 6.35158 41.5184 6.25026 39.9999 6.24989C31.0489 6.24989 22.4644 9.80568 16.1351 16.135C9.80573 22.4644 6.24994 31.0488 6.24994 39.9999C6.25031 41.5184 6.35162 43.0352 6.55322 44.5402C4.60009 48.6708 3.49072 52.4122 3.25775 55.6633C2.99525 59.3362 3.86119 62.1977 5.83166 64.1682C7.57431 65.9108 10.0368 66.7899 13.0973 66.7899C14.9271 66.7637 16.7464 66.5077 18.5124 66.0279C24.9869 71.3726 33.221 74.1125 41.607 73.7127C49.9931 73.3129 57.9291 69.802 63.8657 63.8655C69.8024 57.929 73.3134 49.9931 73.7135 41.607C74.1135 33.221 71.3738 24.9869 66.0292 18.5122L66.0287 18.5129ZM55.8412 5.75145C58.7582 5.54317 60.9651 6.16458 62.3999 7.59942C63.6812 8.88067 64.891 11.3963 63.9768 16.2504C63.939 16.2121 63.9023 16.1732 63.8643 16.135C59.7173 11.9687 54.5486 8.9649 48.8756 7.42442C51.4282 6.46864 53.7928 5.89786 55.8417 5.75145H55.8412ZM34.7318 9.1963L33.7796 13.4786C33.7125 13.7805 33.7597 14.0966 33.9121 14.3657C34.0645 14.6348 34.3112 14.8379 34.6046 14.9357L41.5117 17.2382L42.5642 20.3944C42.652 20.6581 42.8253 20.8849 43.0565 21.0391L46.0737 23.0505L45.1488 26.7499L37.4754 32.231L34.4723 30.2288L29.4999 26.4999C29.2592 26.3193 28.9615 26.2317 28.6613 26.253C28.3612 26.2743 28.0788 26.4032 27.866 26.616L24.116 30.366C24 30.4821 23.9079 30.6199 23.8451 30.7715C23.7823 30.9232 23.7499 31.0857 23.7499 31.2499V36.9821L21.7968 38.9352L15.7851 41.3399C15.5503 41.4338 15.3496 41.5967 15.2093 41.8071L12.7093 45.5571C12.5727 45.7623 12.4998 46.0034 12.4999 46.2499V51.8749L11.4374 52.6718C9.66122 48.6836 8.74548 44.3658 8.74994 39.9999C8.74994 24.564 19.9999 11.708 34.7317 9.1963H34.7318ZM7.59947 62.4004C6.16462 60.9657 5.54291 58.759 5.7515 55.8416C5.89791 53.7927 6.46869 51.4282 7.42447 48.876C8.96495 54.549 11.9687 59.7178 16.1351 63.8647C16.1732 63.9029 16.2123 63.9396 16.2506 63.9774C11.3962 64.8913 8.88087 63.6816 7.59947 62.4004ZM23.4218 59.1283L21.5023 56.2499L23.471 53.2968L25.7401 51.0277L29.9098 48.9427L33.0562 51.0404C33.2616 51.1772 33.5031 51.2502 33.7499 51.2499H35.7323L37.4034 52.9218C33.3771 56.1026 29.3163 58.7343 25.4688 60.6649L23.4218 59.1283ZM39.1815 54.6986L40.3667 55.8838C40.5194 56.0364 40.7091 56.1468 40.9172 56.2043C41.1253 56.2618 41.3447 56.2644 41.5542 56.2119L45.4312 55.2432L46.1823 57.4999L45.2617 60.2616L42.1054 61.3141C41.8564 61.3969 41.6398 61.5561 41.4862 61.7689C41.3327 61.9817 41.25 62.2375 41.2499 62.4999V65.581L38.0565 67.7099C37.7979 67.8823 37.6128 68.1449 37.5373 68.4465L36.8749 71.0937C35.2952 70.9365 33.7298 70.6585 32.1926 70.2621L31.2376 63.5727C31.1949 63.2749 31.0463 63.0024 30.819 62.8054C30.5916 62.6083 30.3008 62.4998 29.9999 62.4999H27.9167L27.6871 62.328C31.4312 60.3437 35.3301 57.7586 39.1809 54.6986H39.1815ZM26.7499 64.7499C26.9663 64.9122 27.2295 64.9999 27.4999 64.9999H28.9157L29.5512 69.4512C26.6479 68.4169 23.9138 66.9584 21.4379 65.123C22.6567 64.6868 23.9055 64.1708 25.1843 63.5751L26.7499 64.7499ZM39.4148 71.2424L39.8452 69.5219L43.1934 67.2899C43.3646 67.1758 43.505 67.0211 43.602 66.8397C43.6991 66.6583 43.7499 66.4557 43.7499 66.2499V63.4008L46.6453 62.4357C46.8293 62.3743 46.9966 62.2709 47.1338 62.1337C47.271 61.9965 47.3743 61.8293 47.4357 61.6452L48.6857 57.8952C48.7714 57.6386 48.7714 57.3612 48.6857 57.1046L47.4357 53.3546C47.3361 53.0559 47.1274 52.8057 46.8514 52.6542C46.5754 52.5027 46.2523 52.4609 45.9468 52.5372L41.6334 53.6154L41.1263 53.1083C42.293 52.1277 43.4507 51.1069 44.5993 50.0458L42.9006 48.2115C41.7288 49.2966 40.546 50.3378 39.3523 51.3351L37.1335 49.1163C36.8992 48.8818 36.5814 48.7501 36.2499 48.7499H34.1284L30.6934 46.4599C30.51 46.3376 30.2976 46.266 30.0776 46.2523C29.8577 46.2385 29.638 46.2832 29.4409 46.3818L24.4409 48.8818C24.3207 48.9419 24.211 49.021 24.116 49.1161L21.616 51.6161C21.5578 51.6744 21.5055 51.7382 21.4598 51.8066L18.9598 55.5566C18.8229 55.762 18.7498 56.0033 18.7498 56.2501C18.7498 56.4969 18.8229 56.7381 18.9598 56.9435L21.4598 60.6935C21.5385 60.8113 21.6366 60.9149 21.7499 60.9999L22.8999 61.8624C21.6747 62.3932 20.4218 62.8574 19.1465 63.253C16.4992 60.8778 14.2738 58.0707 12.5652 54.9513L14.4999 53.4999C14.6552 53.3835 14.7812 53.2325 14.868 53.0589C14.9548 52.8853 14.9999 52.694 14.9999 52.4999V46.6283L17.0746 43.5163L22.9642 41.1605C23.1213 41.0976 23.2641 41.0035 23.3838 40.8838L25.8838 38.3838C25.9999 38.2677 26.092 38.1299 26.1548 37.9783C26.2176 37.8266 26.2499 37.6641 26.2499 37.4999V31.7676L28.8671 29.1504L32.9999 32.2499C33.0184 32.2637 33.0372 32.2771 33.0565 32.2899L36.8065 34.7899C37.0175 34.9306 37.2664 35.0038 37.5201 34.9997C37.7737 34.9957 38.0201 34.9145 38.2265 34.7671L46.9765 28.5171C47.2182 28.3444 47.3906 28.0912 47.4626 27.803L48.7126 22.803C48.7752 22.5528 48.759 22.2894 48.666 22.0488C48.5731 21.8083 48.408 21.6023 48.1934 21.4593L44.8002 19.1971L43.6857 15.8533C43.6243 15.6693 43.521 15.502 43.3838 15.3648C43.2466 15.2276 43.0793 15.1242 42.8952 15.0629L36.4648 12.9205L37.367 8.86192C38.2354 8.78911 39.1131 8.74989 39.9999 8.74989C44.3892 8.74841 48.7294 9.67371 52.7364 11.4652C56.7434 13.2568 60.327 15.8741 63.2528 19.1461C62.2909 22.29 60.7007 25.721 58.5184 29.3566L60.6618 30.6432C62.5963 27.4197 64.0903 24.3344 65.1237 21.4385C68.1327 25.4928 70.1092 30.2188 70.8823 35.2082L66.8459 37.6844C66.5669 37.8556 66.3662 38.1293 66.2868 38.4468L63.9531 47.7811L57.1046 50.0641C56.8558 50.1471 56.6393 50.3062 56.4859 50.5191C56.3325 50.7319 56.25 50.9876 56.2499 51.2499V58.2321L54.116 60.366C53.9221 60.5599 53.7974 60.8122 53.761 61.084C53.7246 61.3558 53.7786 61.632 53.9146 61.8701L56.5553 66.4921C51.5957 69.607 45.8566 71.2564 39.9999 71.2499C39.8043 71.2499 39.6093 71.246 39.4148 71.2424ZM58.6262 65.0768L56.559 61.4586L58.3838 59.6338C58.4999 59.5177 58.592 59.3799 58.6548 59.2283C58.7176 59.0766 58.7499 58.9141 58.7499 58.7499V52.1508L65.3953 49.9357C65.5947 49.8692 65.7742 49.7534 65.9171 49.5991C66.06 49.4449 66.1616 49.257 66.2126 49.053L68.5888 39.5483L71.1815 37.9579C71.2253 38.6332 71.2499 39.3136 71.2499 39.9999C71.2496 44.8751 70.1076 49.6826 67.9155 54.0372C65.7234 58.3918 62.542 62.1726 58.6262 65.0768Z" fill="black"/>
<path d="M62.5 44.9999V34.9999C62.5 34.7283 62.4116 34.4641 62.2481 34.2472C62.0846 34.0304 61.8549 33.8727 61.5938 33.798L52.8438 31.298C52.6191 31.2337 52.3809 31.2337 52.1562 31.298L43.4062 33.798C43.1451 33.8727 42.9154 34.0304 42.7519 34.2472C42.5884 34.4641 42.5 34.7283 42.5 34.9999V44.9999C42.5 45.2715 42.5884 45.5357 42.7519 45.7525C42.9154 45.9694 43.1451 46.1271 43.4062 46.2018L52.1562 48.7017C52.3809 48.766 52.6191 48.766 52.8438 48.7017L61.5938 46.2018C61.8549 46.1271 62.0846 45.9694 62.2481 45.7525C62.4116 45.5357 62.5 45.2715 62.5 44.9999ZM52.5 33.7999L56.6998 34.9999L52.5 36.1999L48.3002 34.9999L52.5 33.7999ZM45 36.6571L51.25 38.4428V45.8427L45 44.0571V36.6571ZM53.75 45.8427V38.4428L60 36.6571V44.0571L53.75 45.8427Z" fill="black"/>
<path d="M38.75 23.75H41.25V26.25H38.75V23.75Z" fill="black"/>
<path d="M22.5 18.75H25V21.25H22.5V18.75Z" fill="black"/>
<path d="M16.25 33.75H18.75V36.25H16.25V33.75Z" fill="black"/>
<path d="M27.5 52.5H30V55H27.5V52.5Z" fill="black"/>
<path d="M35 61.25H37.5V63.75H35V61.25Z" fill="black"/>
<path d="M61.25 53.75H63.75V56.25H61.25V53.75Z" fill="black"/>
</svg>
