<svg width="80" height="80" viewBox="0 0 80 80" fill="none" xmlns="http://www.w3.org/2000/svg">
<path d="M64.9076 48.9736C65.3134 48.1424 65.5515 47.2394 65.6083 46.3162C65.6651 45.393 65.5395 44.4676 65.2387 43.5929C64.9378 42.7182 64.4677 41.9114 63.855 41.2184C63.2424 40.5254 62.4993 39.9599 61.6681 39.5541C60.8368 39.1483 59.9339 38.9102 59.0106 38.8534C58.0874 38.7966 57.162 38.9222 56.2874 39.223C55.4127 39.5238 54.6058 39.994 53.9128 40.6066C53.2198 41.2193 52.6543 41.9624 52.2485 42.7936L45.8932 55.8125C45.4874 56.6437 45.2493 57.5467 45.1925 58.4699C45.1357 59.3932 45.2613 60.3185 45.5621 61.1932C45.8629 62.0679 46.3331 62.8748 46.9457 63.5678C47.5584 64.2607 48.3015 64.8263 49.1327 65.232C50.8115 66.0511 52.7469 66.1698 54.5133 65.5623C56.2796 64.9548 57.7324 63.6706 58.5523 61.9922L64.9076 48.9736ZM53.9334 43.6163C54.2306 43.0055 54.6454 42.4593 55.1539 42.009C55.6624 41.5586 56.2547 41.2129 56.8969 40.9916C57.5391 40.7703 58.2186 40.6777 58.8966 40.7192C59.5746 40.7608 60.2377 40.9355 60.8482 41.2335C61.4586 41.5315 62.0043 41.9469 62.454 42.4559C62.9038 42.9649 63.2488 43.5576 63.4693 44.2001C63.6899 44.8426 63.7816 45.5222 63.7393 46.2001C63.697 46.8781 63.5215 47.541 63.2227 48.1511L60.4571 53.818L51.167 49.2831L53.9334 43.6163ZM56.8674 61.1697C56.2648 62.4004 55.1987 63.3418 53.9028 63.7875C52.607 64.2331 51.1873 64.1466 49.9552 63.5469C48.7234 62.9456 47.7809 61.8795 47.3351 60.5832C46.8892 59.287 46.9766 57.8667 47.5779 56.6349L50.3445 50.9688L59.6338 55.5036L56.8674 61.1697Z" fill="black"/>
<path d="M57.2925 41.8282C56.6389 42.0509 56.036 42.4011 55.5186 42.8585C55.0012 43.3159 54.5797 43.8713 54.2785 44.4927L53.1133 46.8795C53.0041 47.103 52.9881 47.3606 53.0689 47.5958C53.1496 47.8311 53.3205 48.0245 53.544 48.1338C53.7674 48.243 54.025 48.259 54.2602 48.1782C54.4955 48.0975 54.689 47.9266 54.7982 47.7031L55.9633 45.3164C56.1571 44.9167 56.4283 44.5594 56.7611 44.2651C57.0939 43.9709 57.4818 43.7455 57.9022 43.6022C58.0205 43.5636 58.1298 43.5019 58.224 43.4207C58.3181 43.3395 58.3952 43.2403 58.4506 43.129C58.5061 43.0177 58.5388 42.8965 58.547 42.7724C58.5551 42.6483 58.5385 42.5238 58.4981 42.4062C58.4577 42.2886 58.3942 42.1802 58.3115 42.0874C58.2288 41.9945 58.1285 41.919 58.0163 41.8653C57.9041 41.8116 57.7824 41.7808 57.6582 41.7746C57.534 41.7684 57.4098 41.787 57.2929 41.8292L57.2925 41.8282Z" fill="black"/>
<path d="M74.4019 48.5047C72.7232 47.6852 70.7877 47.5662 69.0212 48.1737C67.2547 48.7813 65.8019 50.0658 64.9824 51.7445L58.6269 64.7631C57.8114 66.4413 57.695 68.3746 58.3034 70.1385C58.9118 71.9024 60.1953 73.3529 61.8721 74.1714C63.5488 74.99 65.4819 75.1098 67.2469 74.5045C69.0119 73.8993 70.4646 72.6184 71.2861 70.9431L77.6415 57.9244C78.0473 57.0931 78.2854 56.1901 78.3422 55.2669C78.399 54.3437 78.2734 53.4183 77.9726 52.5436C77.6718 51.6689 77.2016 50.862 76.589 50.169C75.9763 49.476 75.2331 48.9105 74.4019 48.5047ZM69.6013 70.1204C68.9999 71.3523 67.9339 72.2948 66.6376 72.7407C65.3413 73.1865 63.921 73.0992 62.6891 72.4978C61.4573 71.8964 60.5147 70.8304 60.0689 69.5341C59.623 68.2378 59.7104 66.8175 60.3118 65.5856L63.0774 59.9187L72.3677 64.4531L69.6013 70.1204ZM75.9566 57.1019L73.191 62.7687L63.9008 58.2344L66.6665 52.5675C66.9637 51.9567 67.3785 51.4105 67.887 50.9602C68.3955 50.5098 68.9878 50.1641 69.63 49.9428C70.2722 49.7215 70.9517 49.629 71.6297 49.6705C72.3077 49.712 72.9708 49.8867 73.5813 50.1847C74.1917 50.4827 74.7374 50.8981 75.1871 51.4071C75.6369 51.9162 75.9819 52.5089 76.2024 53.1513C76.423 53.7938 76.5147 54.4734 76.4724 55.1514C76.4301 55.8293 76.2545 56.4923 75.9558 57.1023L75.9566 57.1019Z" fill="black"/>
<path d="M70.0263 50.779C69.3726 51.0018 68.7696 51.352 68.2522 51.8095C67.7349 52.2669 67.3134 52.8224 67.0122 53.4439L65.8471 55.8305C65.7893 55.9414 65.7544 56.0629 65.7443 56.1876C65.7342 56.3123 65.7491 56.4378 65.7883 56.5566C65.8275 56.6754 65.89 56.7852 65.9723 56.8795C66.0545 56.9738 66.1548 57.0507 66.2672 57.1056C66.3797 57.1605 66.502 57.1923 66.6269 57.1993C66.7518 57.2062 66.8769 57.188 66.9947 57.1458C67.1125 57.1037 67.2206 57.0384 67.3128 56.9537C67.4049 56.8691 67.4792 56.7669 67.5313 56.6531L68.6966 54.2662C68.8903 53.8665 69.1614 53.5092 69.4942 53.215C69.827 52.9207 70.2149 52.6955 70.6353 52.5522C70.7529 52.513 70.8614 52.451 70.9548 52.3696C71.0482 52.2883 71.1246 52.1892 71.1795 52.0782C71.2344 51.9671 71.2667 51.8463 71.2746 51.7227C71.2825 51.5991 71.2659 51.4752 71.2256 51.358C71.1854 51.2409 71.1223 51.1329 71.0401 51.0403C70.9578 50.9476 70.8581 50.8722 70.7465 50.8184C70.635 50.7646 70.5139 50.7334 70.3902 50.7266C70.2665 50.7199 70.1427 50.7377 70.026 50.779H70.0263Z" fill="black"/>
<path d="M35.1432 21.0067C36.0915 20.9011 36.9677 20.4499 37.6045 19.7393C38.2412 19.0287 38.5939 18.1085 38.5951 17.1543V8.01791C38.594 6.99019 38.1851 6.00491 37.4584 5.27826C36.7316 4.55162 35.7463 4.14296 34.7185 4.14197H8.04668C7.01923 4.14337 6.03429 4.55221 5.30786 5.27881C4.58144 6.00542 4.17284 6.99046 4.17168 8.01791V17.1543C4.17284 18.1818 4.58144 19.1668 5.30786 19.8934C6.03429 20.62 7.01923 21.0288 8.04668 21.0302H8.59808C7.75742 21.5555 6.96247 22.1505 6.22168 22.8092C3.38934 25.3284 1.72059 28.4185 1.64355 31.2857V31.311V70.6548C1.64355 73.2329 4.19043 75.8579 6.68918 75.8579H36.7095C37.9367 75.8579 39.0845 75.2345 39.9439 74.1026C40.6954 73.1087 41.1089 71.9003 41.1235 70.6543V31.3106C41.1231 27.314 38.3435 23.2759 35.1432 21.0067ZM33.381 6.01697H34.7185C35.2492 6.01738 35.7579 6.22831 36.1332 6.60345C36.5084 6.97859 36.7195 7.48729 36.7201 8.01791V17.1543C36.7195 17.6849 36.5084 18.1936 36.1332 18.5688C35.7579 18.9439 35.2492 19.1548 34.7185 19.1553H33.381V6.01697ZM27.8507 6.01697H31.506V19.1553H27.8507V6.01697ZM22.1632 6.01697H25.9757V19.1553H22.1632V6.01697ZM16.7911 6.01697H20.2882V19.1553H16.7904L16.7911 6.01697ZM11.1036 6.01697H14.9161V19.1553H11.1036V6.01697ZM8.04668 19.1553C7.51634 19.1544 7.00797 18.9433 6.63305 18.5682C6.25813 18.1931 6.04726 17.6847 6.04668 17.1543V8.01791C6.04726 7.48756 6.25813 6.9791 6.63305 6.604C7.00797 6.2289 7.51634 6.01779 8.04668 6.01697H9.22699V19.1553H8.04668ZM39.2481 61.3074H13.2073V37.2696H39.2481V61.3074ZM39.2481 35.3946H12.2698C12.0212 35.3946 11.7827 35.4934 11.6069 35.6692C11.4311 35.845 11.3323 36.0835 11.3323 36.3321V62.2449C11.3323 62.4936 11.4311 62.732 11.6069 62.9079C11.7827 63.0837 12.0212 63.1824 12.2698 63.1824H39.2481V70.6543C39.2481 72.1618 38.1157 73.9824 36.7095 73.9824H6.68871C5.23668 73.9824 3.51809 72.1781 3.51809 70.6543V31.3243C3.58621 28.9751 5.02527 26.3829 7.46808 24.2101C9.60637 22.3081 12.2211 21.0302 13.9743 21.0302H30.2462C33.5523 21.0302 39.2481 26.1104 39.2481 31.3115V35.3946Z" fill="black"/>
<path d="M18.4812 52.9122H23.232V57.6622C23.2323 57.9945 23.3644 58.3132 23.5994 58.5481C23.8344 58.7831 24.1531 58.9153 24.4854 58.9156H28.4355C28.7679 58.9153 29.0865 58.7831 29.3216 58.5482C29.5566 58.3132 29.6888 57.9945 29.6891 57.6622V52.9122H34.4391C34.7715 52.9118 35.0901 52.7796 35.3252 52.5446C35.5602 52.3096 35.6924 51.991 35.6927 51.6586V47.7084C35.6923 47.3761 35.5601 47.0575 35.3251 46.8225C35.0901 46.5876 34.7715 46.4554 34.4391 46.455H29.6891V41.705C29.6888 41.3726 29.5566 41.054 29.3216 40.819C29.0865 40.584 28.7679 40.4518 28.4355 40.4514H24.4854C24.153 40.4518 23.8344 40.584 23.5994 40.819C23.3644 41.054 23.2323 41.3727 23.232 41.705V46.455H18.482C18.1496 46.4554 17.831 46.5876 17.596 46.8225C17.3611 47.0575 17.2289 47.3761 17.2285 47.7084V51.6586C17.2288 51.9908 17.3609 52.3093 17.5957 52.5443C17.8305 52.7793 18.149 52.9116 18.4812 52.9122ZM19.1027 48.33H23.8527C24.1851 48.3296 24.5037 48.1975 24.7387 47.9625C24.9737 47.7275 25.1059 47.4089 25.1063 47.0766V42.3258H27.8135V47.0766C27.8139 47.4089 27.9461 47.7275 28.1811 47.9625C28.416 48.1975 28.7346 48.3296 29.067 48.33H33.8177V51.0372H29.0677C28.7354 51.0375 28.4168 51.1697 28.1818 51.4047C27.9468 51.6397 27.8146 51.9583 27.8143 52.2906V57.0406H25.107V52.2906C25.1066 51.9583 24.9744 51.6397 24.7394 51.4047C24.5043 51.1697 24.1857 51.0375 23.8534 51.0372H19.1034L19.1027 48.33Z" fill="black"/>
<path d="M7.28223 39.0724C7.03359 39.0724 6.79513 39.1712 6.61931 39.347C6.4435 39.5228 6.34473 39.7612 6.34473 40.0099V62.5643C6.34473 62.8129 6.4435 63.0514 6.61931 63.2272C6.79513 63.403 7.03359 63.5018 7.28223 63.5018C7.53087 63.5018 7.76932 63.403 7.94514 63.2272C8.12096 63.0514 8.21973 62.8129 8.21973 62.5643V40.0099C8.21973 39.7612 8.12096 39.5228 7.94514 39.347C7.76932 39.1712 7.53087 39.0724 7.28223 39.0724Z" fill="black"/>
<path d="M7.1875 37.8519C7.43614 37.8519 7.6746 37.7531 7.85041 37.5773C8.02623 37.4015 8.125 37.1631 8.125 36.9144V36.2443C8.125 35.9956 8.02623 35.7572 7.85041 35.5813C7.6746 35.4055 7.43614 35.3068 7.1875 35.3068C6.93886 35.3068 6.7004 35.4055 6.52459 35.5813C6.34877 35.7572 6.25 35.9956 6.25 36.2443V36.9144C6.25 37.1631 6.34877 37.4015 6.52459 37.5773C6.7004 37.7531 6.93886 37.8519 7.1875 37.8519Z" fill="black"/>
</svg>
