<svg width="80" height="80" viewBox="0 0 80 80" fill="none" xmlns="http://www.w3.org/2000/svg">
<path d="M78.75 43.75V26.25H71.25V21.25H76.25V1.25H53.75V11.25H43.52C43.0025 9.79875 41.6275 8.75 40 8.75C37.9325 8.75 36.25 10.4325 36.25 12.5C36.25 14.1275 37.2988 15.5025 38.75 16.02V23.75H33.75V38.75H42.5V46.25H40V49.55C40 50.1488 39.6162 50.6812 38.9463 50.9587C38.32 51.2212 37.665 51.1175 37.2375 50.69L34.915 48.355L29.605 53.6637L31.9388 55.9888C32.3612 56.4087 32.4662 57.08 32.185 57.75C31.9337 58.3575 31.3888 58.75 30.7975 58.75H27.3325L27.0813 56.9938C26.495 52.8913 24.7825 49.0387 22.13 45.855C21.0188 44.52 20.3362 42.895 20.1062 41.1875C21.3337 41.0438 22.5038 40.5125 23.3838 39.6338C24.4263 38.5925 25 37.2062 25 35.7325V33.4025L28.75 32.1525V31.2512C28.75 27.0262 27.175 23.3838 26 21.25H28.75C30.1287 21.25 31.25 20.1287 31.25 18.75V16.25C31.25 14.8713 30.1287 13.75 28.75 13.75H28.525L28.2063 12.1588C26.9425 5.8375 21.3463 1.25 14.9 1.25C7.89875 1.25 2.09375 6.50375 1.39625 13.47L1.25 15V18.75C1.25 19.3388 1.46375 19.8737 1.805 20.3012C1.4425 21.3387 1.25 22.44 1.25 23.535V24.055C1.25 28.18 3.25375 32.0737 6.61125 34.4725L10 36.8925V43.0263C8.81875 43.5375 7.81125 44.4 7.12125 45.5425C6.565 46.4612 6.2775 47.5713 6.265 48.75H6.25V78.75H27.5V71.2513H29.52L34.915 76.6463L37.2375 74.3112C37.6663 73.8825 38.3188 73.7775 39 74.065C39.6175 74.32 40 74.8525 40 75.4512V78.75H47.5V75.45C47.5 74.8512 47.8837 74.3187 48.5537 74.0413C49.1787 73.7775 49.835 73.8825 50.2625 74.31L52.585 76.645L57.895 71.3363L55.5613 69.0125C55.1325 68.5837 55.0287 67.93 55.3138 67.25C55.565 66.6425 56.11 66.25 56.7012 66.25H60V63.75H68.98C69.4975 65.2012 70.8725 66.25 72.5 66.25C74.5675 66.25 76.25 64.5675 76.25 62.5C76.25 60.8725 75.2012 59.4975 73.75 58.98V43.75H78.75ZM63.75 41.25V28.75H75.8537L69.9287 35.6612L68.3838 34.1162L66.6162 35.8838L70.0713 39.3388L76.25 32.1287V41.25H63.75ZM56.25 3.75H73.75V18.75H56.25V3.75ZM40 11.25C40.6888 11.25 41.25 11.81 41.25 12.5C41.25 13.19 40.6888 13.75 40 13.75C39.3112 13.75 38.75 13.19 38.75 12.5C38.75 11.81 39.3112 11.25 40 11.25ZM36.25 26.25H45.1325L41.1963 30.6787L39.6338 29.1162L37.8662 30.8838L41.3037 34.3213L46.25 28.7562V36.25H36.25V26.25ZM24.6087 57.3488L24.7962 58.6625C22.1775 58.2463 20.0712 56.2225 19.6213 53.5325L18.7938 48.5962C19.5887 48.68 20.3875 48.73 21.1862 48.7388C22.985 51.2938 24.1637 54.2388 24.6087 57.3488ZM26.2225 30.3588L22.5 31.6V33.75H20.295C19.0475 33.75 17.9263 33.0562 17.3688 31.9412L15.1325 33.06C16.1175 35.0275 18.095 36.2513 20.295 36.2513H22.45C22.345 36.86 22.0625 37.4225 21.6162 37.8688C21.0537 38.43 20.2763 38.7525 19.4825 38.7525L15 38.75V41.25L17.58 41.2513C17.7725 42.9875 18.3538 44.6587 19.275 46.1412C18.875 46.1037 18.4775 46.0425 18.0812 45.985C17.0525 43.9075 14.9288 42.5013 12.5 42.5V31.7675C12.5 31.11 12.2337 30.465 11.7675 30L10.5175 28.75C10.1837 28.415 10 27.9725 10 27.5C10 26.81 10.5612 26.25 11.25 26.25H12.5V23.75C12.5 22.3713 13.6213 21.25 15 21.25H23.09C23.9113 22.5163 25.9625 26.0688 26.2225 30.3588ZM28.75 16.25V18.75H3.75L3.74625 16.25H28.75ZM6.25 13.75H3.88125L3.88375 13.72C3.97 12.8587 4.1625 12.0363 4.42875 11.25H6.25V13.75ZM16.25 13.75H13.75V8.75H16.25V13.75ZM25.755 12.6488L25.975 13.75H23.75V11.25H25.3675C25.5225 11.7037 25.6588 12.1675 25.755 12.6488ZM14.9 3.75C18.7038 3.75 22.1375 5.715 24.14 8.75H23.75C22.3713 8.75 21.25 9.87125 21.25 11.25V13.75H18.75V8.75C18.75 7.37125 17.6287 6.25 16.25 6.25H13.75C12.3713 6.25 11.25 7.37125 11.25 8.75V13.75H8.75V11.25C8.75 9.87125 7.62875 8.75 6.25 8.75H5.6375C7.61875 5.7175 11.0338 3.75 14.9 3.75ZM8.065 32.4388C5.3625 30.5088 3.75 27.3737 3.75 24.055V23.535C3.75 22.7625 3.88 21.9862 4.1225 21.25H10.6962C10.265 21.9888 10 22.835 10 23.75V23.9637C8.545 24.48 7.5 25.87 7.5 27.5C7.5 28.6388 7.94375 29.7113 8.75 30.5175L10 31.7675V33.8213L8.065 32.4388ZM9.26 46.8363C9.87125 45.8225 10.8888 45.165 12.0675 45.0262C12.1875 45.01 12.3438 45 12.4975 45C14.395 45 15.9913 46.425 16.2225 48.375L17.155 53.945C17.8638 58.1787 21.495 61.2513 25.7887 61.2513L32.495 61.25V68.75L23.5112 68.7513C16.7325 68.7513 10.8813 63.6963 9.89875 56.9925L8.785 49.3862C8.6725 48.435 8.84125 47.5288 9.26 46.8363ZM25 76.25H8.75V61.77C11.3562 67.3925 17.0763 71.2513 23.5112 71.2513H25V76.25ZM57.5 63.75H56.7012C55.095 63.75 53.645 64.7488 52.9863 66.335C52.3312 67.8938 52.6488 69.64 53.7962 70.7825L54.355 71.3387L52.5887 73.105L52.0325 72.5475C50.89 71.3988 49.1437 71.0813 47.5425 71.7538C45.9987 72.395 45 73.845 45 75.45V76.25H42.5V75.45C42.5 73.845 41.5013 72.395 39.9163 71.7363C38.3538 71.0788 36.6087 71.3975 35.4662 72.5462L34.9113 73.1038L33.0037 71.1963C34.14 70.9613 34.9963 69.9525 34.9963 68.7487H37.6488C39.2775 70.3388 41.4662 71.2487 43.7525 71.2487C48.5775 71.2487 52.5025 67.3225 52.5025 62.4987C52.5025 57.675 48.5775 53.7487 43.7525 53.7487C41.4437 53.7487 39.25 54.665 37.6187 56.2738C37.4975 56.2612 37.3763 56.2487 37.2525 56.2487C36.3525 56.2487 35.51 56.5837 34.84 57.1725C34.8825 56.0725 34.4963 55 33.7062 54.2163L33.1475 53.66L34.9137 51.8937L35.47 52.4512C36.6138 53.6 38.36 53.92 39.96 53.245C41.5013 52.605 42.5 51.155 42.5 49.55V48.75H45V49.55C45 51.155 45.9988 52.605 47.5838 53.2637C49.145 53.92 50.8912 53.6025 52.0337 52.4538L52.5887 51.8962L54.355 53.6625L53.7975 54.2175C52.65 55.3587 52.3312 57.1063 53.0037 58.7087C53.645 60.2512 55.095 61.25 56.7012 61.25H57.5V63.75ZM43.7487 58.75H40.77L40.535 58.28C40.3913 57.9925 40.21 57.7337 40.0063 57.5C41.0788 56.6963 42.3875 56.25 43.75 56.25C47.1963 56.25 50 59.0537 50 62.5C50 65.9463 47.1963 68.75 43.75 68.75C43.33 68.75 42.915 68.7038 42.51 68.6212C45.355 68.0362 47.5 65.5137 47.5 62.5C47.5 60.4325 45.8175 58.75 43.7487 58.75ZM38.2988 59.3988L39.225 61.25H43.7487C44.4388 61.25 45 61.81 45 62.5C45 64.5675 43.3162 66.25 41.2487 66.25H34.995V60.5175L36.42 59.0938C36.9562 58.56 37.9613 58.7225 38.2988 59.3988ZM72.5 63.75C71.8112 63.75 71.25 63.19 71.25 62.5C71.25 61.81 71.8112 61.25 72.5 61.25C73.1888 61.25 73.75 61.81 73.75 62.5C73.75 63.19 73.1888 63.75 72.5 63.75ZM71.25 58.98C70.1913 59.3575 69.3575 60.1912 68.98 61.25H60V58.75H56.7012C56.11 58.75 55.565 58.3587 55.2913 57.6975C55.0325 57.08 55.1375 56.4088 55.5613 55.9875L57.895 53.6637L52.585 48.355L50.2625 50.69C49.8337 51.1187 49.1812 51.2238 48.5 50.9362C47.8825 50.6813 47.5 50.1488 47.5 49.55V46.25H45V38.75H48.75V25.9437L52.185 22.08L50.3162 20.42L47.355 23.75H41.25V16.02C42.3088 15.6425 43.1425 14.8088 43.52 13.75H53.75V21.25H68.75V26.25H61.25V43.75H71.25V58.98Z" fill="black"/>
<path d="M62.4287 13.1612L60.8837 11.6163L59.1162 13.3837L62.5712 16.8387L70.9487 7.0625L69.0512 5.4375L62.4287 13.1612Z" fill="black"/>
</svg>
