<svg width="80" height="80" viewBox="0 0 80 80" fill="none" xmlns="http://www.w3.org/2000/svg">
<path d="M22.5 31.25H20V33.75H22.5V31.25Z" fill="black"/>
<path d="M35 31.25H32.5V33.75H35V31.25Z" fill="black"/>
<path d="M76.4276 45.0125L71.5438 44.315C71.3116 43.6321 71.0373 42.9641 70.7226 42.315L73.6776 38.375C73.8581 38.1343 73.9457 37.8366 73.9243 37.5365C73.9029 37.2363 73.7741 36.954 73.5613 36.7413L68.2576 31.4375C68.0538 31.2352 67.786 31.1101 67.5001 31.0838V19.0513C68.6696 18.1149 69.6138 16.9277 70.2629 15.5774C70.9119 14.2271 71.2493 12.7482 71.2501 11.25C71.2615 9.35562 70.729 7.49774 69.7157 5.89706C68.7024 4.29638 67.251 3.02017 65.5338 2.22003C65.3433 2.13007 65.1332 2.08972 64.9229 2.10272C64.7127 2.11573 64.5091 2.18166 64.3311 2.2944C64.1532 2.40713 64.0066 2.56302 63.905 2.74757C63.8034 2.93213 63.7501 3.13936 63.7501 3.35003V10.35L61.2501 11.1838L58.7501 10.35V3.35003C58.7492 3.13979 58.6953 2.93317 58.5933 2.74929C58.4914 2.56541 58.3447 2.41021 58.1669 2.29805C57.9891 2.1859 57.7858 2.12041 57.576 2.10764C57.3661 2.09488 57.1564 2.13525 56.9663 2.22503C55.2499 3.02482 53.799 4.30025 52.7858 5.89995C51.7726 7.49965 51.2396 9.35647 51.2501 11.25C51.2508 12.7482 51.5882 14.2271 52.2373 15.5774C52.8864 16.9277 53.8305 18.1149 55.0001 19.0513V27.5H51.2501C50.9493 27.5 50.6586 27.6084 50.4312 27.8054C50.2039 28.0024 50.0553 28.2748 50.0126 28.5725L49.2038 34.2338L51.6788 34.5875L52.3338 30H57.6663L58.3213 34.5875C58.3554 34.8252 58.4573 35.048 58.6146 35.2293C58.772 35.4107 58.9783 35.5428 59.2088 35.61C60.2507 35.911 61.2566 36.3247 62.2088 36.8438C62.4195 36.9593 62.659 37.0116 62.8986 36.9946C63.1383 36.9775 63.3679 36.8917 63.5601 36.7475L67.2613 33.9725L71.0313 37.7425L68.2501 41.4438C68.1059 41.6359 68.0201 41.8656 68.003 42.1052C67.986 42.3449 68.0383 42.5844 68.1538 42.795C68.6729 43.7472 69.0865 44.7532 69.3876 45.795C69.4548 46.0255 69.5869 46.2318 69.7683 46.3892C69.9496 46.5466 70.1724 46.6484 70.4101 46.6825L74.9976 47.3375V52.67L70.4101 53.325C70.1724 53.3591 69.9496 53.461 69.7683 53.6183C69.5869 53.7757 69.4548 53.982 69.3876 54.2125C69.0865 55.2544 68.6729 56.2603 68.1538 57.2125C68.0383 57.4232 67.986 57.6627 68.003 57.9023C68.0201 58.142 68.1059 58.3716 68.2501 58.5638L71.0251 62.265L67.2551 66.035L63.5563 63.25C63.3642 63.1058 63.1345 63.02 62.8949 63.003C62.6552 62.9859 62.4157 63.0383 62.2051 63.1538C61.2529 63.6728 60.2469 64.0865 59.2051 64.3875C58.9746 64.4547 58.7683 64.5869 58.6109 64.7682C58.4535 64.9495 58.3517 65.1723 58.3176 65.41L57.6663 70H52.5001V64.7138C52.4992 63.3932 52.3098 62.0795 51.9376 60.8125C54.3185 61.5095 56.8619 61.41 59.181 60.529C61.5002 59.6479 63.4682 58.0337 64.7858 55.9316C66.1033 53.8296 66.6984 51.3547 66.4805 48.8835C66.2626 46.4122 65.2436 44.0797 63.5785 42.2407C61.9134 40.4016 59.6933 39.1567 57.2558 38.6951C54.8183 38.2335 52.2967 38.5805 50.0745 39.6834C47.8523 40.7863 46.051 42.5848 44.9447 44.8052C43.8383 47.0257 43.4873 49.5468 43.9451 51.985C43.9151 51.9725 43.8863 51.9575 43.8563 51.9463L33.7501 47.9038V45.9825C35.4204 45.128 36.8999 43.9432 38.0988 42.5H41.2501C42.2446 42.5 43.1985 42.1049 43.9017 41.4017C44.605 40.6984 45.0001 39.7446 45.0001 38.75V36.02C45.7287 35.7624 46.36 35.286 46.8075 34.6559C47.255 34.0258 47.4969 33.2728 47.5001 32.5V28.75C47.4969 27.9772 47.255 27.2242 46.8075 26.5941C46.36 25.9641 45.7287 25.4876 45.0001 25.23V23.75C45.0001 19.1087 43.1563 14.6575 39.8744 11.3757C36.5926 8.09377 32.1414 6.25003 27.5001 6.25003C22.8588 6.25003 18.4076 8.09377 15.1257 11.3757C11.8438 14.6575 10.0001 19.1087 10.0001 23.75V25.23C9.27144 25.4876 8.64019 25.9641 8.19268 26.5941C7.74518 27.2242 7.50327 27.9772 7.50007 28.75V32.5C7.50007 33.4946 7.89516 34.4484 8.59842 35.1517C9.30168 35.8549 10.2555 36.25 11.2501 36.25H13.7501C13.8301 36.25 13.9076 36.2375 13.9863 36.2325C14.3707 38.305 15.2253 40.2617 16.4846 41.952C17.7439 43.6423 19.3742 45.0212 21.2501 45.9825V47.9038L11.1438 51.9463C8.58704 52.9595 6.39484 54.7196 4.853 56.997C3.31117 59.2744 2.49123 61.9635 2.50007 64.7138V76.25C2.50007 76.5815 2.63177 76.8995 2.86619 77.1339C3.10061 77.3683 3.41855 77.5 3.75007 77.5H51.2501C51.5816 77.5 51.8995 77.3683 52.134 77.1339C52.3684 76.8995 52.5001 76.5815 52.5001 76.25V72.5H58.7501C59.0509 72.5001 59.3416 72.3916 59.5689 72.1946C59.7962 71.9976 59.9449 71.7253 59.9876 71.4275L60.6851 66.5438C61.368 66.3115 62.036 66.0372 62.6851 65.7225L66.6251 68.6775C66.8658 68.858 67.1635 68.9456 67.4636 68.9242C67.7637 68.9029 68.0461 68.774 68.2588 68.5613L73.5626 63.2575C73.7753 63.0448 73.9042 62.7624 73.9256 62.4623C73.9469 62.1622 73.8593 61.8645 73.6788 61.6238L70.7238 57.6838C71.0385 57.0347 71.3128 56.3667 71.5451 55.6838L76.4288 54.9863C76.7261 54.9433 76.998 54.7947 77.1947 54.5677C77.3915 54.3407 77.4999 54.0504 77.5001 53.75V46.25C77.5001 45.9492 77.3917 45.6585 77.1947 45.4312C76.9977 45.2039 76.7253 45.0552 76.4276 45.0125ZM62.6776 34.2775C62.6188 34.2488 62.5526 34.23 62.4938 34.2025V18.75H60.0001V28.6625L59.9876 28.5725C59.9449 28.2748 59.7962 28.0024 59.5689 27.8054C59.3416 27.6084 59.0509 27.5 58.7501 27.5H57.5001V18.425C57.5001 18.2234 57.4513 18.0248 57.3579 17.8461C57.2646 17.6674 57.1293 17.5139 56.9638 17.3988C56.0346 16.7519 55.2639 15.903 54.7096 14.9157C54.1552 13.9285 53.8316 12.8286 53.7629 11.6985C53.6942 10.5683 53.8823 9.43732 54.3131 8.39024C54.7438 7.34316 55.406 6.40719 56.2501 5.65253V11.25C56.25 11.5125 56.3326 11.7683 56.486 11.9812C56.6395 12.1941 56.8561 12.3533 57.1051 12.4363L60.8551 13.6863C61.1115 13.7717 61.3887 13.7717 61.6451 13.6863L65.3951 12.4363C65.6441 12.3533 65.8607 12.1941 66.0141 11.9812C66.1676 11.7683 66.2501 11.5125 66.2501 11.25V5.65253C67.0948 6.40717 67.7576 7.34336 68.1888 8.39082C68.62 9.43827 68.8083 10.5698 68.7396 11.7004C68.6709 12.8311 68.347 13.9315 67.7923 14.919C67.2375 15.9066 66.4662 16.7557 65.5363 17.4025C65.3713 17.5173 65.2364 17.6702 65.1431 17.8482C65.0497 18.0261 65.0007 18.224 65.0001 18.425V32.5413L62.6776 34.2775ZM46.2501 50C46.2363 48.0455 46.8727 46.1419 48.0592 44.5886C49.2456 43.0354 50.9148 41.9206 52.8041 41.4197C54.6933 40.9189 56.6955 41.0603 58.4957 41.8218C60.2958 42.5833 61.7917 43.9216 62.748 45.6262C63.7043 47.3308 64.0668 49.305 63.7784 51.2382C63.49 53.1713 62.5672 54.9538 61.155 56.3051C59.7428 57.6564 57.9215 58.4999 55.9775 58.7028C54.0335 58.9058 52.0772 58.4567 50.4163 57.4263C49.5522 56.042 48.4468 54.824 47.1526 53.83C46.5579 52.6409 46.2489 51.3295 46.2501 50ZM41.2501 40H39.7326C40.3417 38.8137 40.7734 37.5443 41.0138 36.2325C41.0926 36.2325 41.1701 36.25 41.2501 36.25H42.5001V38.75C42.5001 39.0815 42.3684 39.3995 42.134 39.6339C41.8995 39.8683 41.5816 40 41.2501 40ZM38.7501 26.25C38.1682 26.2486 37.5945 26.1124 37.074 25.8522C36.5535 25.5919 36.1004 25.2147 35.7501 24.75L33.5001 21.75C33.3996 21.6161 33.2733 21.5037 33.1285 21.4195C32.9838 21.3354 32.8237 21.2811 32.6576 21.26C32.4914 21.2396 32.3229 21.2524 32.1617 21.2977C32.0006 21.343 31.85 21.4198 31.7188 21.5238L27.5238 24.875C26.417 25.7608 25.0427 26.2454 23.6251 26.25H16.2501V25C16.2501 22.0163 17.4353 19.1549 19.5451 17.0451C21.6549 14.9353 24.5164 13.75 27.5001 13.75C30.4838 13.75 33.3452 14.9353 35.455 17.0451C37.5648 19.1549 38.7501 22.0163 38.7501 25V26.25ZM45.0001 32.5C45.0001 32.8315 44.8684 33.1495 44.634 33.3839C44.3995 33.6183 44.0816 33.75 43.7501 33.75H41.2501V27.5H43.7501C44.0816 27.5 44.3995 27.6317 44.634 27.8661C44.8684 28.1006 45.0001 28.4185 45.0001 28.75V32.5ZM27.5001 8.75003C31.477 8.75433 35.2898 10.3361 38.1019 13.1482C40.914 15.9603 42.4958 19.7731 42.5001 23.75V25H41.2501C41.2501 21.3533 39.8014 17.8559 37.2228 15.2773C34.6442 12.6987 31.1468 11.25 27.5001 11.25C23.8533 11.25 20.356 12.6987 17.7774 15.2773C15.1987 17.8559 13.7501 21.3533 13.7501 25H12.5001V23.75C12.5044 19.7731 14.0861 15.9603 16.8982 13.1482C19.7103 10.3361 23.5231 8.75433 27.5001 8.75003ZM11.2501 33.75C10.9186 33.75 10.6006 33.6183 10.3662 33.3839C10.1318 33.1495 10.0001 32.8315 10.0001 32.5V28.75C10.0001 28.4185 10.1318 28.1006 10.3662 27.8661C10.6006 27.6317 10.9186 27.5 11.2501 27.5H13.7501V33.75H11.2501ZM16.2501 33.75V28.75H23.6251C25.6112 28.7474 27.5377 28.0714 29.0901 26.8325L32.2788 24.2813L33.7501 26.25C34.3339 27.0245 35.0892 27.6532 35.9566 28.0869C36.8241 28.5206 37.7802 28.7476 38.7501 28.75V33.75C38.7521 35.9763 38.0897 38.1525 36.8476 40H27.5001V42.5H34.5551C32.9043 43.8347 30.9093 44.6746 28.8009 44.9225C26.6926 45.1703 24.5571 44.816 22.6419 43.9004C20.7266 42.9849 19.1097 41.5456 17.9785 39.7493C16.8474 37.9529 16.2481 35.8729 16.2501 33.75ZM27.5001 47.5C28.7687 47.4969 30.0307 47.3177 31.2501 46.9675V48.75C31.2501 49.7446 30.855 50.6984 30.1517 51.4017C29.4485 52.1049 28.4946 52.5 27.5001 52.5C26.5055 52.5 25.5517 52.1049 24.8484 51.4017C24.1452 50.6984 23.7501 49.7446 23.7501 48.75V46.9675C24.9694 47.3177 26.2315 47.4969 27.5001 47.5ZM50.0001 75H42.5001V61.25H40.0001V75H15.0001V61.25H12.5001V75H5.00007V64.7138C4.99279 62.4635 5.66367 60.2633 6.92525 58.3999C8.18682 56.5365 9.98055 55.0965 12.0726 54.2675L21.5263 50.4863C21.8955 51.786 22.6785 52.93 23.7565 53.7445C24.8346 54.559 26.1489 54.9997 27.5001 54.9997C28.8512 54.9997 30.1656 54.559 31.2436 53.7445C32.3217 52.93 33.1047 51.786 33.4738 50.4863L42.9276 54.2675C45.0196 55.0965 46.8133 56.5365 48.0749 58.3999C49.3365 60.2633 50.0074 62.4635 50.0001 64.7138V75Z" fill="black"/>
<path d="M56.25 32.5H53.75V35H56.25V32.5Z" fill="black"/>
<path d="M56.25 65H53.75V67.5H56.25V65Z" fill="black"/>
<path d="M66.4894 59.723L64.7217 61.4907L66.4894 63.2585L68.2572 61.4907L66.4894 59.723Z" fill="black"/>
<path d="M72.5 48.75H70V51.25H72.5V48.75Z" fill="black"/>
<path d="M66.4899 36.7425L64.7222 38.5103L66.4899 40.278L68.2577 38.5103L66.4899 36.7425Z" fill="black"/>
</svg>
