<svg width="80" height="80" viewBox="0 0 80 80" fill="none" xmlns="http://www.w3.org/2000/svg">
<path d="M73.75 18.7499H44.8L44.3375 16.1124C45.6357 15.1921 46.6075 13.8827 47.1124 12.3737C47.6174 10.8646 47.6292 9.23405 47.1463 7.7178C46.6634 6.20155 45.7107 4.8782 44.426 3.93912C43.1414 3.00003 41.5913 2.4939 40 2.4939C38.4087 2.4939 36.8586 3.00003 35.574 3.93912C34.2893 4.8782 33.3366 6.20155 32.8537 7.7178C32.3708 9.23405 32.3826 10.8646 32.8876 12.3737C33.3925 13.8827 34.3643 15.1921 35.6625 16.1124L35.2 18.7499H7.5C6.17392 18.7499 4.90215 19.2767 3.96447 20.2144C3.02678 21.1521 2.5 22.4238 2.5 23.7499V62.4999C2.50297 63.4935 2.89901 64.4457 3.60163 65.1483C4.30425 65.8509 5.25635 66.2469 6.25 66.2499H35V69.9999H27.5C27.1685 69.9999 26.8505 70.1316 26.6161 70.366C26.3817 70.6004 26.25 70.9184 26.25 71.2499V76.2499C26.25 76.5814 26.3817 76.8994 26.6161 77.1338C26.8505 77.3682 27.1685 77.4999 27.5 77.4999H52.5C52.8315 77.4999 53.1495 77.3682 53.3839 77.1338C53.6183 76.8994 53.75 76.5814 53.75 76.2499V71.2499C53.75 70.9184 53.6183 70.6004 53.3839 70.366C53.1495 70.1316 52.8315 69.9999 52.5 69.9999H45V66.2499H73.75C74.7437 66.2469 75.6958 65.8509 76.3984 65.1483C77.101 64.4457 77.497 63.4935 77.5 62.4999V22.4999C77.497 21.5063 77.101 20.5541 76.3984 19.8515C75.6958 19.1489 74.7437 18.7529 73.75 18.7499ZM35 9.9999C35 9.01099 35.2932 8.0443 35.8427 7.22205C36.3921 6.3998 37.173 5.75894 38.0866 5.3805C39.0002 5.00207 40.0055 4.90305 40.9755 5.09597C41.9454 5.2889 42.8363 5.7651 43.5355 6.46437C44.2348 7.16363 44.711 8.05454 44.9039 9.02445C45.0969 9.99435 44.9978 10.9997 44.6194 11.9133C44.241 12.8269 43.6001 13.6078 42.7779 14.1572C41.9556 14.7067 40.9889 14.9999 40 14.9999C38.6739 14.9999 37.4021 14.4731 36.4645 13.5354C35.5268 12.5978 35 11.326 35 9.9999ZM42.2625 18.7499H37.7375L38 17.2249C39.3081 17.5916 40.6919 17.5916 42 17.2249L42.2625 18.7499ZM51.25 72.4999V74.9999H28.75V72.4999H51.25ZM37.5 69.9999V66.2499H42.5V69.9999H37.5ZM75 62.4999C75 62.8314 74.8683 63.1494 74.6339 63.3838C74.3995 63.6182 74.0815 63.7499 73.75 63.7499H6.25C5.91848 63.7499 5.60054 63.6182 5.36612 63.3838C5.1317 63.1494 5 62.8314 5 62.4999V61.2499H75V62.4999ZM75 58.7499H5V23.7499C5.00198 23.0875 5.26601 22.4527 5.73442 21.9843C6.20283 21.5159 6.83757 21.2519 7.5 21.2499H73.75C74.0815 21.2499 74.3995 21.3816 74.6339 21.616C74.8683 21.8504 75 22.1684 75 22.4999V58.7499Z" fill="black"/>
<path d="M40 13.75C40.7417 13.75 41.4667 13.5301 42.0834 13.118C42.7001 12.706 43.1807 12.1203 43.4646 11.4351C43.7484 10.7498 43.8226 9.99584 43.678 9.26841C43.5333 8.54098 43.1761 7.8728 42.6517 7.34835C42.1272 6.8239 41.459 6.46675 40.7316 6.32206C40.0042 6.17736 39.2502 6.25162 38.5649 6.53545C37.8797 6.81928 37.294 7.29993 36.882 7.91661C36.4699 8.5333 36.25 9.25832 36.25 10C36.25 10.9946 36.6451 11.9484 37.3484 12.6517C38.0516 13.3549 39.0054 13.75 40 13.75ZM40 8.75C40.2472 8.75 40.4889 8.82331 40.6945 8.96066C40.9 9.09802 41.0602 9.29324 41.1549 9.52165C41.2495 9.75006 41.2742 10.0014 41.226 10.2439C41.1778 10.4863 41.0587 10.7091 40.8839 10.8839C40.7091 11.0587 40.4863 11.1778 40.2439 11.226C40.0014 11.2742 39.7501 11.2495 39.5216 11.1549C39.2932 11.0602 39.098 10.9 38.9607 10.6945C38.8233 10.4889 38.75 10.2472 38.75 10C38.75 9.66848 38.8817 9.35054 39.1161 9.11612C39.3505 8.8817 39.6685 8.75 40 8.75Z" fill="black"/>
<path d="M72.5 22.5H7.5C7.16848 22.5 6.85054 22.6317 6.61612 22.8661C6.3817 23.1005 6.25 23.4185 6.25 23.75V56.25C6.25 56.5815 6.3817 56.8995 6.61612 57.1339C6.85054 57.3683 7.16848 57.5 7.5 57.5H72.5C72.8315 57.5 73.1495 57.3683 73.3839 57.1339C73.6183 56.8995 73.75 56.5815 73.75 56.25V23.75C73.75 23.4185 73.6183 23.1005 73.3839 22.8661C73.1495 22.6317 72.8315 22.5 72.5 22.5ZM36.7625 55H13.75V53.75C13.753 52.7564 14.149 51.8042 14.8516 51.1016C15.5542 50.399 16.5064 50.003 17.5 50H19.375L22.75 54.5C22.8664 54.6552 23.0174 54.7812 23.191 54.868C23.3646 54.9548 23.5559 55 23.75 55C23.9441 55 24.1354 54.9548 24.309 54.868C24.4826 54.7812 24.6336 54.6552 24.75 54.5L28.125 50H30.85L33.0625 51.575C33.1997 51.6793 33.3581 51.7523 33.5265 51.789C33.6949 51.8257 33.8693 51.8252 34.0375 51.7875C34.2062 51.7553 34.366 51.6873 34.5061 51.5881C34.6463 51.4889 34.7635 51.3608 34.85 51.2125L36.725 48.175L39.4375 50.2L36.7625 55ZM18.75 35H28.75V38.75C28.75 40.0761 28.2232 41.3479 27.2855 42.2855C26.3479 43.2232 25.0761 43.75 23.75 43.75C22.4239 43.75 21.1521 43.2232 20.2145 42.2855C19.2768 41.3479 18.75 40.0761 18.75 38.75V35ZM15.1625 32.5C15.3656 31.6912 15.7695 30.9468 16.3367 30.3355C16.9039 29.7242 17.6161 29.2659 18.4074 29.0029C19.1988 28.74 20.0437 28.6809 20.8639 28.8312C21.6842 28.9814 22.4532 29.3361 23.1 29.8625C23.2477 29.9797 23.42 30.0619 23.604 30.103C23.788 30.1441 23.979 30.1431 24.1625 30.1C24.4375 30.0381 24.7181 30.0046 25 30C25.7752 30.0021 26.5309 30.2434 27.164 30.6908C27.797 31.1382 28.2767 31.77 28.5375 32.5H15.1625ZM21.525 47.5L21.825 45.9875C23.0845 46.3375 24.4155 46.3375 25.675 45.9875L25.975 47.5H21.525ZM25 50L23.75 51.6625L22.5 50H25ZM38.0375 46.0375L38.45 45.375C38.6581 45.0336 38.9876 44.7833 39.3723 44.6744C39.7571 44.5655 40.1688 44.6059 40.525 44.7875C40.7178 44.8851 40.889 45.0205 41.0284 45.1855C41.1679 45.3506 41.2728 45.5419 41.3369 45.7483C41.401 45.9546 41.4231 46.1717 41.4017 46.3868C41.3803 46.6018 41.316 46.8103 41.2125 47L40.6625 47.9875L38.0375 46.0375ZM71.25 55H39.625L43.4 48.2125C43.6708 47.7299 43.8393 47.1968 43.8952 46.6463C43.9512 46.0958 43.8932 45.5397 43.725 45.0125C43.5476 44.4208 43.2304 43.8806 42.8 43.4375L47.3625 34.3125L45.1375 33.1875L40.625 42.2125C39.8032 42.0393 38.9479 42.1241 38.1761 42.4552C37.4042 42.7863 36.7534 43.3477 36.3125 44.0625L33.425 48.7625L31.975 47.7375C31.7665 47.5798 31.5114 47.4962 31.25 47.5H28.525L28.0125 44.9125C29.01 44.2235 29.8257 43.3029 30.3895 42.2296C30.9534 41.1563 31.2486 39.9624 31.25 38.75V33.75C31.25 32.9292 31.0883 32.1165 30.7742 31.3582C30.4602 30.5999 29.9998 29.9109 29.4194 29.3306C28.8391 28.7502 28.1501 28.2898 27.3918 27.9758C26.6335 27.6617 25.8208 27.5 25 27.5C24.7281 27.5026 24.4566 27.5235 24.1875 27.5625C22.9588 26.707 21.4972 26.2489 20 26.25C18.0109 26.25 16.1032 27.0402 14.6967 28.4467C13.2902 29.8532 12.5 31.7609 12.5 33.75C12.5 34.0815 12.6317 34.3995 12.8661 34.6339C13.1005 34.8683 13.4185 35 13.75 35H16.25V38.75C16.2514 39.9624 16.5466 41.1563 17.1105 42.2296C17.6743 43.3029 18.49 44.2235 19.4875 44.9125L18.975 47.5H17.5C15.8424 47.5 14.2527 48.1585 13.0806 49.3306C11.9085 50.5027 11.25 52.0924 11.25 53.75V55H8.75V25H71.25V55Z" fill="black"/>
<path d="M48.75 27.5H58.75V30H48.75V27.5Z" fill="black"/>
<path d="M61.25 27.5H68.75V30H61.25V27.5Z" fill="black"/>
<path d="M48.75 32.5H53.75V35H48.75V32.5Z" fill="black"/>
<path d="M56.25 32.5H68.75V35H56.25V32.5Z" fill="black"/>
<path d="M48.75 37.5H56.25V40H48.75V37.5Z" fill="black"/>
<path d="M58.75 37.5H68.75V40H58.75V37.5Z" fill="black"/>
<path d="M48.75 42.5H68.75V45H48.75V42.5Z" fill="black"/>
<path d="M48.75 47.5H68.75V50H48.75V47.5Z" fill="black"/>
</svg>
